<?xml version="1.0" encoding="utf-8"?>
<!-- Generator: Adobe Illustrator 24.3.0, SVG Export Plug-In . SVG Version: 6.00 Build 0)  -->
<svg version="1.1" xmlns="http://www.w3.org/2000/svg" xmlns:xlink="http://www.w3.org/1999/xlink" x="0px" y="0px"
	 viewBox="0 0 750 500" style="enable-background:new 0 0 750 500;" xml:space="preserve">
<style type="text/css">
	.st0{fill:#92E3A9;}
	.st1{opacity:0.8;fill:#FFFFFF;}
	.st2{fill:#FFFFFF;stroke:#263238;stroke-miterlimit:10;}
	.st3{fill:#263238;}
	.st4{fill:#263238;stroke:#263238;stroke-miterlimit:10;}
	.st5{fill:#92E3A9;stroke:#263238;stroke-miterlimit:10;}
	.st6{fill:none;stroke:#263238;stroke-miterlimit:10;}
	.st7{fill:#FFFFFF;stroke:#263238;stroke-width:0.65;stroke-miterlimit:10;}
	.st8{fill:#FFFFFF;stroke:#263238;stroke-width:0.75;stroke-miterlimit:10;}
</style>
<g id="Background_Simple">
	<g>
		<path class="st0" d="M677.6,208.5c-20.2-69.7-76.7-124.7-149.4-143.1c-19.1-4.8-39.3-7.3-59-5.2c-80.5,8.5-173.2,64.2-222.5,75.8
			S135,101,73.5,172.6C12,244.3,39.7,410.1,175.7,442.5s204.4-47.5,265-30c60.6,17.5,166.3,10,225.1-41.7
			C700.7,340.3,695.2,268.9,677.6,208.5z"/>
		<path class="st1" d="M677.6,208.5c-20.2-69.7-76.7-124.7-149.4-143.1c-19.1-4.8-39.3-7.3-59-5.2c-80.5,8.5-173.2,64.2-222.5,75.8
			S135,101,73.5,172.6C12,244.3,39.7,410.1,175.7,442.5s204.4-47.5,265-30c60.6,17.5,166.3,10,225.1-41.7
			C700.7,340.3,695.2,268.9,677.6,208.5z"/>
	</g>
</g>
<g id="Floor_2">
	<g>
		<line class="st2" x1="685.7" y1="400.4" x2="697.9" y2="400.4"/>
		<line class="st2" x1="465.8" y1="400.4" x2="676.2" y2="400.4"/>
	</g>
</g>
<g id="Floor_1">
	<g>
		<line class="st2" x1="261.4" y1="400.4" x2="277" y2="400.4"/>
		<line class="st2" x1="44.9" y1="400.4" x2="251.9" y2="400.4"/>
	</g>
</g>
<g id="Plant">
	<g>
		<g>
			<path class="st3" d="M78.4,337.1c2.2,0.9,7.4,0.8,7.4,0.8c0.1,0-1.1-3.4-1.2-3.7c-1.2-2.4-4.8-6.4-7.8-6
				c-2.1,0.3-3.3,2.4-2.8,4.5C74.4,334.8,76.5,336.3,78.4,337.1z"/>
			<path class="st3" d="M80.2,352.4c2.2,0.3,6.9-1,7.3-1.1c0.7,2.6,1.7,5.3,2.9,7.9c0.6,1.5,1.3,3,2.1,4.5c-0.4-0.6-0.8-1.2-0.9-1.3
				c-1.8-2-6.3-4.9-9.1-3.7c-2,0.8-2.6,3.2-1.6,5c1,1.9,3.5,2.8,5.4,3.1c2,0.3,6-0.8,7.1-1.1c0.3,0.6,0.6,1.1,0.8,1.7
				c1.4,2.7,2.7,5.4,4,8.1c0.4,0.9,0.8,1.9,1.3,2.8c-0.4-0.6-0.7-1-0.8-1.1c-1.8-2-6.3-4.9-9.1-3.7c-2,0.8-2.6,3.2-1.6,5
				c1,1.9,3.5,2.8,5.4,3.1c1.9,0.3,5.6-0.7,6.9-1c0.4,1,0.8,2,1.1,2.9c0.2,0.7,0.5,1.3,0.6,2c0.2,0.7,0.4,1.3,0.6,2
				c0.3,1.3,0.6,2.6,0.9,3.9c0.2,0.9,0.4,1.7,0.5,2.6c-0.4-0.9-1.3-2.8-1.4-2.9c-1.4-2.3-5.5-5.8-8.4-5.1c-2.1,0.5-3,2.8-2.3,4.7
				c0.7,2,3,3.3,4.9,3.9c2.1,0.6,6.8,0.1,7.4,0c0.3,1.4,0.5,2.8,0.8,4c0.1,0.7,0.2,1.3,0.3,2h1.9c-0.1-0.7-0.3-1.5-0.4-2.3
				c-0.3-1.4-0.6-2.9-1-4.5c0.4-0.1,2.3-0.9,4.1-1.9c1.5,1.7,5.5,3.6,6,3.9c-0.5,1.3-1.1,2.6-1.6,3.8c-0.2,0.4-0.3,0.7-0.5,1h2
				c0-0.1,0.1-0.2,0.1-0.4c0.5-1.3,1.1-2.8,1.7-4.3c0.6,0.1,5.2,1.1,7.3,0.6c2-0.4,4.3-1.5,5.2-3.5c0.9-1.9,0.1-4.2-2-4.9
				c-2.8-1-7.2,2.3-8.8,4.4c-0.1,0.1-1,1.6-1.5,2.6c0.2-0.6,0.5-1.2,0.7-1.8c0.5-1.2,0.9-2.5,1.3-3.8c0.2-0.7,0.4-1.3,0.6-2
				c0.2-0.7,0.4-1.4,0.5-2.1c0.4-1.6,0.7-3.3,1-5c1.1,0.4,5,1.7,7,1.6c2-0.1,4.5-0.9,5.7-2.6c1.1-1.7,0.7-4.2-1.2-5.1
				c-2.7-1.4-7.4,1.2-9.3,3.1c-0.1,0.1-1.3,1.6-2,2.5c0.2-1,0.3-2,0.5-3.1c0.4-3,0.7-6,0.9-9c0.1-0.9,0.2-1.8,0.3-2.8
				c0.4,0.1,5,1.8,7.2,1.7c2-0.1,4.5-0.9,5.7-2.6c1.1-1.7,0.7-4.2-1.2-5.1c-2.7-1.4-7.4,1.2-9.3,3c-0.1,0.1-1.9,2.3-2.3,2.9
				c0.2-2,0.4-4,0.8-6c0.4-2.7,1-5.4,1.7-7.9c0.2,0.1,4.9,1.9,7.2,1.7c2-0.1,4.5-0.9,5.7-2.6c1.1-1.7,0.7-4.2-1.2-5.1
				c-2.7-1.4-7.4,1.2-9.3,3c-0.1,0.1-2,2.5-2.3,2.9c0-0.2,0.1-0.3,0.1-0.5c0.8-2.7,2-5.2,3.1-7.5c0.7-1.3,1.4-2.6,2.1-3.8
				c0.9,0.4,4.8,2.3,6.9,2.4c2,0.1,4.6-0.4,5.9-2c1.3-1.6,1.2-4.1-0.6-5.2c-2.5-1.7-7.5,0.3-9.6,2c-0.1,0.1-1.2,1.1-1.9,1.9
				c0.3-0.5,0.7-1.1,1-1.6c1.3-1.9,2.5-3.5,3.7-5c0.7-0.8,1.3-1.6,1.8-2.2c1.1,0,5.3-0.1,7.2-1c1.8-0.9,3.9-2.4,4.3-4.5
				c0.4-2-0.8-4.1-3-4.4c-3-0.3-6.5,3.8-7.6,6.2c-0.1,0.2-1.2,3.7-1.1,3.7c0,0,0.1,0,0.1,0c-0.6,0.6-1.2,1.3-1.8,2.1
				c-1.2,1.4-2.5,3.1-3.8,4.9c-1.3,1.9-2.7,3.9-3.9,6.2c-1.2,2.3-2.4,4.8-3.3,7.5c0,0,0,0.1,0,0.1c0-0.9,0-3.3,0-3.5
				c-0.3-2.7-2.6-7.6-5.5-8.1c-2.1-0.4-3.9,1.3-4.1,3.3c-0.2,2.1,1.4,4.2,2.9,5.6c1.7,1.5,6.4,3,6.7,3.1c-0.8,2.6-1.5,5.3-2,8.2
				c-0.3,1.6-0.5,3.2-0.7,4.9c0-0.8,0-1.4,0-1.5c-0.3-2.7-2.6-7.6-5.5-8.1c-2.1-0.4-3.9,1.3-4.1,3.3c-0.2,2.1,1.4,4.2,2.8,5.6
				c1.5,1.4,5.5,2.7,6.5,3c-0.1,0.6-0.2,1.3-0.2,1.9c-0.4,3-0.7,6-1.1,9c-0.2,1-0.3,2-0.5,3.1c0-0.7,0-1.2,0-1.3
				c-0.3-2.7-2.6-7.6-5.5-8.1c-2.1-0.4-3.9,1.3-4.1,3.3c-0.2,2.1,1.4,4.2,2.9,5.6c1.4,1.3,5.1,2.5,6.3,2.9c-0.2,1-0.4,2.1-0.7,3.1
				c-0.2,0.7-0.3,1.3-0.6,2c-0.2,0.7-0.4,1.3-0.6,2c-0.5,1.2-0.9,2.5-1.4,3.7c-0.3,0.8-0.6,1.6-1,2.4c0.2-1,0.4-3.1,0.4-3.2
				c0-1.8-0.6-4.7-1.8-6.7c0-0.3,0-0.5,0-0.8c-0.3-2-2.3-3.6-4.3-3c-2.9,0.8-4.7,5.9-4.9,8.5c0,0.2,0.1,1.9,0.2,3
				c-0.1-0.6-0.3-1.2-0.4-1.9c-0.3-1.3-0.6-2.6-1-3.9c-0.2-0.7-0.4-1.3-0.6-2c-0.2-0.7-0.5-1.3-0.7-2c-0.6-1.6-1.2-3.1-1.9-4.7
				c1.1-0.3,5.1-1.3,6.7-2.5c1.6-1.2,3.3-3.2,3.3-5.3c0-2.1-1.7-3.9-3.8-3.6c-3,0.3-5.6,5.1-6.1,7.7c0,0.2-0.2,2.1-0.3,3.2
				c-0.4-0.9-0.8-1.9-1.3-2.8c-1.3-2.7-2.8-5.4-4.2-8c-0.4-0.8-0.9-1.6-1.3-2.5c0.4-0.1,5.1-1.2,6.9-2.6c1.6-1.2,3.3-3.2,3.3-5.3
				c0-2.1-1.7-3.9-3.8-3.6c-3,0.3-5.6,5.1-6.1,7.7c0,0.2-0.3,3-0.3,3.7c-0.9-1.8-1.9-3.6-2.7-5.4c-1.2-2.5-2.1-5-2.9-7.6
				c0.2,0,5.1-1.2,7-2.6c1.6-1.2,3.3-3.2,3.3-5.3c0-2.1-1.7-3.9-3.8-3.6c-3,0.3-5.6,5.1-6.1,7.7c0,0.2-0.3,3.2-0.3,3.7
				c0-0.1-0.1-0.3-0.2-0.4c-0.8-2.7-1.2-5.4-1.5-8c-0.2-1.5-0.2-2.9-0.3-4.3c0.9-0.1,5.3-0.7,7-1.8c1.7-1,3.6-2.8,3.8-4.9
				c0.2-2.1-1.3-4-3.4-4c-3,0-6.1,4.4-6.9,7c0,0.1-0.3,1.6-0.5,2.7c0-0.6,0-1.3,0-1.9c0-2.3,0.1-4.3,0.3-6.2c0.1-1,0.2-2,0.3-2.9
				c0.9-0.6,4.3-3,5.4-4.8c1-1.7,1.9-4.2,1.1-6.1c-0.8-1.9-3-3-4.9-2c-2.7,1.4-3.4,6.7-2.9,9.4c0,0.2,1,3.7,1.1,3.7c0,0,0,0,0.1,0
				c-0.1,0.8-0.2,1.8-0.3,2.8c-0.2,1.8-0.4,3.9-0.4,6.2c-0.1,2.3-0.1,4.8,0.2,7.4c0.2,2.6,0.6,5.3,1.4,8.1c0,0,0,0.1,0,0.1
				c-0.5-0.7-1.9-2.8-2-2.9c-1.8-2-6.3-4.9-9.1-3.7c-2,0.8-2.6,3.2-1.6,5C75.8,351.2,78.2,352.1,80.2,352.4z"/>
			<path class="st3" d="M131.6,338.3c0,0,1-3.5,1-3.7c0.4-2.7-0.5-8-3.2-9.3c-1.9-0.9-4.1,0.2-4.8,2.1c-0.7,2,0.2,4.4,1.3,6.1
				C127.2,335.5,131.6,338.3,131.6,338.3z"/>
		</g>
	</g>
</g>
<g id="Portal_2">
	<polygon class="st4" points="473,357.3 510.1,334.9 510.1,156.2 473,133.8 	"/>
</g>
<g id="Portal_1">
	<polygon class="st4" points="272.2,357.3 235.1,334.9 235.1,156.2 272.2,133.8 	"/>
</g>
<g id="Text_1_">
	<g>
		<g>
			<path class="st4" d="M324.2,256.8V237h-24.1v-11.8l21-49.1h16V226h8.3v11h-8.3v19.8H324.2z M311.7,226h12.6v-35.1L311.7,226z"/>
			<path class="st4" d="M373.7,258c-4.7,0-8.6-1-11.7-3c-3.1-2-5.4-4.7-7-8.3c-1.6-3.5-2.3-7.6-2.3-12.2v-35.8
				c0-4.7,0.7-8.8,2.2-12.4c1.5-3.6,3.8-6.3,6.9-8.3c3.1-2,7.1-3,11.9-3c4.8,0,8.8,1,11.9,3c3.1,2,5.4,4.8,6.9,8.3
				c1.5,3.6,2.2,7.7,2.2,12.4v35.8c0,4.6-0.8,8.6-2.3,12.2c-1.6,3.5-3.9,6.3-7,8.3C382.4,257,378.5,258,373.7,258z M373.7,246.1
				c2.1,0,3.6-0.6,4.6-1.9c1-1.3,1.7-2.8,2-4.6c0.3-1.8,0.5-3.6,0.5-5.3V199c0-1.9-0.1-3.7-0.4-5.5c-0.3-1.8-0.9-3.4-1.9-4.6
				c-1-1.3-2.6-1.9-4.7-1.9c-2.1,0-3.7,0.6-4.7,1.9c-1,1.3-1.6,2.8-1.9,4.6c-0.3,1.8-0.4,3.7-0.4,5.5v35.4c0,1.7,0.2,3.5,0.5,5.3
				c0.4,1.8,1,3.3,2,4.6C370.3,245.5,371.8,246.1,373.7,246.1z"/>
			<path class="st4" d="M427.6,256.8V237h-24.1v-11.8l21-49.1h16V226h8.3v11h-8.3v19.8H427.6z M415.1,226h12.6v-35.1L415.1,226z"/>
		</g>
		<g>
			<path class="st5" d="M324.2,249.9V230h-24.1v-11.8l21-49.1h16v49.9h8.3v11h-8.3v19.8H324.2z M311.7,219.1h12.6V184L311.7,219.1z"
				/>
			<path class="st5" d="M373.7,251c-4.7,0-8.6-1-11.7-3s-5.4-4.7-7-8.3c-1.6-3.5-2.3-7.6-2.3-12.2v-35.8c0-4.7,0.7-8.8,2.2-12.4
				c1.5-3.6,3.8-6.3,6.9-8.3c3.1-2,7.1-3,11.9-3c4.8,0,8.8,1,11.9,3c3.1,2,5.4,4.8,6.9,8.3c1.5,3.6,2.2,7.7,2.2,12.4v35.8
				c0,4.6-0.8,8.6-2.3,12.2c-1.6,3.5-3.9,6.3-7,8.3S378.5,251,373.7,251z M373.7,239.2c2.1,0,3.6-0.6,4.6-1.9c1-1.3,1.7-2.8,2-4.6
				c0.3-1.8,0.5-3.6,0.5-5.3v-35.4c0-1.9-0.1-3.7-0.4-5.5c-0.3-1.8-0.9-3.4-1.9-4.6c-1-1.3-2.6-1.9-4.7-1.9c-2.1,0-3.7,0.6-4.7,1.9
				c-1,1.3-1.6,2.8-1.9,4.6c-0.3,1.8-0.4,3.7-0.4,5.5v35.4c0,1.7,0.2,3.5,0.5,5.3c0.4,1.8,1,3.3,2,4.6
				C370.3,238.6,371.8,239.2,373.7,239.2z"/>
			<path class="st5" d="M427.6,249.9V230h-24.1v-11.8l21-49.1h16v49.9h8.3v11h-8.3v19.8H427.6z M415.1,219.1h12.6V184L415.1,219.1z"
				/>
		</g>
		<g>
			<path class="st3" d="M331.3,306.9V277h10.8v2.2h-8v11.2h6.5v2.1h-6.5v12.3h8v2.1H331.3z"/>
			<path class="st3" d="M346,306.9V277h6.8c1.9,0,3.3,0.3,4.4,0.9c1.1,0.6,1.8,1.5,2.3,2.6c0.5,1.1,0.7,2.5,0.7,4.1
				c0,1.1-0.1,2.2-0.4,3.1c-0.2,1-0.7,1.8-1.3,2.5c-0.6,0.7-1.4,1.1-2.5,1.4l4.6,15.3h-2.7l-4.4-14.7h-4.7v14.7H346z M348.8,290.2
				h3.8c1.3,0,2.2-0.2,2.9-0.6c0.7-0.4,1.2-1,1.5-1.8c0.3-0.8,0.4-1.8,0.4-3.1c0-1.8-0.3-3.2-1-4.1c-0.6-0.9-1.9-1.4-3.8-1.4h-3.9
				V290.2z"/>
			<path class="st3" d="M364.9,306.9V277h6.8c1.9,0,3.3,0.3,4.4,0.9c1.1,0.6,1.8,1.5,2.3,2.6c0.5,1.1,0.7,2.5,0.7,4.1
				c0,1.1-0.1,2.2-0.4,3.1c-0.2,1-0.7,1.8-1.3,2.5c-0.6,0.7-1.4,1.1-2.5,1.4l4.6,15.3h-2.7l-4.4-14.7h-4.7v14.7H364.9z M367.7,290.2
				h3.8c1.3,0,2.2-0.2,2.9-0.6c0.7-0.4,1.2-1,1.5-1.8c0.3-0.8,0.4-1.8,0.4-3.1c0-1.8-0.3-3.2-1-4.1c-0.6-0.9-1.9-1.4-3.8-1.4h-3.9
				V290.2z"/>
			<path class="st3" d="M390.8,307.3c-2,0-3.5-0.4-4.6-1.2c-1.1-0.8-1.9-1.9-2.4-3.2c-0.5-1.4-0.7-3-0.7-4.8v-12.4
				c0-1.8,0.2-3.4,0.7-4.7c0.5-1.3,1.3-2.4,2.4-3.1c1.1-0.7,2.6-1.1,4.6-1.1c1.9,0,3.5,0.4,4.6,1.1c1.1,0.7,1.9,1.8,2.4,3.1
				c0.5,1.3,0.7,2.9,0.7,4.7v12.4c0,1.8-0.2,3.4-0.7,4.8c-0.5,1.4-1.2,2.5-2.3,3.2C394.3,306.9,392.8,307.3,390.8,307.3z M390.8,305
				c1.3,0,2.3-0.3,3-0.8c0.7-0.5,1.2-1.3,1.4-2.2c0.3-0.9,0.4-2,0.4-3.3v-13.5c0-1.3-0.1-2.3-0.4-3.3c-0.3-0.9-0.7-1.7-1.4-2.2
				c-0.7-0.5-1.7-0.8-3-0.8c-1.3,0-2.3,0.3-3,0.8c-0.7,0.5-1.2,1.2-1.4,2.2c-0.3,0.9-0.4,2-0.4,3.3v13.5c0,1.3,0.1,2.4,0.4,3.3
				c0.3,0.9,0.7,1.7,1.4,2.2C388.5,304.8,389.5,305,390.8,305z"/>
			<path class="st3" d="M403.1,306.9V277h6.8c1.9,0,3.3,0.3,4.4,0.9c1.1,0.6,1.8,1.5,2.3,2.6c0.5,1.1,0.7,2.5,0.7,4.1
				c0,1.1-0.1,2.2-0.4,3.1c-0.2,1-0.7,1.8-1.3,2.5c-0.6,0.7-1.4,1.1-2.5,1.4l4.6,15.3H415l-4.4-14.7h-4.7v14.7H403.1z M405.9,290.2
				h3.8c1.3,0,2.2-0.2,2.9-0.6c0.7-0.4,1.2-1,1.5-1.8c0.3-0.8,0.4-1.8,0.4-3.1c0-1.8-0.3-3.2-1-4.1c-0.6-0.9-1.9-1.4-3.8-1.4h-3.9
				V290.2z"/>
		</g>
	</g>
</g>
<g id="Graphics">
	<g>
		<line class="st6" x1="597.9" y1="156" x2="597.9" y2="179"/>
		<line class="st6" x1="609.4" y1="167.5" x2="586.4" y2="167.5"/>
	</g>
	<g>
		<line class="st6" x1="200.6" y1="354.6" x2="200.6" y2="377.6"/>
		<line class="st6" x1="212.1" y1="366.1" x2="189.1" y2="366.1"/>
	</g>
	<g>
		<line class="st6" x1="414.6" y1="355.5" x2="414.6" y2="378.5"/>
		<line class="st6" x1="426.1" y1="367" x2="403.1" y2="367"/>
	</g>
	<g>
		<line class="st6" x1="361.3" y1="109" x2="361.3" y2="132"/>
		<line class="st6" x1="372.8" y1="120.5" x2="349.8" y2="120.5"/>
	</g>
	<g>
		<line class="st6" x1="65.2" y1="109" x2="65.2" y2="132"/>
		<line class="st6" x1="76.7" y1="120.5" x2="53.7" y2="120.5"/>
	</g>
	<circle class="st6" cx="523.9" cy="90.7" r="6.3"/>
	<circle class="st6" cx="674.7" cy="122.3" r="6.3"/>
	<circle class="st6" cx="95.9" cy="240.6" r="6.3"/>
	<circle class="st6" cx="199.7" cy="104.3" r="6.3"/>
	<path class="st6" d="M166.3,367.9c0-3.5-2.8-6.3-6.3-6.3c-3.5,0-6.3,2.8-6.3,6.3c0,3.5,2.8,6.3,6.3,6.3
		C163.5,374.2,166.3,371.4,166.3,367.9z"/>
	<circle class="st6" cx="670.2" cy="251.4" r="6.3"/>
</g>
<g id="Robot_2">
	<g>
		<g>
			<g>
				<path class="st7" d="M480.1,298.9h-3.4c-0.6,0-1.2-0.5-1.2-1.2v-12.4c0-0.6,0.5-1.2,1.2-1.2h3.4c0.6,0,1.2,0.5,1.2,1.2v12.4
					C481.3,298.4,480.8,298.9,480.1,298.9z"/>
				<path class="st7" d="M478,299.6h-3.4c-0.6,0-1.2-0.5-1.2-1.2v-13.8c0-0.6,0.5-1.2,1.2-1.2h3.4c0.6,0,1.2,0.5,1.2,1.2v13.8
					C479.1,299.1,478.6,299.6,478,299.6z"/>
			</g>
			<g>
				<path class="st7" d="M488.6,298.9h-3.4c-0.6,0-1.2-0.5-1.2-1.2v-12.4c0-0.6,0.5-1.2,1.2-1.2h3.4c0.6,0,1.2,0.5,1.2,1.2v12.4
					C489.7,298.4,489.2,298.9,488.6,298.9z"/>
				<path class="st7" d="M486.4,299.6h-3.4c-0.6,0-1.2-0.5-1.2-1.2v-13.8c0-0.6,0.5-1.2,1.2-1.2h3.4c0.6,0,1.2,0.5,1.2,1.2v13.8
					C487.6,299.1,487.1,299.6,486.4,299.6z"/>
			</g>
			<g>
				<path class="st7" d="M497,298.9h-3.4c-0.6,0-1.2-0.5-1.2-1.2v-12.4c0-0.6,0.5-1.2,1.2-1.2h3.4c0.6,0,1.2,0.5,1.2,1.2v12.4
					C498.2,298.4,497.7,298.9,497,298.9z"/>
				<path class="st7" d="M494.9,299.6h-3.4c-0.6,0-1.2-0.5-1.2-1.2v-13.8c0-0.6,0.5-1.2,1.2-1.2h3.4c0.6,0,1.2,0.5,1.2,1.2v13.8
					C496.1,299.1,495.5,299.6,494.9,299.6z"/>
			</g>
			<g>
				<path class="st7" d="M505.5,298.9h-3.4c-0.6,0-1.2-0.5-1.2-1.2v-12.4c0-0.6,0.5-1.2,1.2-1.2h3.4c0.6,0,1.2,0.5,1.2,1.2v12.4
					C506.7,298.4,506.1,298.9,505.5,298.9z"/>
				<path class="st7" d="M503.4,299.6H500c-0.6,0-1.2-0.5-1.2-1.2v-13.8c0-0.6,0.5-1.2,1.2-1.2h3.4c0.6,0,1.2,0.5,1.2,1.2v13.8
					C504.5,299.1,504,299.6,503.4,299.6z"/>
			</g>
			<g>
				<path class="st7" d="M514,298.9h-3.4c-0.6,0-1.2-0.5-1.2-1.2v-12.4c0-0.6,0.5-1.2,1.2-1.2h3.4c0.6,0,1.2,0.5,1.2,1.2v12.4
					C515.1,298.4,514.6,298.9,514,298.9z"/>
				<path class="st7" d="M511.8,299.6h-3.4c-0.6,0-1.2-0.5-1.2-1.2v-13.8c0-0.6,0.5-1.2,1.2-1.2h3.4c0.6,0,1.2,0.5,1.2,1.2v13.8
					C513,299.1,512.5,299.6,511.8,299.6z"/>
			</g>
			<g>
				<path class="st7" d="M522.4,298.9h-3.4c-0.6,0-1.2-0.5-1.2-1.2v-12.4c0-0.6,0.5-1.2,1.2-1.2h3.4c0.6,0,1.2,0.5,1.2,1.2v12.4
					C523.6,298.4,523.1,298.9,522.4,298.9z"/>
				<path class="st7" d="M520.3,299.6h-3.4c-0.6,0-1.2-0.5-1.2-1.2v-13.8c0-0.6,0.5-1.2,1.2-1.2h3.4c0.6,0,1.2,0.5,1.2,1.2v13.8
					C521.5,299.1,520.9,299.6,520.3,299.6z"/>
			</g>
			<g>
				<path class="st7" d="M530.9,298.9h-3.4c-0.6,0-1.2-0.5-1.2-1.2v-12.4c0-0.6,0.5-1.2,1.2-1.2h3.4c0.6,0,1.2,0.5,1.2,1.2v12.4
					C532,298.4,531.5,298.9,530.9,298.9z"/>
				<path class="st7" d="M528.8,299.6h-3.4c-0.6,0-1.2-0.5-1.2-1.2v-13.8c0-0.6,0.5-1.2,1.2-1.2h3.4c0.6,0,1.2,0.5,1.2,1.2v13.8
					C529.9,299.1,529.4,299.6,528.8,299.6z"/>
			</g>
			<g>
				<path class="st7" d="M539.4,298.9H536c-0.6,0-1.2-0.5-1.2-1.2v-12.4c0-0.6,0.5-1.2,1.2-1.2h3.4c0.6,0,1.2,0.5,1.2,1.2v12.4
					C540.5,298.4,540,298.9,539.4,298.9z"/>
				<path class="st7" d="M537.2,299.6h-3.4c-0.6,0-1.2-0.5-1.2-1.2v-13.8c0-0.6,0.5-1.2,1.2-1.2h3.4c0.6,0,1.2,0.5,1.2,1.2v13.8
					C538.4,299.1,537.9,299.6,537.2,299.6z"/>
			</g>
			<g>
				<path class="st7" d="M547.8,298.9h-3.4c-0.6,0-1.2-0.5-1.2-1.2v-12.4c0-0.6,0.5-1.2,1.2-1.2h3.4c0.6,0,1.2,0.5,1.2,1.2v12.4
					C549,298.4,548.5,298.9,547.8,298.9z"/>
				<path class="st7" d="M545.7,299.6h-3.4c-0.6,0-1.2-0.5-1.2-1.2v-13.8c0-0.6,0.5-1.2,1.2-1.2h3.4c0.6,0,1.2,0.5,1.2,1.2v13.8
					C546.8,299.1,546.3,299.6,545.7,299.6z"/>
			</g>
		</g>
		<g>
			<path class="st4" d="M666.3,304.4l-3.9,15.9c-0.6,2.3,0.8,4.7,3.2,5.3l5.5,1.4l6-24.4l-5.5-1.4
				C669.3,300.6,666.9,302.1,666.3,304.4z"/>
			<g>
				<polygon class="st5" points="708.5,315.8 707.1,321.2 677.2,313.6 680.6,299.7 				"/>
				<polygon class="st5" points="705.3,328.7 706.6,323.3 676.5,316.2 673.1,330.1 				"/>
				
					<rect x="672.3" y="297.5" transform="matrix(0.9708 0.24 -0.24 0.9708 95.3507 -152.8601)" class="st2" width="5.8" height="35.1"/>
			</g>
		</g>
		<g>
			<g>
				<path class="st8" d="M481.4,240.2h-4c-0.8,0-1.4-0.6-1.4-1.3v-14.3c0-0.7,0.6-1.3,1.4-1.3h4c0.8,0,1.4,0.6,1.4,1.3v14.3
					C482.8,239.6,482.2,240.2,481.4,240.2z"/>
				<path class="st8" d="M478.9,241h-4c-0.8,0-1.4-0.6-1.4-1.3v-16c0-0.7,0.6-1.3,1.4-1.3h4c0.8,0,1.4,0.6,1.4,1.3v16
					C480.3,240.4,479.6,241,478.9,241z"/>
			</g>
			<g>
				<path class="st8" d="M491.5,240.2h-4c-0.8,0-1.4-0.6-1.4-1.3v-14.3c0-0.7,0.6-1.3,1.4-1.3h4c0.8,0,1.4,0.6,1.4,1.3v14.3
					C492.9,239.6,492.3,240.2,491.5,240.2z"/>
				<path class="st8" d="M489,241h-4c-0.8,0-1.4-0.6-1.4-1.3v-16c0-0.7,0.6-1.3,1.4-1.3h4c0.8,0,1.4,0.6,1.4,1.3v16
					C490.4,240.4,489.8,241,489,241z"/>
			</g>
			<g>
				<path class="st8" d="M501.7,240.2h-4c-0.8,0-1.4-0.6-1.4-1.3v-14.3c0-0.7,0.6-1.3,1.4-1.3h4c0.8,0,1.4,0.6,1.4,1.3v14.3
					C503,239.6,502.4,240.2,501.7,240.2z"/>
				<path class="st8" d="M499.1,241h-4c-0.8,0-1.4-0.6-1.4-1.3v-16c0-0.7,0.6-1.3,1.4-1.3h4c0.8,0,1.4,0.6,1.4,1.3v16
					C500.5,240.4,499.9,241,499.1,241z"/>
			</g>
			<g>
				<path class="st8" d="M511.8,240.2h-4c-0.8,0-1.4-0.6-1.4-1.3v-14.3c0-0.7,0.6-1.3,1.4-1.3h4c0.8,0,1.4,0.6,1.4,1.3v14.3
					C513.2,239.6,512.5,240.2,511.8,240.2z"/>
				<path class="st8" d="M509.2,241h-4c-0.8,0-1.4-0.6-1.4-1.3v-16c0-0.7,0.6-1.3,1.4-1.3h4c0.8,0,1.4,0.6,1.4,1.3v16
					C510.6,240.4,510,241,509.2,241z"/>
			</g>
			<g>
				<path class="st8" d="M521.9,240.2h-4c-0.8,0-1.4-0.6-1.4-1.3v-14.3c0-0.7,0.6-1.3,1.4-1.3h4c0.8,0,1.4,0.6,1.4,1.3v14.3
					C523.3,239.6,522.6,240.2,521.9,240.2z"/>
				<path class="st8" d="M519.3,241h-4c-0.8,0-1.4-0.6-1.4-1.3v-16c0-0.7,0.6-1.3,1.4-1.3h4c0.8,0,1.4,0.6,1.4,1.3v16
					C520.7,240.4,520.1,241,519.3,241z"/>
			</g>
			<g>
				<path class="st8" d="M532,240.2h-4c-0.8,0-1.4-0.6-1.4-1.3v-14.3c0-0.7,0.6-1.3,1.4-1.3h4c0.8,0,1.4,0.6,1.4,1.3v14.3
					C533.4,239.6,532.8,240.2,532,240.2z"/>
				<path class="st8" d="M529.5,241h-4c-0.8,0-1.4-0.6-1.4-1.3v-16c0-0.7,0.6-1.3,1.4-1.3h4c0.8,0,1.4,0.6,1.4,1.3v16
					C530.8,240.4,530.2,241,529.5,241z"/>
			</g>
			<g>
				<path class="st8" d="M542.1,240.2h-4c-0.8,0-1.4-0.6-1.4-1.3v-14.3c0-0.7,0.6-1.3,1.4-1.3h4c0.8,0,1.4,0.6,1.4,1.3v14.3
					C543.5,239.6,542.9,240.2,542.1,240.2z"/>
				<path class="st8" d="M539.6,241h-4c-0.8,0-1.4-0.6-1.4-1.3v-16c0-0.7,0.6-1.3,1.4-1.3h4c0.8,0,1.4,0.6,1.4,1.3v16
					C541,240.4,540.3,241,539.6,241z"/>
			</g>
			<g>
				<path class="st8" d="M552.2,240.2h-4c-0.8,0-1.4-0.6-1.4-1.3v-14.3c0-0.7,0.6-1.3,1.4-1.3h4c0.8,0,1.4,0.6,1.4,1.3v14.3
					C553.6,239.6,553,240.2,552.2,240.2z"/>
				<path class="st8" d="M549.7,241h-4c-0.8,0-1.4-0.6-1.4-1.3v-16c0-0.7,0.6-1.3,1.4-1.3h4c0.8,0,1.4,0.6,1.4,1.3v16
					C551.1,240.4,550.5,241,549.7,241z"/>
			</g>
			<g>
				<path class="st8" d="M559,240.3c-0.3-0.1-0.5-0.2-0.8-0.2c0,0-0.2,0-0.4-0.1c-0.2-0.1-0.3-0.2-0.4-0.3c-0.2-0.2-0.4-0.6-0.4-0.9
					v-14.3c0-0.4,0.2-0.7,0.4-0.9c0.1-0.1,0.3-0.2,0.4-0.3c0.2-0.1,0.3-0.1,0.7-0.1c2.4,0,4.8,0.5,7,1.5c1.3,0.5,1.9,1.6,1.5,2.3
					l-7.1,12.4C559.5,239.9,559.1,240.4,559,240.3z"/>
				<path class="st8" d="M558.4,241c0,0-0.1,0-0.1,0c-0.1,0,0,0-0.4,0h-2c-0.8,0-1.4-0.6-1.4-1.3v-16c0-0.7,0.6-1.3,1.4-1.3h2
					c0.2,0,1,0,1.6,0.1c0.6,0,1.2,0.1,1.9,0.2c1.4,0.2,2.4,1.2,2.1,1.8l-4.5,15.3C558.7,240.5,558.4,241,558.4,241z"/>
			</g>
			<g>
				<path class="st8" d="M560.3,241.9c-0.1-0.3-0.2-0.5-0.3-0.8c-0.1-0.1,0.3-0.6,0.8-1.1l10.6-9.7c0.5-0.5,1.7-0.1,2.5,1
					c1.4,2,2.4,4.2,3,6.5c0.3,1.3-0.2,2.5-0.9,2.6l-14.2,1.6C561,242.1,560.4,242,560.3,241.9z"/>
				<path class="st8" d="M559.4,241.8c-0.1-0.2-0.2-0.3-0.3-0.4c-0.1-0.1,0.2-0.6,0.6-1.2l9-13.2c0.4-0.6,1.7-0.5,2.8,0.5
					c1.9,1.7,3.4,3.7,4.6,5.9c0.7,1.3,0.5,2.6-0.2,2.8l-15,5.4C560,241.7,559.4,241.9,559.4,241.8z"/>
			</g>
			<g>
				<path class="st8" d="M560.4,250v-4c0-0.8,0.6-1.4,1.3-1.4H576c0.7,0,1.3,0.6,1.3,1.4v4c0,0.8-0.6,1.4-1.3,1.4h-14.3
					C561,251.4,560.4,250.8,560.4,250z"/>
				<path class="st8" d="M559.6,247.5v-4c0-0.4,0.1-0.7,0.4-1c0.2,0,0.6-0.1,0.9-0.1l16-0.6c0.4,0,0.7,0.2,1,0.7
					c0.2,0.3,0.4,0.6,0.4,1v4c0,0.8-0.6,1.4-1.3,1.4h-16C560.2,248.8,559.6,248.2,559.6,247.5z"/>
				<path class="st5" d="M584.8,248.7H554c-0.9,0-1.8,0.6-2.1,1.5l-1.4,4.3h37.7l-1.4-4.3C586.6,249.3,585.7,248.7,584.8,248.7z"/>
			</g>
			<g>
				<path class="st8" d="M560.4,260.1v-4c0-0.8,0.6-1.4,1.3-1.4H576c0.7,0,1.3,0.6,1.3,1.4v4c0,0.8-0.6,1.4-1.3,1.4h-14.3
					C561,261.5,560.4,260.9,560.4,260.1z"/>
			</g>
		</g>
		<path class="st2" d="M610.5,362.7h-73.7c-5.6,0-10.2-4.5-10.2-10.2l9.4-91.7c0-4.5,3.6-8.1,8.1-8.1h59c4.5,0,8.1,3.6,8.1,8.1
			l9.4,91.7C620.7,358.1,616.1,362.7,610.5,362.7z"/>
		<g>
			<polygon class="st4" points="519.9,348.8 587.7,320.5 608.4,400.4 530,400.4 			"/>
			
				<ellipse transform="matrix(0.9742 -0.2256 0.2256 0.9742 -65.065 146.51)" class="st5" cx="608.4" cy="357.9" rx="42.5" ry="42.5"/>
			
				<ellipse transform="matrix(0.9869 -0.1615 0.1615 0.9869 -53.3945 90.5133)" class="st5" cx="530" cy="373.6" rx="26.8" ry="26.8"/>
			
				<ellipse transform="matrix(0.9877 -0.1566 0.1566 0.9877 -51.9869 87.6313)" class="st2" cx="530" cy="373.6" rx="19.1" ry="19.1"/>
			<circle class="st2" cx="608.4" cy="357.9" r="31.7"/>
			<line class="st6" x1="608.4" y1="357.9" x2="637.8" y2="369.5"/>
			<circle class="st2" cx="608.4" cy="357.9" r="4.2"/>
			<line class="st2" x1="530" y1="373.6" x2="513" y2="382.4"/>
			<path class="st2" d="M534.2,373.6c0-2.3-1.9-4.2-4.2-4.2c-2.3,0-4.2,1.9-4.2,4.2c0,2.3,1.9,4.2,4.2,4.2
				C532.3,377.8,534.2,376,534.2,373.6z"/>
		</g>
		<g>
			<g>
				<path class="st7" d="M580.3,298.5l-3.3-0.8c-0.6-0.1-1-0.8-0.8-1.4l2.9-12.1c0.1-0.6,0.8-1,1.4-0.9l3.3,0.8
					c0.6,0.1,1,0.8,0.8,1.4l-2.9,12.1C581.6,298.3,581,298.6,580.3,298.5z"/>
				<path class="st7" d="M578.1,298.7l-3.3-0.8c-0.6-0.1-1-0.8-0.8-1.4l3.2-13.5c0.1-0.6,0.8-1,1.4-0.9l3.3,0.8
					c0.6,0.1,1,0.8,0.8,1.4l-3.2,13.5C579.4,298.5,578.7,298.9,578.1,298.7z"/>
			</g>
			<g>
				<path class="st7" d="M588.5,300.5l-3.3-0.8c-0.6-0.1-1-0.8-0.8-1.4l2.9-12.1c0.1-0.6,0.8-1,1.4-0.9l3.3,0.8
					c0.6,0.1,1,0.8,0.8,1.4l-2.9,12.1C589.7,300.2,589.1,300.6,588.5,300.5z"/>
				<path class="st7" d="M586.3,300.7l-3.3-0.8c-0.6-0.1-1-0.8-0.8-1.4l3.2-13.5c0.1-0.6,0.8-1,1.4-0.9l3.3,0.8
					c0.6,0.1,1,0.8,0.8,1.4l-3.2,13.5C587.5,300.4,586.9,300.8,586.3,300.7z"/>
			</g>
			<g>
				<path class="st7" d="M596.7,302.4l-3.3-0.8c-0.6-0.1-1-0.8-0.8-1.4l2.9-12.1c0.1-0.6,0.8-1,1.4-0.9l3.3,0.8
					c0.6,0.1,1,0.8,0.8,1.4l-2.9,12.1C597.9,302.2,597.3,302.6,596.7,302.4z"/>
				<path class="st7" d="M594.4,302.6l-3.3-0.8c-0.6-0.1-1-0.8-0.8-1.4l3.2-13.5c0.1-0.6,0.8-1,1.4-0.9l3.3,0.8
					c0.6,0.1,1,0.8,0.8,1.4l-3.2,13.5C595.7,302.4,595,302.8,594.4,302.6z"/>
			</g>
			<g>
				<path class="st7" d="M604.8,304.4l-3.3-0.8c-0.6-0.1-1-0.8-0.8-1.4l2.9-12.1c0.1-0.6,0.8-1,1.4-0.9l3.3,0.8
					c0.6,0.1,1,0.8,0.8,1.4l-2.9,12.1C606,304.1,605.4,304.5,604.8,304.4z"/>
				<path class="st7" d="M602.6,304.6l-3.3-0.8c-0.6-0.1-1-0.8-0.8-1.4l3.2-13.5c0.1-0.6,0.8-1,1.4-0.9l3.3,0.8
					c0.6,0.1,1,0.8,0.8,1.4l-3.2,13.5C603.8,304.4,603.2,304.7,602.6,304.6z"/>
			</g>
			<g>
				<path class="st7" d="M613,306.3l-3.3-0.8c-0.6-0.1-1-0.8-0.8-1.4l2.9-12.1c0.1-0.6,0.8-1,1.4-0.9l3.3,0.8c0.6,0.1,1,0.8,0.8,1.4
					l-2.9,12.1C614.2,306.1,613.6,306.5,613,306.3z"/>
				<path class="st7" d="M610.7,306.6l-3.3-0.8c-0.6-0.1-1-0.8-0.8-1.4l3.2-13.5c0.1-0.6,0.8-1,1.4-0.9l3.3,0.8
					c0.6,0.1,1,0.8,0.8,1.4l-3.2,13.5C612,306.3,611.4,306.7,610.7,306.6z"/>
			</g>
			<g>
				<path class="st7" d="M621.1,308.3l-3.3-0.8c-0.6-0.1-1-0.8-0.8-1.4l2.9-12.1c0.1-0.6,0.8-1,1.4-0.9l3.3,0.8
					c0.6,0.1,1,0.8,0.8,1.4l-2.9,12.1C622.4,308.1,621.7,308.5,621.1,308.3z"/>
				<path class="st7" d="M618.9,308.5l-3.3-0.8c-0.6-0.1-1-0.8-0.8-1.4l3.2-13.5c0.1-0.6,0.8-1,1.4-0.9l3.3,0.8
					c0.6,0.1,1,0.8,0.8,1.4l-3.2,13.5C620.1,308.3,619.5,308.7,618.9,308.5z"/>
			</g>
			<g>
				<path class="st7" d="M629.3,310.3l-3.3-0.8c-0.6-0.1-1-0.8-0.8-1.4l2.9-12.1c0.1-0.6,0.8-1,1.4-0.9l3.3,0.8
					c0.6,0.1,1,0.8,0.8,1.4l-2.9,12.1C630.5,310,629.9,310.4,629.3,310.3z"/>
				<path class="st7" d="M627.1,310.5l-3.3-0.8c-0.6-0.1-1-0.8-0.8-1.4l3.2-13.5c0.1-0.6,0.8-1,1.4-0.9l3.3,0.8
					c0.6,0.1,1,0.8,0.8,1.4l-3.2,13.5C628.3,310.2,627.7,310.6,627.1,310.5z"/>
			</g>
			<g>
				<path class="st7" d="M637.4,312.2l-3.3-0.8c-0.6-0.1-1-0.8-0.8-1.4l2.9-12.1c0.1-0.6,0.8-1,1.4-0.9l3.3,0.8
					c0.6,0.1,1,0.8,0.8,1.4l-2.9,12.1C638.7,312,638,312.4,637.4,312.2z"/>
				<path class="st7" d="M635.2,312.4l-3.3-0.8c-0.6-0.1-1-0.8-0.8-1.4l3.2-13.5c0.1-0.6,0.8-1,1.4-0.9l3.3,0.8
					c0.6,0.1,1,0.8,0.8,1.4l-3.2,13.5C636.4,312.2,635.8,312.6,635.2,312.4z"/>
			</g>
			<g>
				<path class="st7" d="M645.6,314.2l-3.3-0.8c-0.6-0.1-1-0.8-0.8-1.4l2.9-12.1c0.1-0.6,0.8-1,1.4-0.9l3.3,0.8
					c0.6,0.1,1,0.8,0.8,1.4l-2.9,12.1C646.8,314,646.2,314.3,645.6,314.2z"/>
				<path class="st7" d="M643.4,314.4l-3.3-0.8c-0.6-0.1-1-0.8-0.8-1.4l3.2-13.5c0.1-0.6,0.8-1,1.4-0.9l3.3,0.8
					c0.6,0.1,1,0.8,0.8,1.4l-3.2,13.5C644.6,314.2,644,314.6,643.4,314.4z"/>
			</g>
			<g>
				<path class="st7" d="M653.7,316.2l-3.3-0.8c-0.6-0.1-1-0.8-0.8-1.4l2.9-12.1c0.1-0.6,0.8-1,1.4-0.9l3.3,0.8
					c0.6,0.1,1,0.8,0.8,1.4l-2.9,12.1C655,315.9,654.4,316.3,653.7,316.2z"/>
				<path class="st7" d="M651.5,316.4l-3.3-0.8c-0.6-0.1-1-0.8-0.8-1.4l3.2-13.5c0.1-0.6,0.8-1,1.4-0.9l3.3,0.8
					c0.6,0.1,1,0.8,0.8,1.4l-3.2,13.5C652.8,316.1,652.1,316.5,651.5,316.4z"/>
			</g>
			<g>
				<path class="st7" d="M661.9,318.1l-3.3-0.8c-0.6-0.1-1-0.8-0.8-1.4l2.9-12.1c0.1-0.6,0.8-1,1.4-0.9l3.3,0.8
					c0.6,0.1,1,0.8,0.8,1.4l-2.9,12.1C663.1,317.9,662.5,318.3,661.9,318.1z"/>
				<path class="st7" d="M659.7,318.3l-3.3-0.8c-0.6-0.1-1-0.8-0.8-1.4l3.2-13.5c0.1-0.6,0.8-1,1.4-0.9l3.3,0.8
					c0.6,0.1,1,0.8,0.8,1.4l-3.2,13.5C660.9,318.1,660.3,318.5,659.7,318.3z"/>
			</g>
		</g>
		<g>
			
				<ellipse transform="matrix(0.9727 -0.2319 0.2319 0.9727 -51.4983 141.2992)" class="st5" cx="575.3" cy="289.7" rx="21.4" ry="21.4"/>
			<line class="st2" x1="554.3" y1="285.1" x2="575.3" y2="289.7"/>
			<circle class="st2" cx="575.3" cy="289.7" r="10.5"/>
		</g>
		<path class="st5" d="M529.5,324.9h10.9c1.9,0,3.5-1.6,3.5-3.5v-48.3c0-1.9-1.6-3.5-3.5-3.5h-5.2L529.5,324.9z"/>
	</g>
</g>
<g id="Robot_1">
	<g>
		<g>
			<g>
				<path class="st8" d="M232.7,240.2h-4c-0.8,0-1.4-0.6-1.4-1.3v-14.3c0-0.7,0.6-1.3,1.4-1.3h4c0.8,0,1.4,0.6,1.4,1.3v14.3
					C234,239.6,233.4,240.2,232.7,240.2z"/>
				<path class="st8" d="M230.1,241h-4c-0.8,0-1.4-0.6-1.4-1.3v-16c0-0.7,0.6-1.3,1.4-1.3h4c0.8,0,1.4,0.6,1.4,1.3v16
					C231.5,240.4,230.9,241,230.1,241z"/>
			</g>
			<g>
				<path class="st8" d="M242.8,240.2h-4c-0.8,0-1.4-0.6-1.4-1.3v-14.3c0-0.7,0.6-1.3,1.4-1.3h4c0.8,0,1.4,0.6,1.4,1.3v14.3
					C244.2,239.6,243.5,240.2,242.8,240.2z"/>
				<path class="st8" d="M240.2,241h-4c-0.8,0-1.4-0.6-1.4-1.3v-16c0-0.7,0.6-1.3,1.4-1.3h4c0.8,0,1.4,0.6,1.4,1.3v16
					C241.6,240.4,241,241,240.2,241z"/>
			</g>
			<g>
				<path class="st8" d="M252.9,240.2h-4c-0.8,0-1.4-0.6-1.4-1.3v-14.3c0-0.7,0.6-1.3,1.4-1.3h4c0.8,0,1.4,0.6,1.4,1.3v14.3
					C254.3,239.6,253.7,240.2,252.9,240.2z"/>
				<path class="st8" d="M250.4,241h-4c-0.8,0-1.4-0.6-1.4-1.3v-16c0-0.7,0.6-1.3,1.4-1.3h4c0.8,0,1.4,0.6,1.4,1.3v16
					C251.7,240.4,251.1,241,250.4,241z"/>
			</g>
			<g>
				<path class="st8" d="M263,240.2h-4c-0.8,0-1.4-0.6-1.4-1.3v-14.3c0-0.7,0.6-1.3,1.4-1.3h4c0.8,0,1.4,0.6,1.4,1.3v14.3
					C264.4,239.6,263.8,240.2,263,240.2z"/>
				<path class="st8" d="M260.5,241h-4c-0.8,0-1.4-0.6-1.4-1.3v-16c0-0.7,0.6-1.3,1.4-1.3h4c0.8,0,1.4,0.6,1.4,1.3v16
					C261.9,240.4,261.2,241,260.5,241z"/>
			</g>
			<g>
				<path class="st8" d="M272.5,223.2h-3.4c-0.8,0-1.4,0.6-1.4,1.3v14.3c0,0.7,0.6,1.3,1.4,1.3h3.4V223.2z"/>
				<path class="st8" d="M270.6,241h-4c-0.8,0-1.4-0.6-1.4-1.3v-16c0-0.7,0.6-1.3,1.4-1.3h4c0.8,0,1.4,0.6,1.4,1.3v16
					C272,240.4,271.4,241,270.6,241z"/>
			</g>
		</g>
		<g>
			<g>
				<polygon class="st2" points="205.9,184.6 217.8,169.8 215.2,188.8 				"/>
				<path class="st2" d="M218.1,193.8c-1.3,2.8-6.4,3.3-11.6,1c-5.1-2.3-8.3-6.4-7-9.3c1.3-2.8,6.4-3.3,11.6-1
					C216.2,186.8,219.4,191,218.1,193.8z"/>
				<path class="st2" d="M148.7,231l-4.5-2c-4.7-2.1-6.8-7.6-4.7-12.2l7.2-16.2c2.1-4.7,7.6-6.8,12.2-4.7l4.5,2L148.7,231z"/>
				<path class="st2" d="M218.3,262l4.5,2c4.7,2.1,10.2,0,12.2-4.7l7.2-16.2c2.1-4.7,0-10.2-4.7-12.2l-4.5-2L218.3,262z"/>
				
					<ellipse transform="matrix(0.9337 -0.3581 0.3581 0.9337 -69.8843 83.6093)" class="st5" cx="190.8" cy="230.5" rx="45.3" ry="45.3"/>
				<g>
					
						<ellipse transform="matrix(0.407 -0.9134 0.9134 0.407 -92.5067 341.9213)" class="st2" cx="217.1" cy="242.2" rx="35" ry="16.6"/>
					
						<ellipse transform="matrix(0.407 -0.9134 0.9134 0.407 -102.446 278.9797)" class="st2" cx="163.6" cy="218.4" rx="34.2" ry="15.6"/>
				</g>
				<path class="st4" d="M204.6,255.1L160,235.2c-3.9-1.7-5.6-6.2-3.9-10.1l8.4-18.8c1.7-3.9,6.2-5.6,10.1-3.9l44.7,19.9
					c3.9,1.7,5.6,6.2,3.9,10.1l-8.4,18.8C213,255.1,208.5,256.9,204.6,255.1z"/>
				<path class="st2" d="M178.8,224.2c1.1-2.4,0-5.2-2.4-6.2s-5.2,0-6.2,2.4c-1.1,2.4,0,5.2,2.4,6.2
					C174.9,227.6,177.7,226.5,178.8,224.2z"/>
				<path class="st2" d="M209.3,237.7c1.1-2.4,0-5.2-2.4-6.2c-2.4-1.1-5.2,0-6.2,2.4c-1.1,2.4,0,5.2,2.4,6.2
					C205.4,241.2,208.2,240.1,209.3,237.7z"/>
				<path class="st5" d="M223.8,168.5c1.1-2.4,0-5.2-2.4-6.2c-2.4-1.1-5.2,0-6.2,2.4c-1.1,2.4,0,5.2,2.4,6.2
					C220,171.9,222.8,170.8,223.8,168.5z"/>
			</g>
		</g>
		<g>
			<g>
				<g>
					<path class="st7" d="M145.5,154l2.4,2.5c0.4,0.5,0.4,1.2,0,1.6l-8.9,8.6c-0.5,0.4-1.2,0.4-1.6,0l-2.4-2.5
						c-0.4-0.5-0.4-1.2,0-1.6l8.9-8.6C144.3,153.5,145.1,153.5,145.5,154z"/>
					<path class="st7" d="M147.5,155l2.4,2.5c0.4,0.5,0.4,1.2,0,1.6l-10,9.6c-0.5,0.4-1.2,0.4-1.6,0l-2.4-2.5
						c-0.4-0.5-0.4-1.2,0-1.6l10-9.6C146.3,154.6,147.1,154.6,147.5,155z"/>
				</g>
				<g>
					<path class="st7" d="M139.6,147.8l2.4,2.5c0.4,0.5,0.4,1.2,0,1.6l-8.9,8.6c-0.5,0.4-1.2,0.4-1.6,0L129,158
						c-0.4-0.5-0.4-1.2,0-1.6l8.9-8.6C138.4,147.4,139.1,147.4,139.6,147.8z"/>
					<path class="st7" d="M141.6,148.9l2.4,2.5c0.4,0.5,0.4,1.2,0,1.6l-10,9.6c-0.5,0.4-1.2,0.4-1.6,0l-2.4-2.5
						c-0.4-0.5-0.4-1.2,0-1.6l10-9.6C140.4,148.4,141.2,148.4,141.6,148.9z"/>
				</g>
				<g>
					<path class="st7" d="M131.8,140.8c1.5,0.9,2.9,2,4.1,3.2c0.2,0.2,0.4,0.4,0.4,0.5c0.1,0.1,0.1,0.3,0.1,0.4
						c0,0.3-0.1,0.6-0.4,0.8l-8.9,8.6c-0.2,0.2-0.5,0.3-0.8,0.3c-0.1,0-0.3,0-0.4-0.1c-0.2-0.1-0.2-0.1-0.3-0.1
						c-0.4-0.4-0.8-0.7-1.3-1c-0.1-0.1-0.2-0.3-0.2-0.5c0-0.2,0.1-0.5,0.2-0.8l5.5-11.1c0.1-0.3,0.4-0.5,0.8-0.5
						C130.9,140.5,131.4,140.6,131.8,140.8z"/>
					<path class="st7" d="M135,142.2c0.7,0.6,1.4,1.2,1.9,1.8l1.2,1.2c0.4,0.5,0.4,1.2,0,1.6l-10,9.6c-0.5,0.4-1.2,0.4-1.6,0
						l-1.2-1.2c-0.3-0.2-0.4-0.4-0.6-0.5c-0.2-0.1-0.1-0.7,0.3-1.2l7.9-11.3C133.2,141.5,134.1,141.5,135,142.2z"/>
				</g>
				<g>
					<path class="st7" d="M119.4,137.8c0.9-0.1,1.7,0,2.6,0c0.9,0.1,1.7,0.2,2.6,0.3c1,0.2,1.6,0.9,1.4,1.5l-3.1,12
						c-0.2,0.6-0.5,1.1-0.8,1c-0.3,0-0.5-0.1-0.8-0.1c-0.3,0-0.5,0-0.8,0c-0.3,0-0.6-0.5-0.7-1.1l-1.8-12.3
						C117.7,138.5,118.4,137.9,119.4,137.8z"/>
					<path class="st7" d="M122.7,137.2c0.9,0.1,1.8,0.2,2.6,0.4l1.3,0.3c0.4,0.1,0.9,0.3,1.3,0.4c1,0.3,1.5,1.1,1.3,1.7l-5.5,12.7
						c-0.3,0.6-0.7,0.9-0.9,0.9l-0.3-0.1c-0.1,0-0.2,0-0.4-0.1c-0.2-0.1-0.5-0.1-0.7-0.1c-0.3,0-0.5-0.5-0.5-1.2l0-13.8
						C120.8,137.6,121.7,137.1,122.7,137.2z"/>
				</g>
				<g>
					<path class="st7" d="M107.4,142.5c0.7-0.5,1.4-1,2.1-1.5c0.8-0.4,1.5-0.9,2.3-1.2c0.9-0.4,1.8-0.2,2,0.4l4.2,11.7
						c0.2,0.6,0.2,1.2-0.1,1.3c-0.3,0.1-0.5,0.3-0.7,0.4l-0.7,0.5c-0.2,0.2-0.8,0-1.2-0.5l-8.5-9C106.4,144,106.7,143.1,107.4,142.5
						z"/>
					<path class="st7" d="M109.8,140c0.8-0.4,1.6-0.9,2.4-1.2c0.8-0.4,1.7-0.6,2.5-0.9c1-0.3,1.9,0.1,2,0.7l2.7,13.6
						c0.1,0.6,0,1.1-0.3,1.2c-0.2,0.1-0.5,0.1-0.7,0.2c-0.2,0.1-0.4,0.2-0.6,0.3c-0.2,0.1-0.7-0.2-1.1-0.7l-7.9-11.4
						C108.5,141.4,108.9,140.5,109.8,140z"/>
				</g>
				<g>
					<path class="st7" d="M100.7,149.9l2.2-2.6c0.4-0.5,1.1-0.6,1.6-0.2l9.6,7.9c0.5,0.4,0.6,1.1,0.1,1.6l-2.2,2.6
						c-0.4,0.5-1.1,0.6-1.6,0.2l-9.6-7.9C100.3,151.1,100.3,150.4,100.7,149.9z"/>
					<path class="st7" d="M101.5,147.8l2.2-2.6c0.6-0.7,1.6-1,2-0.5l10,9.6c0.4,0.5,0.7,1,0.5,1.2l-2.2,2.6
						c-0.4,0.5-1.1,0.6-1.6,0.2l-10.7-8.8C101.1,149,101.1,148.3,101.5,147.8z"/>
				</g>
				<g>
					<path class="st7" d="M95.2,156.5l2.2-2.6c0.4-0.5,1.1-0.6,1.6-0.2l9.6,7.9c0.5,0.4,0.6,1.1,0.1,1.6l-2.2,2.6
						c-0.4,0.5-1.1,0.6-1.6,0.2l-9.6-7.9C94.9,157.7,94.8,157,95.2,156.5z"/>
					<path class="st7" d="M96,154.4l2.2-2.6c0.4-0.5,1.1-0.6,1.6-0.2l10.7,8.8c0.5,0.4,0.6,1.1,0.1,1.6l-2.2,2.6
						c-0.4,0.5-1.1,0.6-1.6,0.2L96.2,156C95.7,155.6,95.6,154.9,96,154.4z"/>
				</g>
				<g>
					<path class="st7" d="M89.8,163.1l2.2-2.6c0.4-0.5,1.1-0.6,1.6-0.2l9.6,7.9c0.5,0.4,0.6,1.1,0.1,1.6l-2.2,2.6
						c-0.4,0.5-1.1,0.6-1.6,0.2l-9.6-7.9C89.4,164.3,89.4,163.6,89.8,163.1z"/>
					<path class="st7" d="M90.6,161l2.2-2.6c0.4-0.5,1.1-0.6,1.6-0.2l10.7,8.8c0.5,0.4,0.6,1.1,0.1,1.6l-2.2,2.6
						c-0.4,0.5-1.1,0.6-1.6,0.2l-10.7-8.8C90.3,162.2,90.2,161.5,90.6,161z"/>
				</g>
				<g>
					<path class="st7" d="M84.3,169.7l2.2-2.6c0.4-0.5,1.1-0.6,1.6-0.2l9.6,7.9c0.5,0.4,0.6,1.1,0.1,1.6l-2.2,2.6
						c-0.4,0.5-1.1,0.6-1.6,0.2l-9.6-7.9C84,170.9,83.9,170.2,84.3,169.7z"/>
					<path class="st7" d="M85.2,167.6l2.2-2.6c0.4-0.5,1.1-0.6,1.6-0.2l10.7,8.8c0.5,0.4,0.6,1.1,0.1,1.6l-2.2,2.6
						c-0.4,0.5-1.1,0.6-1.6,0.2l-10.7-8.8C84.8,168.8,84.7,168.1,85.2,167.6z"/>
				</g>
				<g>
					<path class="st7" d="M78.9,176.3l2.2-2.6c0.4-0.5,1.1-0.6,1.6-0.2l9.6,7.9c0.5,0.4,0.6,1.1,0.1,1.6l-2.2,2.6
						c-0.4,0.5-1.1,0.6-1.6,0.2l-9.6-7.9C78.6,177.5,78.5,176.8,78.9,176.3z"/>
					<path class="st7" d="M79.7,174.2l2.2-2.6c0.4-0.5,1.1-0.6,1.6-0.2l10.7,8.8c0.5,0.4,0.6,1.1,0.1,1.6l-2.2,2.6
						c-0.4,0.5-1.1,0.6-1.6,0.2l-10.7-8.8C79.4,175.4,79.3,174.7,79.7,174.2z"/>
				</g>
				<g>
					<path class="st7" d="M73.5,182.9l2.2-2.6c0.4-0.5,1.1-0.6,1.6-0.2l9.6,7.9c0.5,0.4,0.6,1.1,0.1,1.6l-2.2,2.6
						c-0.4,0.5-1.1,0.6-1.6,0.2l-9.6-7.9C73.1,184.1,73.1,183.4,73.5,182.9z"/>
					<path class="st7" d="M74.3,180.7l2.2-2.6c0.4-0.5,1.1-0.6,1.6-0.2l10.7,8.8c0.5,0.4,0.6,1.1,0.1,1.6l-2.2,2.6
						c-0.4,0.5-1.1,0.6-1.6,0.2l-10.7-8.8C73.9,182,73.9,181.2,74.3,180.7z"/>
				</g>
				<g>
					<path class="st7" d="M68,189.5l2.2-2.6c0.4-0.5,1.1-0.6,1.6-0.2l9.6,7.9c0.5,0.4,0.6,1.1,0.1,1.6l-2.2,2.6
						c-0.4,0.5-1.1,0.6-1.6,0.2l-9.6-7.9C67.7,190.7,67.6,190,68,189.5z"/>
					<path class="st7" d="M68.8,187.3l2.2-2.6c0.4-0.5,1.1-0.6,1.6-0.2l10.7,8.8c0.5,0.4,0.6,1.1,0.1,1.6l-2.2,2.6
						c-0.4,0.5-1.1,0.6-1.6,0.2L69,189C68.5,188.6,68.4,187.8,68.8,187.3z"/>
				</g>
				<g>
					<path class="st7" d="M63.6,201.7v-5.3c0-0.6,0.1-1.1,0.3-1.4c0.5-0.2,0.9-0.3,1.2-0.2l12.1,4.9c0.3,0.1,0.6,0.3,0.8,0.4
						c0.2,0.1,0.3,0.2,0.3,0.2v1.5c0,0.6-0.5,1.2-1.2,1.2H64.7C64.1,202.9,63.6,202.3,63.6,201.7z"/>
					<path class="st7" d="M62.9,198.6v-4.1l1.7-2c0.8-1,1.9-1.5,2.4-1.1l11.2,8.2c0.5,0.4,0.9,0.7,0.9,0.7l0,0v0.1c0,0-0.1,0-0.3,0
						c-0.1,0-0.1,0-0.2,0c-0.1,0-0.1,0.1-0.2,0.1c-0.1,0.1-0.3,0.1-0.5,0.1H64c-0.2,0-0.3,0-0.5-0.1c-0.1,0-0.1-0.1-0.2-0.1
						c-0.1-0.1-0.1-0.2-0.2-0.3C63,199.8,62.9,199.3,62.9,198.6z"/>
				</g>
				<g>
					<path class="st7" d="M63.6,210.2v-3.4c0-0.6,0.5-1.2,1.2-1.2h12.4c0.6,0,1.2,0.5,1.2,1.2v3.4c0,0.6-0.5,1.2-1.2,1.2H64.7
						C64.1,211.4,63.6,210.9,63.6,210.2z"/>
					<path class="st7" d="M62.9,208.1v-3.4c0-0.6,0.5-1.2,1.2-1.2h13.8c0.6,0,1.2,0.5,1.2,1.2v3.4c0,0.6-0.5,1.2-1.2,1.2H64
						C63.4,209.3,62.9,208.7,62.9,208.1z"/>
				</g>
				<g>
					<path class="st7" d="M63.6,218.8v-3.4c0-0.6,0.5-1.2,1.2-1.2h12.4c0.6,0,1.2,0.5,1.2,1.2v3.4c0,0.6-0.5,1.2-1.2,1.2H64.7
						C64.1,220,63.6,219.4,63.6,218.8z"/>
					<path class="st7" d="M62.9,216.6v-3.4c0-0.6,0.5-1.2,1.2-1.2h13.8c0.6,0,1.2,0.5,1.2,1.2v3.4c0,0.6-0.5,1.2-1.2,1.2H64
						C63.4,217.8,62.9,217.3,62.9,216.6z"/>
				</g>
				<g>
					<path class="st7" d="M63.6,227.3v-3.4c0-0.6,0.5-1.2,1.2-1.2h12.4c0.6,0,1.2,0.5,1.2,1.2v3.4c0,0.6-0.5,1.2-1.2,1.2H64.7
						C64.1,228.5,63.6,228,63.6,227.3z"/>
					<path class="st7" d="M62.9,225.2v-3.4c0-0.6,0.5-1.2,1.2-1.2h13.8c0.6,0,1.2,0.5,1.2,1.2v3.4c0,0.6-0.5,1.2-1.2,1.2H64
						C63.4,226.4,62.9,225.8,62.9,225.2z"/>
				</g>
				<g>
					<path class="st7" d="M63.6,235.9v-3.4c0-0.6,0.5-1.2,1.2-1.2h12.4c0.6,0,1.2,0.5,1.2,1.2v3.4c0,0.6-0.5,1.2-1.2,1.2H64.7
						C64.1,237,63.6,236.5,63.6,235.9z"/>
					<path class="st7" d="M62.9,233.7v-3.4c0-0.6,0.5-1.2,1.2-1.2h13.8c0.6,0,1.2,0.5,1.2,1.2v3.4c0,0.6-0.5,1.2-1.2,1.2H64
						C63.4,234.9,62.9,234.4,62.9,233.7z"/>
				</g>
				<g>
					<path class="st7" d="M63.6,244.4V241c0-0.6,0.5-1.2,1.2-1.2h12.4c0.6,0,1.2,0.5,1.2,1.2v3.4c0,0.6-0.5,1.2-1.2,1.2H64.7
						C64.1,245.6,63.6,245.1,63.6,244.4z"/>
					<path class="st7" d="M62.9,242.3v-3.4c0-0.6,0.5-1.2,1.2-1.2h13.8c0.6,0,1.2,0.5,1.2,1.2v3.4c0,0.6-0.5,1.2-1.2,1.2H64
						C63.4,243.4,62.9,242.9,62.9,242.3z"/>
				</g>
				<g>
					<path class="st7" d="M63.6,253v-3.4c0-0.6,0.5-1.2,1.2-1.2h12.4c0.6,0,1.2,0.5,1.2,1.2v3.4c0,0.6-0.5,1.2-1.2,1.2H64.7
						C64.1,254.1,63.6,253.6,63.6,253z"/>
					<path class="st7" d="M62.9,250.8v-3.4c0-0.6,0.5-1.2,1.2-1.2h13.8c0.6,0,1.2,0.5,1.2,1.2v3.4c0,0.6-0.5,1.2-1.2,1.2H64
						C63.4,252,62.9,251.5,62.9,250.8z"/>
				</g>
				<g>
					<path class="st7" d="M63.6,261.5v-3.4c0-0.6,0.5-1.2,1.2-1.2h12.4c0.6,0,1.2,0.5,1.2,1.2v3.4c0,0.6-0.5,1.2-1.2,1.2H64.7
						C64.1,262.7,63.6,262.2,63.6,261.5z"/>
					<path class="st7" d="M62.9,259.4V256c0-0.6,0.5-1.2,1.2-1.2h13.8c0.6,0,1.2,0.5,1.2,1.2v3.4c0,0.6-0.5,1.2-1.2,1.2H64
						C63.4,260.5,62.9,260,62.9,259.4z"/>
				</g>
				<g>
					<path class="st7" d="M63.6,270.1v-3.4c0-0.6,0.5-1.2,1.2-1.2h12.4c0.6,0,1.2,0.5,1.2,1.2v3.4c0,0.6-0.5,1.2-1.2,1.2H64.7
						C64.1,271.2,63.6,270.7,63.6,270.1z"/>
					<path class="st7" d="M62.9,267.9v-3.4c0-0.6,0.5-1.2,1.2-1.2h13.8c0.6,0,1.2,0.5,1.2,1.2v3.4c0,0.6-0.5,1.2-1.2,1.2H64
						C63.4,269.1,62.9,268.6,62.9,267.9z"/>
				</g>
				<g>
					<path class="st7" d="M63.9,279.7c-0.3-1.6-0.3-3.6-0.3-4.5c0-0.6,0.5-1.2,1.2-1.2h12.4c0.6,0,1.2,0.5,1.2,1.2
						c0,0.5,0,1.3,0,1.4c0,0.3,0,0.6,0.1,0.9c0,0.2-0.1,0.3-0.3,0.5c-0.2,0.1-0.4,0.3-0.7,0.4l-12.1,2.8c-0.3,0.1-0.6,0-0.9-0.3
						C64.1,280.6,63.9,280.2,63.9,279.7z"/>
					<path class="st7" d="M62.9,276.5l0-3.5c0-0.6,0.5-1.2,1.2-1.2h13.8c0.6,0,1.2,0.5,1.2,1.2l0,3.3c0,0.3-0.5,0.6-1.1,0.6
						l-13.8,1.1C63.5,278.3,62.9,277.5,62.9,276.5z"/>
				</g>
				<g>
					<path class="st7" d="M69.1,291.1c-0.6-0.6-1-1.3-1.5-2c-0.5-0.7-0.9-1.4-1.3-2.2c-0.4-0.9-0.3-1.8,0.3-2l11.4-4.9
						c0.6-0.2,1.2-0.2,1.3,0.1c0.1,0.3,0.3,0.5,0.5,0.8c0.2,0.2,0.3,0.5,0.5,0.7c0.2,0.2,0,0.8-0.4,1.3l-8.8,8.8
						C70.6,292,69.7,291.8,69.1,291.1z"/>
					<path class="st7" d="M66.6,288.9c-0.5-0.7-0.9-1.5-1.3-2.3l-0.6-1.2l-0.5-1.2c-0.4-0.9,0-1.9,0.6-2l13.4-3.7
						c0.6-0.2,1.2-0.1,1.3,0.2l0.1,0.4c0.1,0.1,0.1,0.2,0.2,0.4c0.1,0.3,0.3,0.5,0.4,0.7c0.1,0.3-0.1,0.7-0.6,1.1l-11.1,8.3
						C68,290.1,67.1,289.8,66.6,288.9z"/>
				</g>
				<g>
					<path class="st7" d="M79.5,297.9c-0.8-0.3-1.6-0.6-2.4-0.9c-0.8-0.4-1.5-0.7-2.3-1.1c-0.8-0.5-1.2-1.3-0.8-1.9l7-10.2
						c0.4-0.5,0.9-0.8,1.2-0.6c0.2,0.2,0.5,0.2,0.8,0.4c0.3,0.1,0.5,0.2,0.8,0.3c0.3,0.1,0.5,0.6,0.3,1.3l-2.7,12.1
						C81.3,297.9,80.5,298.2,79.5,297.9z"/>
					<path class="st7" d="M76.2,297.4l-1.2-0.6l-1.1-0.7c-0.8-0.4-1.4-1-2.1-1.5c-0.8-0.6-1-1.6-0.6-2l9.3-10.2
						c0.4-0.5,0.9-0.7,1.2-0.5c0.2,0.2,0.4,0.3,0.7,0.5l0.3,0.2c0.1,0.1,0.2,0.1,0.4,0.2c0.3,0.2,0.3,0.7,0.1,1.3L78.3,297
						C78.1,297.6,77.1,297.9,76.2,297.4z"/>
				</g>
				<g>
					<path class="st7" d="M90.2,298.9h-3.4c-0.5,0-1.5-0.6-1.4-1.2l0.5-12.4c0.1-0.6,0.2-1.1,0.9-1.1h3.4c0.6,0,1.2,0.5,1.2,1.2
						v12.4C91.3,298.4,90.8,298.9,90.2,298.9z"/>
					<path class="st7" d="M88,299.6h-1.7l-0.6,0l-0.6,0l-1.3-0.1c-1-0.1-1.7-0.8-1.6-1.4l2.4-13.6c0.1-0.6,0.5-1.1,0.7-1l0.4,0
						l0.2,0c0.1,0,0.1,0,0.3,0H88c0.6,0,1.2,0.5,1.2,1.2v13.8C89.2,299.1,88.7,299.6,88,299.6z"/>
				</g>
				<g>
					<path class="st7" d="M98.7,298.9h-3.4c-0.6,0-1.2-0.5-1.2-1.2v-12.4c0-0.6,0.5-1.2,1.2-1.2h3.4c0.6,0,1.2,0.5,1.2,1.2v12.4
						C99.9,298.4,99.4,298.9,98.7,298.9z"/>
					<path class="st7" d="M96.6,299.6h-3.4c-0.6,0-1.2-0.5-1.2-1.2v-13.8c0-0.6,0.5-1.2,1.2-1.2h3.4c0.6,0,1.2,0.5,1.2,1.2v13.8
						C97.7,299.1,97.2,299.6,96.6,299.6z"/>
				</g>
				<g>
					<path class="st7" d="M107.3,298.9h-3.4c-0.6,0-1.2-0.5-1.2-1.2v-12.4c0-0.6,0.5-1.2,1.2-1.2h3.4c0.6,0,1.2,0.5,1.2,1.2v12.4
						C108.4,298.4,107.9,298.9,107.3,298.9z"/>
					<path class="st7" d="M105.1,299.6h-3.4c-0.6,0-1.2-0.5-1.2-1.2v-13.8c0-0.6,0.5-1.2,1.2-1.2h3.4c0.6,0,1.2,0.5,1.2,1.2v13.8
						C106.3,299.1,105.8,299.6,105.1,299.6z"/>
				</g>
				<g>
					<path class="st7" d="M115.8,298.9h-3.4c-0.6,0-1.2-0.5-1.2-1.2v-12.4c0-0.6,0.5-1.2,1.2-1.2h3.4c0.6,0,1.2,0.5,1.2,1.2v12.4
						C117,298.4,116.4,298.9,115.8,298.9z"/>
					<path class="st7" d="M113.7,299.6h-3.4c-0.6,0-1.2-0.5-1.2-1.2v-13.8c0-0.6,0.5-1.2,1.2-1.2h3.4c0.6,0,1.2,0.5,1.2,1.2v13.8
						C114.8,299.1,114.3,299.6,113.7,299.6z"/>
				</g>
				<g>
					<path class="st7" d="M124.4,298.9h-3.4c-0.6,0-1.2-0.5-1.2-1.2v-12.4c0-0.6,0.5-1.2,1.2-1.2h3.4c0.6,0,1.2,0.5,1.2,1.2v12.4
						C125.5,298.4,125,298.9,124.4,298.9z"/>
					<path class="st7" d="M122.2,299.6h-3.4c-0.6,0-1.2-0.5-1.2-1.2v-13.8c0-0.6,0.5-1.2,1.2-1.2h3.4c0.6,0,1.2,0.5,1.2,1.2v13.8
						C123.4,299.1,122.8,299.6,122.2,299.6z"/>
				</g>
				<g>
					<path class="st7" d="M132.9,298.9h-3.4c-0.6,0-1.2-0.5-1.2-1.2v-12.4c0-0.6,0.5-1.2,1.2-1.2h3.4c0.6,0,1.2,0.5,1.2,1.2v12.4
						C134.1,298.4,133.5,298.9,132.9,298.9z"/>
					<path class="st7" d="M130.7,299.6h-3.4c-0.6,0-1.2-0.5-1.2-1.2v-13.8c0-0.6,0.5-1.2,1.2-1.2h3.4c0.6,0,1.2,0.5,1.2,1.2v13.8
						C131.9,299.1,131.4,299.6,130.7,299.6z"/>
				</g>
				<g>
					<path class="st7" d="M141.4,298.9H138c-0.6,0-1.2-0.5-1.2-1.2v-12.4c0-0.6,0.5-1.2,1.2-1.2h3.4c0.6,0,1.2,0.5,1.2,1.2v12.4
						C142.6,298.4,142.1,298.9,141.4,298.9z"/>
					<path class="st7" d="M139.3,299.6h-3.4c-0.6,0-1.2-0.5-1.2-1.2v-13.8c0-0.6,0.5-1.2,1.2-1.2h3.4c0.6,0,1.2,0.5,1.2,1.2v13.8
						C140.5,299.1,139.9,299.6,139.3,299.6z"/>
				</g>
				<g>
					<path class="st7" d="M150,298.9h-3.4c-0.6,0-1.2-0.5-1.2-1.2v-12.4c0-0.6,0.5-1.2,1.2-1.2h3.4c0.6,0,1.2,0.5,1.2,1.2v12.4
						C151.2,298.4,150.6,298.9,150,298.9z"/>
					<path class="st7" d="M147.8,299.6h-3.4c-0.6,0-1.2-0.5-1.2-1.2v-13.8c0-0.6,0.5-1.2,1.2-1.2h3.4c0.6,0,1.2,0.5,1.2,1.2v13.8
						C149,299.1,148.5,299.6,147.8,299.6z"/>
				</g>
				<g>
					<path class="st7" d="M158.5,298.9h-3.4c-0.6,0-1.2-0.5-1.2-1.2v-12.4c0-0.6,0.5-1.2,1.2-1.2h3.4c0.6,0,1.2,0.5,1.2,1.2v12.4
						C159.7,298.4,159.2,298.9,158.5,298.9z"/>
					<path class="st7" d="M156.4,299.6H153c-0.6,0-1.2-0.5-1.2-1.2v-13.8c0-0.6,0.5-1.2,1.2-1.2h3.4c0.6,0,1.2,0.5,1.2,1.2v13.8
						C157.6,299.1,157,299.6,156.4,299.6z"/>
				</g>
				<g>
					<path class="st7" d="M167.1,298.9h-3.4c-0.6,0-1.2-0.5-1.2-1.2v-12.4c0-0.6,0.5-1.2,1.2-1.2h3.4c0.6,0,1.2,0.5,1.2,1.2v12.4
						C168.2,298.4,167.7,298.9,167.1,298.9z"/>
					<path class="st7" d="M164.9,299.6h-3.4c-0.6,0-1.2-0.5-1.2-1.2v-13.8c0-0.6,0.5-1.2,1.2-1.2h3.4c0.6,0,1.2,0.5,1.2,1.2v13.8
						C166.1,299.1,165.6,299.6,164.9,299.6z"/>
				</g>
				<g>
					<path class="st7" d="M175.6,298.9h-3.4c-0.6,0-1.2-0.5-1.2-1.2v-12.4c0-0.6,0.5-1.2,1.2-1.2h3.4c0.6,0,1.2,0.5,1.2,1.2v12.4
						C176.8,298.4,176.3,298.9,175.6,298.9z"/>
					<path class="st7" d="M173.5,299.6h-3.4c-0.6,0-1.2-0.5-1.2-1.2v-13.8c0-0.6,0.5-1.2,1.2-1.2h3.4c0.6,0,1.2,0.5,1.2,1.2v13.8
						C174.6,299.1,174.1,299.6,173.5,299.6z"/>
				</g>
				<g>
					<path class="st7" d="M184.2,298.9h-3.4c-0.6,0-1.2-0.5-1.2-1.2v-12.4c0-0.6,0.5-1.2,1.2-1.2h3.4c0.6,0,1.2,0.5,1.2,1.2v12.4
						C185.3,298.4,184.8,298.9,184.2,298.9z"/>
					<path class="st7" d="M182,299.6h-3.4c-0.6,0-1.2-0.5-1.2-1.2v-13.8c0-0.6,0.5-1.2,1.2-1.2h3.4c0.6,0,1.2,0.5,1.2,1.2v13.8
						C183.2,299.1,182.7,299.6,182,299.6z"/>
				</g>
				<g>
					<path class="st7" d="M192.7,298.9h-3.4c-0.6,0-1.2-0.5-1.2-1.2v-12.4c0-0.6,0.5-1.2,1.2-1.2h3.4c0.6,0,1.2,0.5,1.2,1.2v12.4
						C193.9,298.4,193.4,298.9,192.7,298.9z"/>
					<path class="st7" d="M190.6,299.6h-3.4c-0.6,0-1.2-0.5-1.2-1.2v-13.8c0-0.6,0.5-1.2,1.2-1.2h3.4c0.6,0,1.2,0.5,1.2,1.2v13.8
						C191.7,299.1,191.2,299.6,190.6,299.6z"/>
				</g>
				<g>
					<path class="st7" d="M201.3,298.9h-3.4c-0.6,0-1.2-0.5-1.2-1.2v-12.4c0-0.6,0.5-1.2,1.2-1.2h3.4c0.6,0,1.2,0.5,1.2,1.2v12.4
						C202.4,298.4,201.9,298.9,201.3,298.9z"/>
					<path class="st7" d="M199.1,299.6h-3.4c-0.6,0-1.2-0.5-1.2-1.2v-13.8c0-0.6,0.5-1.2,1.2-1.2h3.4c0.6,0,1.2,0.5,1.2,1.2v13.8
						C200.3,299.1,199.8,299.6,199.1,299.6z"/>
				</g>
				<g>
					<path class="st7" d="M209.8,298.9h-3.4c-0.6,0-1.2-0.5-1.2-1.2v-12.4c0-0.6,0.5-1.2,1.2-1.2h3.4c0.6,0,1.2,0.5,1.2,1.2v12.4
						C211,298.4,210.5,298.9,209.8,298.9z"/>
					<path class="st7" d="M207.7,299.6h-3.4c-0.6,0-1.2-0.5-1.2-1.2v-13.8c0-0.6,0.5-1.2,1.2-1.2h3.4c0.6,0,1.2,0.5,1.2,1.2v13.8
						C208.8,299.1,208.3,299.6,207.7,299.6z"/>
				</g>
				<g>
					<path class="st7" d="M218.4,298.9h-3.4c-0.6,0-1.2-0.5-1.2-1.2v-12.4c0-0.6,0.5-1.2,1.2-1.2h3.4c0.6,0,1.2,0.5,1.2,1.2v12.4
						C219.5,298.4,219,298.9,218.4,298.9z"/>
					<path class="st7" d="M216.2,299.6h-3.4c-0.6,0-1.2-0.5-1.2-1.2v-13.8c0-0.6,0.5-1.2,1.2-1.2h3.4c0.6,0,1.2,0.5,1.2,1.2v13.8
						C217.4,299.1,216.8,299.6,216.2,299.6z"/>
				</g>
				<g>
					<path class="st7" d="M226.9,298.9h-3.4c-0.6,0-1.2-0.5-1.2-1.2v-12.4c0-0.6,0.5-1.2,1.2-1.2h3.4c0.6,0,1.2,0.5,1.2,1.2v12.4
						C228.1,298.4,227.5,298.9,226.9,298.9z"/>
					<path class="st7" d="M224.8,299.6h-3.4c-0.6,0-1.2-0.5-1.2-1.2v-13.8c0-0.6,0.5-1.2,1.2-1.2h3.4c0.6,0,1.2,0.5,1.2,1.2v13.8
						C225.9,299.1,225.4,299.6,224.8,299.6z"/>
				</g>
				<g>
					<path class="st7" d="M235.4,298.9H232c-0.6,0-1.2-0.5-1.2-1.2v-12.4c0-0.6,0.5-1.2,1.2-1.2h3.4c0.6,0,1.2,0.5,1.2,1.2v12.4
						C236.6,298.4,236.1,298.9,235.4,298.9z"/>
					<path class="st7" d="M233.3,299.6h-3.4c-0.6,0-1.2-0.5-1.2-1.2v-13.8c0-0.6,0.5-1.2,1.2-1.2h3.4c0.6,0,1.2,0.5,1.2,1.2v13.8
						C234.5,299.1,233.9,299.6,233.3,299.6z"/>
				</g>
				<g>
					<path class="st7" d="M244,298.9h-3.4c-0.6,0-1.2-0.5-1.2-1.2v-12.4c0-0.6,0.5-1.2,1.2-1.2h3.4c0.6,0,1.2,0.5,1.2,1.2v12.4
						C245.2,298.4,244.6,298.9,244,298.9z"/>
					<path class="st7" d="M241.8,299.6h-3.4c-0.6,0-1.2-0.5-1.2-1.2v-13.8c0-0.6,0.5-1.2,1.2-1.2h3.4c0.6,0,1.2,0.5,1.2,1.2v13.8
						C243,299.1,242.5,299.6,241.8,299.6z"/>
				</g>
				<g>
					<path class="st7" d="M252.5,298.9h-3.4c-0.6,0-1.2-0.5-1.2-1.2v-12.4c0-0.6,0.5-1.2,1.2-1.2h3.4c0.6,0,1.2,0.5,1.2,1.2v12.4
						C253.7,298.4,253.2,298.9,252.5,298.9z"/>
					<path class="st7" d="M250.4,299.6H247c-0.6,0-1.2-0.5-1.2-1.2v-13.8c0-0.6,0.5-1.2,1.2-1.2h3.4c0.6,0,1.2,0.5,1.2,1.2v13.8
						C251.6,299.1,251,299.6,250.4,299.6z"/>
				</g>
				<g>
					<path class="st7" d="M261.1,298.9h-3.4c-0.6,0-1.2-0.5-1.2-1.2v-12.4c0-0.6,0.5-1.2,1.2-1.2h3.4c0.6,0,1.2,0.5,1.2,1.2v12.4
						C262.3,298.4,261.7,298.9,261.1,298.9z"/>
					<path class="st7" d="M258.9,299.6h-3.4c-0.6,0-1.2-0.5-1.2-1.2v-13.8c0-0.6,0.5-1.2,1.2-1.2h3.4c0.6,0,1.2,0.5,1.2,1.2v13.8
						C260.1,299.1,259.6,299.6,258.9,299.6z"/>
				</g>
				<g>
					<path class="st7" d="M269.6,298.9h-3.4c-0.6,0-1.2-0.5-1.2-1.2v-12.4c0-0.6,0.5-1.2,1.2-1.2h3.4c0.6,0,1.2,0.5,1.2,1.2v12.4
						C270.8,298.4,270.3,298.9,269.6,298.9z"/>
					<path class="st7" d="M267.5,299.6h-3.4c-0.6,0-1.2-0.5-1.2-1.2v-13.8c0-0.6,0.5-1.2,1.2-1.2h3.4c0.6,0,1.2,0.5,1.2,1.2v13.8
						C268.6,299.1,268.1,299.6,267.5,299.6z"/>
				</g>
			</g>
			<g>
				<path class="st4" d="M147.3,154.8l-11.6,11.6c-1.7,1.7-1.7,4.5,0,6.2l4,4l17.8-17.8l-4-4C151.8,153.1,149,153.1,147.3,154.8z"/>
				<g>
					<polygon class="st5" points="177.5,186.4 173.5,190.3 151.9,168.3 162,158.2 					"/>
					<polygon class="st5" points="168.1,195.8 172,191.9 150,170.2 139.9,180.3 					"/>
					
						<rect x="146.6" y="151" transform="matrix(0.7071 0.7071 -0.7071 0.7071 162.9697 -56.3225)" class="st2" width="5.8" height="35.1"/>
				</g>
			</g>
		</g>
	</g>
</g>
</svg>
