<?xml version="1.0" encoding="utf-8"?>
<!-- Generator: Adobe Illustrator 24.3.0, SVG Export Plug-In . SVG Version: 6.00 Build 0)  -->
<svg version="1.1" xmlns="http://www.w3.org/2000/svg" xmlns:xlink="http://www.w3.org/1999/xlink" x="0px" y="0px"
	 viewBox="0 0 3710 3710" style="enable-background:new 0 0 3710 3710;" xml:space="preserve">
<style type="text/css">
	.st0{fill:url(#SVGID_1_);}
	.st1{fill:#91B3FA;}
	.st2{opacity:0.5;fill:#FFFFFF;}
	.st3{fill:url(#SVGID_2_);}
	.st4{fill:url(#SVGID_3_);}
	.st5{fill:url(#SVGID_4_);}
	.st6{fill:url(#SVGID_5_);}
	.st7{fill:url(#SVGID_6_);}
	.st8{opacity:0.64;}
	.st9{fill:#FFFFFF;}
	.st10{fill:url(#SVGID_7_);}
	.st11{fill:#BDD0FB;}
	.st12{fill:url(#SVGID_8_);}
	.st13{opacity:0.56;fill:#FFFFFF;}
	.st14{opacity:0.64;fill:#FFFFFF;}
	.st15{fill:url(#SVGID_9_);}
	.st16{fill:url(#SVGID_10_);}
	.st17{fill:url(#SVGID_11_);}
	.st18{fill:url(#SVGID_12_);}
	.st19{fill:url(#SVGID_13_);}
	.st20{fill:url(#SVGID_14_);}
	.st21{fill:url(#SVGID_15_);}
	.st22{fill:url(#SVGID_16_);}
	.st23{fill:url(#SVGID_17_);}
	.st24{fill:url(#SVGID_18_);}
	.st25{fill:url(#SVGID_19_);}
	.st26{fill:url(#SVGID_20_);}
	.st27{fill:url(#SVGID_21_);}
	.st28{fill:url(#SVGID_22_);}
	.st29{fill:url(#SVGID_23_);}
	.st30{fill:url(#SVGID_24_);}
	.st31{fill:url(#SVGID_25_);}
	.st32{fill:url(#SVGID_26_);}
	.st33{fill:url(#SVGID_27_);}
	.st34{fill:url(#SVGID_28_);}
	.st35{fill:url(#SVGID_29_);}
	.st36{fill:url(#SVGID_30_);}
	.st37{fill:url(#SVGID_31_);}
	.st38{fill:url(#SVGID_32_);}
</style>
<g id="Background">
</g>
<g id="Illustration">
	<g>
		<linearGradient id="SVGID_1_" gradientUnits="userSpaceOnUse" x1="3606.2827" y1="4048.6501" x2="1112.8435" y2="951.955">
			<stop  offset="0" style="stop-color:#DAE3FE"/>
			<stop  offset="1" style="stop-color:#E9EFFD"/>
		</linearGradient>
		<path class="st0" d="M2929.6,2821c-57.8,59.9-112.4,98.6-155.6,129.1c-507.7,359-1108.5,254.4-1236.2,228.8
			c-188.5-37.7-553-110.7-816.5-416.1c-398.7-462-336.6-1189.9-27.4-1670.4c56.6-87.9,355.3-575.7,962.6-653.9
			c367.5-47.3,795.9,48.1,1106.1,304.3C3413.8,1280.6,3367.4,2366.7,2929.6,2821z"/>
		<g>
			<path class="st1" d="M1750.3,2316.5c0,0-505.3-1052.9-1182.5-1539.7c-45.5-32.7-109.2-2.4-112.2,53.6
				C436,1204.8,484.2,2316.9,1750.3,2316.5z"/>
			<path class="st2" d="M1624,2269.1c3.3,2.1,0.6,7-2.9,5.4c-130.3-58.9-653.3-374.1-991.6-1155.7c-1.1-2.5,2.6-4.4,3.9-1.9
				C729.1,1294.2,1104,1943.6,1624,2269.1z"/>
		</g>
		<g>
			
				<linearGradient id="SVGID_2_" gradientUnits="userSpaceOnUse" x1="705.9759" y1="701.3172" x2="1307.4883" y2="2059.7888" gradientTransform="matrix(0.9991 -4.330000e-02 4.330000e-02 0.9991 -20.9417 -67.484)">
				<stop  offset="0" style="stop-color:#FE7062"/>
				<stop  offset="1" style="stop-color:#FF928E"/>
			</linearGradient>
			<path class="st3" d="M1895.3,2452.7c0,0-317-1298.5-960.2-2003.7c-43.2-47.4-121.8-28.5-138.3,33.5
				C686.3,897.1,477.5,2153.8,1895.3,2452.7z"/>
			<path class="st2" d="M1765.1,2369.8c3.2,3.1-1,8-4.6,5.4c-132-96.8-643.1-573.3-837.2-1528.6c-0.6-3.1,3.9-4.3,4.8-1.3
				C993.5,1066.6,1259.7,1882.4,1765.1,2369.8z"/>
		</g>
		<g>
			
				<linearGradient id="SVGID_3_" gradientUnits="userSpaceOnUse" x1="-906.4378" y1="2747.9976" x2="-330.3924" y2="1019.8563" gradientTransform="matrix(-1 0 0 1 1155.7772 0)">
				<stop  offset="0" style="stop-color:#09005D"/>
				<stop  offset="1" style="stop-color:#1A0F91"/>
			</linearGradient>
			<path class="st4" d="M574.8,2810.7c0,24.8,20.3,45.1,45.1,45.1h2439c24.8,0,45.1-20.3,45.1-45.1l20.3-1401.6
				c0-24.8-29.2-73.2-82.7-69.5L658,1277.8c-31.1-0.8-61.2,11.2-83.3,33.1s-34.1,52-33.4,83.1L574.8,2810.7z"/>
			<path class="st1" d="M619.3,2767.5c0,23.5,19.2,42.7,42.7,42.7h2338.1c23.5,0,42.7-19.2,42.7-42.7L3062,1495
				c-2.3-76.6-69.4-104.1-110.1-102.5l-2284.5-61.3c-21.9-0.6-43,7.8-58.5,23.3c-15.5,15.4-24,36.6-23.5,58.5L619.3,2767.5z"/>
			<g>
				<linearGradient id="SVGID_4_" gradientUnits="userSpaceOnUse" x1="3011.2827" y1="2105.1191" x2="3025.3005" y2="2105.1191">
					<stop  offset="0" style="stop-color:#DAE3FE"/>
					<stop  offset="1" style="stop-color:#E9EFFD"/>
				</linearGradient>
				<path class="st5" d="M3017.5,2163C3017.5,2163,3017.5,2163,3017.5,2163c-3.5,0-6.3-2.9-6.3-6.3l1.5-103.2c0-3.4,2.8-6.2,6.2-6.2
					c0,0,0.1,0,0.1,0c3.5,0,6.2,2.9,6.2,6.3l-1.5,103.2C3023.7,2160.2,3020.9,2163,3017.5,2163z"/>
				<linearGradient id="SVGID_5_" gradientUnits="userSpaceOnUse" x1="2194.2302" y1="1653.6737" x2="3033.3049" y2="1653.6737">
					<stop  offset="0" style="stop-color:#DAE3FE"/>
					<stop  offset="1" style="stop-color:#E9EFFD"/>
				</linearGradient>
				<path class="st6" d="M3021.3,1910.1C3021.2,1910.1,3021.2,1910.1,3021.3,1910.1c-3.5,0-6.3-2.9-6.3-6.3l5.8-395.2
					c-0.1-23.5-7.2-42.2-21.2-55.6c-26-24.9-67.4-23.7-69.1-23.6l-730.2-19.6c-3.5-0.1-6.2-3-6.1-6.4c0.1-3.5,2.7-6.4,6.4-6.1
					l729.8,19.6c4.5-0.3,48.5-1,77.9,27.1c16.5,15.8,24.9,37.6,25,64.7l-5.8,395.4C3027.4,1907.4,3024.7,1910.1,3021.3,1910.1z"/>
			</g>
			<linearGradient id="SVGID_6_" gradientUnits="userSpaceOnUse" x1="2002.209" y1="859.9341" x2="1940.8226" y2="1657.9576">
				<stop  offset="0" style="stop-color:#09005D"/>
				<stop  offset="1" style="stop-color:#1A0F91"/>
			</linearGradient>
			<path class="st7" d="M467.2,2984.6h2753.6c3.1,0,5.7-2.5,5.7-5.7v-124.4c0-3.1-2.5-5.7-5.7-5.7H467.2c-3.1,0-5.7,2.5-5.7,5.7
				V2979C461.5,2982.1,464.1,2984.6,467.2,2984.6z"/>
		</g>
		<g>
			<g>
				<g class="st8">
					<path class="st9" d="M2604.9,1302.2c-0.3,0-0.6,0-0.9,0c-4.7-0.5-8.1-4.6-7.6-9.3c0.5-4.4,0.8-8.9,1.2-13.3
						c0.4-4.7,4.4-8.1,9.1-7.8c4.7,0.4,8.2,4.4,7.8,9.1c-0.3,4.6-0.7,9.1-1.2,13.7C2612.9,1298.9,2609.2,1302.2,2604.9,1302.2z"/>
					<path class="st9" d="M2038.5,1796.4c-0.1,0-0.2,0-0.3,0c-9.1-0.3-18.4-0.9-27.5-1.7c-4.7-0.4-8.1-4.5-7.7-9.2
						c0.4-4.7,4.5-8.1,9.2-7.7c8.8,0.8,17.8,1.3,26.7,1.6c4.7,0.2,8.3,4.1,8.2,8.8C2046.8,1792.8,2043,1796.4,2038.5,1796.4z
						 M2082.6,1796.2c-4.5,0-8.3-3.5-8.5-8.1c-0.2-4.7,3.4-8.6,8.1-8.9c8.8-0.4,17.8-1,26.6-1.9c4.7-0.4,8.8,3,9.2,7.6
						c0.4,4.7-3,8.8-7.6,9.2c-9.1,0.9-18.4,1.5-27.5,1.9C2082.8,1796.2,2082.7,1796.2,2082.6,1796.2z M1967.7,1789.3
						c-0.5,0-0.9,0-1.4-0.1c-9-1.5-18.1-3.3-27.1-5.2c-4.6-1-7.5-5.5-6.5-10.1c1-4.6,5.5-7.5,10.1-6.5c8.7,1.9,17.5,3.6,26.2,5.1
						c4.6,0.8,7.7,5.1,7,9.8C1975.3,1786.3,1971.7,1789.3,1967.7,1789.3z M2153.3,1788.3c-4,0-7.6-2.9-8.3-7c-0.8-4.6,2.3-9,6.9-9.8
						c8.7-1.5,17.5-3.3,26.2-5.3c4.6-1,9.1,1.8,10.2,6.4c1,4.6-1.8,9.1-6.4,10.2c-8.9,2-18,3.9-27,5.5
						C2154.3,1788.3,2153.8,1788.3,2153.3,1788.3z M1898.4,1773c-0.8,0-1.7-0.1-2.5-0.4c-8.7-2.7-17.5-5.6-26.1-8.7
						c-4.4-1.6-6.7-6.4-5.1-10.8c1.6-4.4,6.4-6.7,10.8-5.1c8.4,3,16.9,5.8,25.3,8.4c4.5,1.4,7,6.1,5.6,10.6
						C1905.4,1770.6,1902,1773,1898.4,1773z M2222.4,1771.4c-3.6,0-6.9-2.3-8.1-5.9c-1.4-4.5,1.1-9.2,5.5-10.6
						c8.5-2.7,17-5.6,25.3-8.6c4.4-1.6,9.3,0.6,10.9,5c1.6,4.4-0.6,9.3-5,10.9c-8.6,3.2-17.3,6.2-26.1,8.9
						C2224.1,1771.3,2223.3,1771.4,2222.4,1771.4z M1831.8,1747.9c-1.2,0-2.4-0.2-3.5-0.8l-2.9-1.3c-7.4-3.4-14.7-6.9-21.9-10.6
						c-4.2-2.1-5.8-7.2-3.7-11.4c2.1-4.2,7.2-5.8,11.4-3.7c7,3.6,14.1,7,21.2,10.3l2.9,1.3c4.3,1.9,6.2,7,4.2,11.2
						C1838.1,1746,1835,1747.9,1831.8,1747.9z M2288.8,1745.8c-3.2,0-6.3-1.8-7.7-4.9c-2-4.2-0.1-9.3,4.1-11.3
						c8.1-3.7,16.1-7.7,24-11.8c4.1-2.2,9.3-0.6,11.4,3.6c2.2,4.1,0.6,9.3-3.6,11.4c-8.1,4.2-16.4,8.3-24.7,12.2
						C2291.2,1745.6,2290,1745.8,2288.8,1745.8z M1768.9,1714.5c-1.5,0-3.1-0.4-4.4-1.3c-7.8-4.8-15.5-9.9-23.1-15
						c-3.9-2.7-4.8-7.9-2.2-11.8c2.7-3.9,7.9-4.8,11.8-2.2c7.3,5,14.9,9.9,22.4,14.6c4,2.5,5.2,7.7,2.8,11.7
						C1774.5,1713,1771.7,1714.5,1768.9,1714.5z M2351.4,1711.8c-2.8,0-5.6-1.4-7.2-4c-2.5-4-1.3-9.2,2.7-11.7
						c7.5-4.7,15-9.7,22.3-14.8c3.8-2.7,9.1-1.8,11.8,2.1c2.7,3.8,1.8,9.1-2.1,11.8c-7.5,5.3-15.2,10.4-23,15.3
						C2354.5,1711.4,2352.9,1711.8,2351.4,1711.8z M1710.9,1673.2c-1.9,0-3.8-0.6-5.3-1.9c-7.1-5.8-14.1-11.8-20.9-17.9
						c-3.5-3.1-3.8-8.5-0.6-12c3.1-3.5,8.5-3.8,12-0.6c6.6,5.9,13.4,11.8,20.3,17.4c3.6,3,4.2,8.3,1.2,11.9
						C1715.8,1672.1,1713.3,1673.2,1710.9,1673.2z M2409,1670.1c-2.4,0-4.9-1-6.5-3.1c-3-3.6-2.5-8.9,1.1-11.9
						c6.8-5.6,13.6-11.6,20.2-17.6c3.5-3.2,8.8-2.9,12,0.5c3.2,3.5,2.9,8.8-0.5,12c-6.8,6.2-13.8,12.3-20.8,18.1
						C2412.8,1669.4,2410.9,1670.1,2409,1670.1z M1658.7,1624.8c-2.2,0-4.5-0.9-6.2-2.7c-6.3-6.7-12.5-13.6-18.4-20.5
						c-3-3.6-2.6-8.9,0.9-12c3.6-3,8.9-2.6,12,0.9c5.7,6.7,11.8,13.4,17.9,19.9c3.2,3.4,3.1,8.8-0.3,12
						C1662.9,1624,1660.8,1624.8,1658.7,1624.8z M2460.8,1621.1c-2.1,0-4.1-0.7-5.8-2.3c-3.4-3.2-3.6-8.5-0.4-12
						c6-6.5,12-13.3,17.7-20c3-3.6,8.4-4,11.9-1c3.6,3,4.1,8.4,1,11.9c-5.9,7-12,14-18.3,20.7
						C2465.3,1620.2,2463,1621.1,2460.8,1621.1z M2505.7,1565.9c-1.7,0-3.4-0.5-4.9-1.6c-3.8-2.7-4.7-8-2-11.8
						c5.1-7.2,10.2-14.7,14.9-22.1c2.5-4,7.8-5.1,11.7-2.6c3.9,2.5,5.1,7.8,2.6,11.7c-4.9,7.7-10.1,15.4-15.4,22.8
						C2511,1564.7,2508.4,1565.9,2505.7,1565.9z M2543.1,1505.3c-1.3,0-2.7-0.3-4-1c-4.1-2.2-5.7-7.3-3.5-11.5
						c4.2-7.8,8.2-15.9,12-23.9c2-4.2,7-6,11.3-4.1c4.2,2,6.1,7,4.1,11.3c-3.9,8.3-8,16.6-12.3,24.6
						C2549,1503.7,2546.1,1505.3,2543.1,1505.3z M2572.4,1440.5c-1,0-2-0.2-3-0.5c-4.4-1.7-6.6-6.5-4.9-10.9
						c3.1-8.3,6.1-16.8,8.8-25.2c1.4-4.5,6.2-6.9,10.7-5.5c4.5,1.4,6.9,6.2,5.5,10.7c-2.8,8.7-5.9,17.5-9.1,26
						C2579,1438.4,2575.8,1440.5,2572.4,1440.5z M2593.2,1372.4c-0.6,0-1.3-0.1-1.9-0.2c-4.6-1.1-7.4-5.6-6.3-10.2
						c2-8.6,3.9-17.4,5.5-26.1c0.8-4.6,5.3-7.7,9.9-6.8c4.6,0.8,7.7,5.3,6.8,9.9c-1.6,9-3.5,18.1-5.6,27
						C2600.5,1369.8,2597,1372.4,2593.2,1372.4z"/>
					<path class="st9" d="M1613.2,1569.8c-2.6,0-5.2-1.2-6.9-3.5c-2.7-3.7-5.3-7.5-7.9-11.2c-2.7-3.9-1.7-9.1,2.2-11.8
						c3.9-2.7,9.1-1.7,11.8,2.2c2.5,3.7,5.1,7.3,7.7,10.9c2.7,3.8,1.9,9.1-1.9,11.8C1616.6,1569.3,1614.9,1569.8,1613.2,1569.8z"/>
				</g>
				<g class="st8">
					<path class="st9" d="M1515.5,1159.4c-0.5,0-0.9,0-1.4-0.1c-4.6-0.7-7.8-5.1-7-9.7c0.7-4.5,1.5-9,2.4-13.6
						c0.9-4.6,5.3-7.6,9.9-6.8c4.6,0.9,7.6,5.3,6.8,9.9c-0.8,4.4-1.6,8.8-2.3,13.1C1523.1,1156.4,1519.5,1159.4,1515.5,1159.4z"/>
					<path class="st9" d="M1527.5,1103.7c-0.7,0-1.5-0.1-2.2-0.3c-4.5-1.2-7.2-5.9-6-10.4c2.4-8.7,5-17.4,7.7-26
						c1.4-4.5,6.2-6.9,10.7-5.4c4.5,1.4,6.9,6.2,5.4,10.7c-2.7,8.3-5.2,16.8-7.5,25.2C1534.6,1101.3,1531.2,1103.7,1527.5,1103.7z
						 M1550.1,1037.4c-1.1,0-2.2-0.2-3.2-0.6c-4.3-1.8-6.4-6.7-4.6-11.1c2.7-6.6,5.6-13.2,8.6-19.8c0.8-1.7,1.5-3.3,2.3-5
						c2-4.2,7-6.1,11.3-4.1c4.2,2,6.1,7,4.1,11.3c-0.8,1.6-1.5,3.2-2.3,4.9c-2.9,6.3-5.7,12.8-8.4,19.2
						C1556.6,1035.5,1553.4,1037.4,1550.1,1037.4z M1580.9,974.5c-1.4,0-2.9-0.4-4.2-1.1c-4.1-2.3-5.5-7.5-3.2-11.6
						c4.5-7.8,9.2-15.7,14-23.2c2.5-4,7.8-5.1,11.7-2.6c4,2.5,5.1,7.8,2.6,11.7c-4.7,7.3-9.2,14.9-13.6,22.5
						C1586.7,973,1583.8,974.5,1580.9,974.5z M1619.4,916c-1.8,0-3.6-0.6-5.1-1.7c-3.7-2.8-4.5-8.1-1.7-11.9
						c5.4-7.2,11.1-14.4,16.9-21.3c3-3.6,8.3-4.1,11.9-1.1c3.6,3,4.1,8.3,1.1,11.9c-5.6,6.7-11.1,13.7-16.4,20.6
						C1624.5,914.8,1621.9,916,1619.4,916z M2492.1,910c-2.5,0-5-1.1-6.7-3.3c-5.3-6.9-10.9-13.7-16.6-20.4c-3-3.6-2.6-8.9,0.9-12
						c3.6-3,8.9-2.6,12,0.9c5.9,6.8,11.6,13.9,17.1,21c2.9,3.7,2.2,9-1.5,11.9C2495.7,909.4,2493.9,910,2492.1,910z M1665.1,862.8
						c-2.1,0-4.3-0.8-5.9-2.4c-3.3-3.3-3.4-8.6-0.1-12c6.3-6.4,12.8-12.8,19.5-18.9c3.4-3.2,8.8-3,12,0.5c3.2,3.4,3,8.8-0.5,12
						c-6.4,5.9-12.8,12.1-18.9,18.4C1669.5,862,1667.3,862.8,1665.1,862.8z M2445.7,857.5c-2.2,0-4.3-0.8-6-2.5
						c-6.2-6.1-12.6-12.2-19.1-18.1c-3.5-3.1-3.8-8.5-0.6-12c3.1-3.5,8.5-3.8,12-0.6c6.7,6,13.3,12.3,19.7,18.7
						c3.3,3.3,3.3,8.7,0,12C2450,856.6,2447.9,857.5,2445.7,857.5z M1717.2,816c-2.5,0-5-1.1-6.7-3.2c-2.9-3.7-2.3-9,1.4-11.9
						c7.1-5.6,14.4-11.1,21.7-16.3c3.8-2.7,9.1-1.8,11.8,2c2.7,3.8,1.8,9.1-2,11.8c-7.1,5.1-14.2,10.4-21,15.8
						C1720.9,815.4,1719,816,1717.2,816z M2392.9,811.3c-1.8,0-3.6-0.6-5.2-1.8c-6.9-5.3-14.1-10.5-21.3-15.5
						c-3.8-2.7-4.8-7.9-2.1-11.8c2.7-3.9,7.9-4.8,11.8-2.1c7.4,5.1,14.8,10.5,21.9,16c3.7,2.8,4.4,8.2,1.6,11.9
						C2398,810.2,2395.5,811.3,2392.9,811.3z M1774.9,776.2c-2.9,0-5.7-1.5-7.3-4.1c-2.4-4-1.1-9.2,2.9-11.6
						c7.7-4.6,15.7-9.1,23.6-13.4c4.1-2.2,9.3-0.7,11.5,3.5c2.2,4.1,0.7,9.3-3.5,11.5c-7.7,4.1-15.4,8.5-22.9,13
						C1777.8,775.8,1776.3,776.2,1774.9,776.2z M2334.7,772.3c-1.4,0-2.9-0.4-4.3-1.2c-7.5-4.4-15.3-8.6-23.1-12.7
						c-4.2-2.2-5.8-7.3-3.6-11.4c2.2-4.2,7.3-5.8,11.4-3.6c8,4.1,16,8.5,23.8,13.1c4,2.4,5.4,7.5,3.1,11.6
						C2340.5,770.8,2337.7,772.3,2334.7,772.3z M1837.1,744c-3.3,0-6.4-1.9-7.8-5.1c-1.9-4.3,0.1-9.3,4.4-11.2
						c8.2-3.6,16.7-7.1,25.1-10.3c4.4-1.7,9.3,0.5,10.9,4.9c1.7,4.4-0.5,9.3-4.9,10.9c-8.1,3.1-16.3,6.5-24.3,10
						C1839.4,743.8,1838.2,744,1837.1,744z M2272,741c-1.1,0-2.2-0.2-3.3-0.7c-8-3.4-16.2-6.7-24.4-9.7c-4.4-1.6-6.6-6.5-5-10.9
						c1.6-4.4,6.5-6.6,10.9-5c8.5,3.1,16.9,6.5,25.2,10c4.3,1.8,6.3,6.8,4.5,11.1C2278.5,739.1,2275.3,741,2272,741z M1902.9,720
						c-3.7,0-7-2.4-8.1-6.1c-1.3-4.5,1.2-9.2,5.7-10.5c8.6-2.5,17.4-4.9,26.2-7c4.6-1.1,9.1,1.7,10.2,6.2c1.1,4.5-1.7,9.1-6.2,10.2
						c-8.5,2.1-17,4.4-25.4,6.8C1904.5,719.9,1903.7,720,1902.9,720z M2206,717.8c-0.8,0-1.5-0.1-2.3-0.3c-8.4-2.4-17-4.5-25.5-6.5
						c-4.6-1-7.4-5.6-6.4-10.2c1-4.6,5.6-7.4,10.2-6.4c8.8,2,17.6,4.3,26.3,6.7c4.5,1.3,7.1,5.9,5.9,10.5
						C2213.1,715.4,2209.7,717.8,2206,717.8z M1971.2,704.5c-4.1,0-7.7-3-8.4-7.1c-0.7-4.6,2.4-9,7-9.7c8.9-1.4,17.9-2.7,26.9-3.7
						c4.7-0.5,8.8,2.8,9.4,7.5c0.5,4.7-2.8,8.8-7.5,9.4c-8.7,1-17.4,2.2-26,3.5C1972.1,704.4,1971.6,704.5,1971.2,704.5z
						 M2137.4,703.3c-0.4,0-0.8,0-1.2-0.1c-8.6-1.3-17.4-2.3-26.1-3.2c-4.7-0.5-8.1-4.6-7.6-9.3c0.5-4.7,4.6-8.1,9.3-7.6
						c9,0.9,18,2,26.9,3.3c4.6,0.7,7.8,5,7.2,9.6C2145.2,700.2,2141.6,703.3,2137.4,703.3z M2040.9,697.8c-4.6,0-8.3-3.6-8.5-8.2
						c-0.1-4.7,3.5-8.6,8.2-8.7c9-0.3,18.1-0.4,27.1-0.2c4.7,0.1,8.4,3.9,8.3,8.6c-0.1,4.7-3.9,8.5-8.6,8.3
						c-8.7-0.1-17.6-0.1-26.3,0.2C2041.1,697.8,2041,697.8,2040.9,697.8z"/>
					<path class="st9" d="M2524.6,956.8c-2.8,0-5.6-1.4-7.2-4c-2.3-3.8-4.7-7.5-7.2-11.2c-2.6-3.9-1.5-9.2,2.4-11.7
						c3.9-2.6,9.2-1.5,11.7,2.4c2.5,3.8,5,7.7,7.4,11.6c2.5,4,1.2,9.2-2.7,11.7C2527.7,956.4,2526.2,956.8,2524.6,956.8z"/>
				</g>
				<g>
					<linearGradient id="SVGID_7_" gradientUnits="userSpaceOnUse" x1="2172.8838" y1="925.3651" x2="1704.917" y2="2197.0151">
						<stop  offset="0" style="stop-color:#4F52FF"/>
						<stop  offset="1" style="stop-color:#4042E2"/>
					</linearGradient>
					<path class="st10" d="M2441.7,1062.6c-0.9-2.7-3.4-4.5-6.2-4.5l-80.3-0.7c-19.7-31.9-44.6-60.9-74.3-85.5l10.4-79.5
						c0.4-2.8-1.1-5.5-3.6-6.8l-86.2-42.9c-2.5-1.3-5.6-0.8-7.6,1.2l-57.2,56.2c-37.5-8.9-75.7-11.3-113-7.8l-48.9-63.6
						c-1.7-2.2-4.7-3.1-7.3-2.2l-91.3,30.6c-2.7,0.9-4.5,3.4-4.5,6.2l-0.7,80.3c-31.9,19.7-60.9,44.6-85.5,74.3l-79.5-10.4
						c-2.8-0.4-5.5,1.1-6.8,3.6l-42.9,86.2c-1.3,2.5-0.8,5.6,1.2,7.6l56.2,57.2c-8.9,37.5-11.3,75.7-7.8,113l-63.6,48.9
						c-2.2,1.7-3.1,4.7-2.2,7.3l30.6,91.3c0.9,2.7,3.4,4.5,6.2,4.5l80.3,0.7c19.7,31.9,44.6,60.9,74.3,85.5l-10.4,79.5
						c-0.4,2.8,1.1,5.5,3.6,6.8l86.2,42.9c2.5,1.3,5.6,0.8,7.6-1.2l57.2-56.2c37.5,8.9,75.7,11.3,113,7.8l48.9,63.6
						c1.7,2.2,4.7,3.1,7.3,2.2l91.3-30.6c2.7-0.9,4.5-3.4,4.5-6.2l0.7-80.3c31.9-19.7,60.9-44.6,85.5-74.3l79.5,10.4
						c2.8,0.4,5.5-1.1,6.8-3.6l42.9-86.2c1.3-2.5,0.8-5.6-1.2-7.6l-56.2-57.2c8.9-37.5,11.3-75.7,7.8-113l63.6-48.9
						c2.2-1.7,3.1-4.7,2.2-7.3L2441.7,1062.6z"/>
					<g>
						<path class="st11" d="M2056.3,1333.2c-6.5,0-13-0.7-19.5-2.1c-23.6-5.2-43.9-19.2-56.9-39.6c-13.1-20.4-17.4-44.6-12.3-68.2
							c5.2-23.6,19.2-43.9,39.6-56.9c20.4-13.1,44.6-17.4,68.2-12.3l0,0c23.6,5.2,43.9,19.2,56.9,39.6
							c13.1,20.4,17.4,44.6,12.3,68.2c-5.2,23.6-19.2,43.9-39.6,56.9C2090.3,1328.3,2073.5,1333.2,2056.3,1333.2z M2056,1162.1
							c-15.2,0-30.2,4.3-43.3,12.8c-18.1,11.6-30.5,29.5-35.1,50.5c-4.6,21-0.7,42.5,10.9,60.6c11.6,18.1,29.5,30.5,50.5,35.1
							c21,4.6,42.5,0.7,60.6-10.9c18.1-11.6,30.5-29.5,35.1-50.5c4.6-21,0.7-42.5-10.9-60.6c-11.6-18.1-29.5-30.5-50.5-35.1l0,0
							C2067.5,1162.7,2061.7,1162.1,2056,1162.1z"/>
					</g>
					<path class="st11" d="M2053.9,1480.8c-35.5,0-71.6-8-105.5-24.9c-83.3-41.5-131.5-125.6-131.5-212.9c0-35.5,8-71.6,24.9-105.5
						c28.3-56.8,77-99.1,137.1-119.3c60.1-20.1,124.5-15.7,181.3,12.6l0,0c0.1,0.1,0.2,0.1,0.4,0.2c0,0,0,0,0,0c0,0,0,0,0.1,0
						c15,7.5,29.2,16.6,42.2,27c1.3,1,1.9,2.5,1.9,4c0,1.1-0.4,2.2-1.1,3.2c-1.8,2.2-5,2.6-7.1,0.8c-12.6-10-26.3-18.8-40.8-26l0,0
						c-54.3-27.1-115.9-31.3-173.5-12.1c-57.6,19.3-104.2,59.8-131.2,114.2c-16.2,32.4-23.8,66.9-23.8,101
						c0,83.5,46.2,164.1,125.9,203.8c112.1,55.9,248.8,10.1,304.7-102.1c15.7-31.6,23.9-66.2,23.9-101.2c0-5.9-0.2-11.7-0.7-17.6
						c0-0.1,0-0.3,0-0.4c0-2.6,2-4.9,4.7-5.1c2.8-0.2,5.2,1.9,5.5,4.7c0.5,6.1,0.7,12.3,0.7,18.4c0,36.5-8.5,72.8-24.9,105.7
						C2225.3,1432.5,2141.2,1480.8,2053.9,1480.8z"/>
				</g>
			</g>
			<g>
				
					<linearGradient id="SVGID_8_" gradientUnits="userSpaceOnUse" x1="-5360.6553" y1="1571.4194" x2="-5341.4448" y2="2259.8135" gradientTransform="matrix(-0.9355 -0.3533 0.3533 -0.9355 -2925.8816 470.2134)">
					<stop  offset="0" style="stop-color:#4F52FF"/>
					<stop  offset="1" style="stop-color:#4042E2"/>
				</linearGradient>
				<path class="st12" d="M2857.4,658.2l-36.4,2.6c-10.1-13.7-22.4-26-36.7-36l1.8-36.4c0.1-1.3-0.7-2.5-1.9-2.9l-40.6-16.3
					c-1.2-0.5-2.5-0.1-3.4,0.8l-23.9,27.5c-17.3-2.7-34.7-2.4-51.5,0.5l-24.5-27.1c-0.9-0.9-2.2-1.2-3.4-0.7l-40.3,17.1
					c-1.2,0.5-1.9,1.7-1.8,3l2.6,36.4c-13.7,10.1-26,22.4-36,36.7l-36.4-1.8c-1.3-0.1-2.5,0.7-2.9,1.9l-16.3,40.6
					c-0.5,1.2-0.2,2.5,0.8,3.4l27.5,23.9c-2.7,17.3-2.4,34.7,0.5,51.5l-27.1,24.5c-0.9,0.9-1.2,2.2-0.7,3.4l17.1,40.3
					c0.5,1.2,1.7,1.9,3,1.8l36.4-2.6c10.1,13.7,22.4,26,36.7,36l-1.8,36.4c-0.1,1.3,0.7,2.5,1.9,2.9l40.6,16.3
					c1.2,0.5,2.5,0.1,3.4-0.8l23.9-27.5c17.3,2.7,34.7,2.4,51.5-0.5l24.5,27.1c0.9,0.9,2.2,1.2,3.4,0.7l40.3-17.1
					c1.2-0.5,1.9-1.7,1.8-3l-2.6-36.4c13.7-10.1,26-22.4,36-36.7l36.4,1.8c1.3,0.1,2.5-0.7,2.9-1.9l16.3-40.6
					c0.5-1.2,0.2-2.5-0.8-3.4l-27.5-23.9c2.7-17.3,2.4-34.7-0.5-51.5l27.1-24.5c0.9-0.9,1.2-2.2,0.7-3.4l-17.1-40.3
					C2859.8,658.8,2858.6,658.1,2857.4,658.2z"/>
				<path class="st13" d="M2692.2,797.7c-1.9,0-3.8-0.1-5.7-0.4c-11.2-1.5-21.1-7.3-27.9-16.3s-9.7-20.1-8.2-31.3
					c1.5-11.2,7.3-21.1,16.3-27.9c9-6.8,20.1-9.8,31.3-8.2l0,0c23.1,3.1,39.3,24.5,36.1,47.6C2731.1,782.3,2713,797.7,2692.2,797.7z
					 M2692.1,720c-7.7,0-15.1,2.5-21.4,7.2c-7.5,5.7-12.4,14.1-13.7,23.4c-2.6,19.4,11,37.3,30.3,39.9c9.4,1.3,18.7-1.2,26.2-6.9
					c7.5-5.7,12.4-14.1,13.7-23.4c2.6-19.4-11-37.3-30.3-39.9l0,0C2695.3,720.1,2693.7,720,2692.1,720z"/>
				<g>
					<g class="st8">
						<path class="st9" d="M2923.7,726.2c-4.1,0-7.7-3-8.4-7.1c-0.7-4.3-1.5-8.6-2.5-12.8c-1-4.6,1.9-9.1,6.4-10.1
							c4.6-1,9.1,1.9,10.1,6.4c1,4.6,1.9,9.2,2.6,13.8c0.7,4.6-2.4,9-7,9.7C2924.6,726.2,2924.2,726.2,2923.7,726.2z"/>
						<path class="st9" d="M2692.5,998.5L2692.5,998.5c-9.5,0-19-0.6-28.5-1.7c-4.7-0.5-8-4.8-7.4-9.4c0.5-4.6,4.8-8,9.4-7.4
							c8.8,1,17.7,1.5,26.5,1.5c4.7,0,8.5,3.8,8.5,8.5C2701,994.7,2697.2,998.5,2692.5,998.5z M2736.9,994.2c-4,0-7.5-2.8-8.3-6.9
							c-0.9-4.6,2.1-9,6.7-9.9c8.6-1.7,17.3-3.9,25.7-6.6c4.5-1.4,9.2,1,10.7,5.5c1.4,4.5-1,9.2-5.5,10.7c-9,2.9-18.3,5.3-27.6,7.1
							C2738,994.1,2737.5,994.2,2736.9,994.2z M2621.3,987.5c-0.8,0-1.7-0.1-2.6-0.4c-9-2.9-18-6.3-26.6-10.2
							c-4.3-1.9-6.2-6.9-4.2-11.2c1.9-4.3,7-6.2,11.2-4.2c8,3.6,16.4,6.8,24.8,9.5c4.5,1.4,6.9,6.2,5.5,10.6
							C2628.3,985.2,2624.9,987.5,2621.3,987.5z M2804.6,969.8c-3,0-5.9-1.6-7.4-4.4c-2.2-4.1-0.7-9.3,3.4-11.5
							c7.7-4.2,15.3-9,22.5-14.1c3.8-2.7,9.1-1.8,11.8,2c2.7,3.8,1.8,9.1-2,11.8c-7.7,5.5-15.9,10.6-24.2,15.1
							C2807.4,969.4,2806,969.8,2804.6,969.8z M2861.7,926c-2.1,0-4.2-0.8-5.9-2.4c-3.4-3.2-3.5-8.6-0.3-12
							c6.1-6.4,11.9-13.2,17.2-20.2c2.8-3.7,8.1-4.5,11.9-1.7c3.7,2.8,4.5,8.1,1.7,11.9c-5.7,7.6-11.9,14.9-18.5,21.7
							C2866.2,925.1,2863.9,926,2861.7,926z M2902.9,867c-1.2,0-2.5-0.3-3.7-0.9c-4.2-2.1-5.9-7.1-3.9-11.3
							c3.9-7.9,7.3-16.1,10.2-24.5c1.5-4.4,6.4-6.7,10.8-5.2c4.4,1.5,6.7,6.4,5.2,10.8c-3.1,9-6.8,17.8-11,26.3
							C2909.1,865.2,2906.1,867,2902.9,867z M2924.2,798.2c-0.4,0-0.8,0-1.2-0.1c-4.6-0.7-7.8-5-7.2-9.6l0.4-2.5
							c1.1-7.9,1.8-16,2-23.9c0.1-4.7,3.9-8.3,8.7-8.2c4.7,0.1,8.4,4.1,8.2,8.7c-0.3,8.5-1,17.1-2.1,25.6l-0.4,2.7
							C2932,795.2,2928.3,798.2,2924.2,798.2z"/>
						<path class="st9" d="M2556.8,955.5c-1.7,0-3.4-0.5-4.9-1.6c-3.8-2.7-7.6-5.5-11.2-8.4c-3.7-2.9-4.3-8.3-1.3-11.9
							c2.9-3.7,8.3-4.3,11.9-1.3c3.4,2.7,6.9,5.4,10.4,7.9c3.8,2.7,4.7,8,2,11.8C2562,954.2,2559.4,955.5,2556.8,955.5z"/>
					</g>
					<g class="st8">
						<path class="st9" d="M2459.7,795.3c-4.2,0-7.8-3.1-8.4-7.3c-0.6-4.6-1.1-9.3-1.5-14c-0.4-4.7,3.1-8.7,7.8-9.1
							c4.6-0.3,8.7,3.1,9.1,7.8c0.3,4.3,0.8,8.7,1.4,13c0.6,4.6-2.6,8.9-7.3,9.5C2460.4,795.3,2460.1,795.3,2459.7,795.3z"/>
						<path class="st9" d="M2459.1,737.9c-0.3,0-0.6,0-1-0.1c-4.7-0.5-8-4.7-7.5-9.4c0.2-2,0.5-3.9,0.7-5.9c1-7.3,2.3-14.6,4-21.7
							c1-4.6,5.6-7.4,10.2-6.4c4.6,1,7.4,5.6,6.4,10.2c-1.5,6.6-2.8,13.4-3.7,20.2c-0.3,1.8-0.5,3.7-0.7,5.5
							C2467,734.7,2463.4,737.9,2459.1,737.9z M2477.4,669.5c-1.1,0-2.3-0.2-3.4-0.7c-4.3-1.9-6.2-6.9-4.4-11.2
							c3.7-8.5,8-16.9,12.7-25c2.4-4,7.6-5.4,11.6-3c4,2.4,5.4,7.6,3,11.6c-4.4,7.5-8.4,15.3-11.9,23.2
							C2483.8,667.6,2480.7,669.5,2477.4,669.5z M2515.4,609.8c-2,0-4-0.7-5.6-2.1c-3.5-3.1-3.9-8.4-0.8-12c6.1-7,12.7-13.8,19.6-20
							c3.5-3.2,8.8-2.9,12,0.6c3.1,3.5,2.9,8.8-0.6,12c-6.4,5.8-12.6,12.1-18.3,18.6C2520.1,608.8,2517.7,609.8,2515.4,609.8z
							 M2569.4,564c-2.8,0-5.6-1.4-7.2-4c-2.5-4-1.2-9.2,2.8-11.7c7.9-4.9,16.2-9.3,24.7-13.3c4.2-2,9.3-0.1,11.3,4.1
							c2,4.2,0.1,9.3-4.1,11.3c-7.9,3.7-15.6,7.8-23,12.4C2572.5,563.6,2571,564,2569.4,564z M2799.2,555.1c-1.3,0-2.6-0.3-3.9-0.9
							c-7.7-4-15.7-7.5-23.9-10.5c-4.4-1.6-6.6-6.5-5-10.9c1.6-4.4,6.5-6.6,10.9-5c8.7,3.3,17.4,7.1,25.7,11.3
							c4.2,2.1,5.8,7.2,3.7,11.4C2805.2,553.4,2802.2,555.1,2799.2,555.1z M2634.6,536.5c-3.8,0-7.2-2.6-8.2-6.4
							c-1.1-4.5,1.6-9.1,6.1-10.3c9-2.3,18.3-4.1,27.5-5.3c4.7-0.6,8.9,2.6,9.5,7.3c0.6,4.6-2.6,8.9-7.3,9.5
							c-8.6,1.1-17.2,2.8-25.6,4.9C2636,536.4,2635.3,536.5,2634.6,536.5z M2732,532.8c-0.5,0-1,0-1.4-0.1c-2.6-0.4-5.2-0.8-7.9-1.2
							c-6-0.8-12.1-1.4-18.1-1.7c-4.7-0.3-8.2-4.3-8-8.9c0.3-4.7,4.2-8.2,8.9-8c6.5,0.4,13,1,19.4,1.9c2.8,0.4,5.6,0.8,8.4,1.3
							c4.6,0.8,7.7,5.2,6.9,9.8C2739.6,529.8,2736,532.8,2732,532.8z"/>
						<path class="st9" d="M2846.8,587.5c-2,0-4-0.7-5.6-2.1c-3.3-2.9-6.6-5.7-10.1-8.3c-3.7-2.9-4.3-8.2-1.5-11.9
							c2.9-3.7,8.2-4.3,11.9-1.5c3.7,2.9,7.3,5.9,10.8,9c3.5,3.1,3.9,8.4,0.8,12C2851.5,586.5,2849.1,587.5,2846.8,587.5z"/>
					</g>
				</g>
				<path class="st13" d="M2692.2,864.4c-13.8,0-27.5-2.6-40.7-7.9c-42.4-17.1-68.3-58-68.3-101.2c0-13.5,2.5-27.3,7.9-40.6
					c10.9-27,31.6-48.1,58.4-59.6c26.8-11.4,56.4-11.7,83.4-0.8l0,0c2.8,1.1,5.5,2.4,8.2,3.7c3.3,1.7,6.6,3.5,9.7,5.5
					c0.1,0,0.1,0.1,0.2,0.1c0.8,0.5,1.6,1,2.3,1.5c1,0.7,1.5,1.7,1.5,2.8c0,0.7-0.2,1.3-0.6,1.9c-1,1.6-3.2,2-4.7,0.9
					c-6-4.1-12.4-7.5-19.2-10.2l0,0c-1.8-0.7-3.6-1.4-5.4-2c-15.7-5.3-32.1-6.7-48.2-4.2l0,0c0,0-0.1,0-0.1,0c0,0,0,0,0,0
					c0,0-0.1,0-0.1,0c0,0,0,0,0,0c-7.6,1.2-15.1,3.3-22.4,6.2c-0.1,0-0.2,0.1-0.3,0.1c-0.2,0.1-0.4,0.2-0.6,0.2
					c-0.4,0.1-0.7,0.3-1.1,0.4c-25.1,10.7-44.5,30.5-54.7,55.8c-5,12.3-7.4,25.3-7.5,38.2c0,13.6,2.7,27.2,8.2,40
					c10.7,25.1,30.5,44.6,55.8,54.7c25.3,10.2,53.1,9.9,78.2-0.8c25.1-10.7,44.6-30.5,54.7-55.8c4.9-12.2,7.4-25.2,7.4-38.2
					c0-5.3-0.4-10.6-1.3-15.9c0-0.2,0-0.4,0-0.5c0-1.6,1.2-3.1,2.9-3.3c1.9-0.3,3.6,1,3.9,2.8c0.9,5.6,1.3,11.3,1.3,17
					c0,13.9-2.7,27.7-7.9,40.7c-10.9,27-31.6,48.1-58.4,59.6C2721.2,861.5,2706.7,864.4,2692.2,864.4z"/>
			</g>
			<g>
				<g class="st8">
					<path class="st9" d="M1757.3,1671.8c-2.9,0-5.8-1.5-7.4-4.3c-2.2-3.9-4.5-7.7-6.8-11.5c-2.4-4-1.1-9.2,2.9-11.6
						c4-2.4,9.2-1.1,11.6,2.9c2.4,3.9,4.7,7.9,7,11.9c2.3,4.1,0.9,9.2-3.2,11.6C1760.1,1671.4,1758.7,1671.8,1757.3,1671.8z"/>
					<path class="st9" d="M1240.1,2561.7c-3.8,0-7.6,0-11.3-0.1c-4.7-0.1-8.4-4-8.3-8.6c0.1-4.7,4-8.4,8.6-8.3
						c8.7,0.2,17.4,0.1,26.2-0.1c0.1,0,0.2,0,0.2,0c4.6,0,8.4,3.7,8.5,8.3c0.1,4.7-3.6,8.6-8.3,8.7
						C1250.5,2561.7,1245.3,2561.7,1240.1,2561.7z M1185.9,2559.2c-0.3,0-0.5,0-0.8,0c-8.9-0.8-17.9-1.9-26.8-3.1
						c-4.6-0.6-7.9-4.9-7.2-9.6c0.6-4.6,4.9-7.9,9.6-7.2c8.6,1.2,17.3,2.2,26,3c4.7,0.4,8.1,4.6,7.7,9.2
						C1193.9,2555.9,1190.2,2559.2,1185.9,2559.2z M1298.6,2558.9c-4.3,0-8-3.3-8.4-7.6c-0.5-4.7,2.9-8.8,7.6-9.3
						c8.6-0.9,17.4-1.9,26-3.2c4.6-0.6,8.9,2.6,9.6,7.2c0.7,4.6-2.5,8.9-7.2,9.6c-8.9,1.3-17.8,2.4-26.7,3.2
						C1299.1,2558.8,1298.8,2558.9,1298.6,2558.9z M1117,2548.8c-0.6,0-1.2-0.1-1.8-0.2c-8.8-1.9-17.6-4-26.2-6.2
						c-4.5-1.2-7.2-5.8-6.1-10.3c1.2-4.5,5.8-7.2,10.3-6.1c8.4,2.2,16.9,4.2,25.5,6c4.6,1,7.5,5.5,6.5,10.1
						C1124.4,2546,1120.9,2548.8,1117,2548.8z M1367.4,2548c-3.9,0-7.4-2.7-8.3-6.7c-1-4.6,1.9-9.1,6.5-10.1
						c8.5-1.8,17-3.9,25.5-6.1c4.5-1.2,9.2,1.5,10.4,6c1.2,4.5-1.5,9.2-6,10.4c-8.6,2.3-17.5,4.4-26.2,6.3
						C1368.6,2547.9,1368,2548,1367.4,2548z M1434.5,2529.3c-3.5,0-6.8-2.2-8-5.7c-1.5-4.4,0.8-9.2,5.3-10.8
						c8.2-2.8,16.5-5.9,24.6-9c4.4-1.7,9.3,0.4,11,4.8c1.7,4.4-0.4,9.3-4.8,11c-8.3,3.3-16.8,6.4-25.3,9.3
						C1436.4,2529.1,1435.4,2529.3,1434.5,2529.3z M1499,2502.8c-3.2,0-6.2-1.8-7.6-4.8c-2-4.2-0.3-9.3,4-11.3
						c7.9-3.8,15.7-7.8,23.3-11.9c4.1-2.2,9.3-0.7,11.5,3.5c2.2,4.1,0.7,9.3-3.5,11.5c-7.8,4.2-15.9,8.3-24,12.2
						C1501.5,2502.6,1500.2,2502.8,1499,2502.8z M1559.8,2469c-2.8,0-5.5-1.4-7.2-3.9c-2.5-4-1.3-9.2,2.6-11.7
						c7.3-4.6,14.6-9.5,21.7-14.5c3.8-2.7,9.1-1.8,11.8,2.1c2.7,3.8,1.8,9.1-2.1,11.8c-7.3,5.1-14.8,10.2-22.4,14.9
						C1563,2468.6,1561.4,2469,1559.8,2469z M1616.3,2428.2c-2.5,0-4.9-1.1-6.6-3.1c-3-3.6-2.4-9,1.2-11.9
						c6.7-5.5,13.4-11.2,19.9-17c3.5-3.1,8.9-2.8,12,0.7c3.1,3.5,2.8,8.9-0.7,12c-6.6,5.9-13.5,11.8-20.5,17.5
						C1620.1,2427.6,1618.2,2428.2,1616.3,2428.2z M1667.6,2381.1c-2.1,0-4.3-0.8-5.9-2.4c-3.4-3.3-3.4-8.6-0.2-12
						c6-6.2,12-12.7,17.8-19.2c3.1-3.5,8.5-3.8,12-0.7c3.5,3.1,3.8,8.5,0.7,12c-5.9,6.7-12.1,13.3-18.3,19.7
						C1672,2380.3,1669.8,2381.1,1667.6,2381.1z M1713,2328.4c-1.8,0-3.6-0.6-5.1-1.7c-3.7-2.8-4.4-8.2-1.6-11.9
						c5.3-6.9,10.5-14,15.4-21.1c2.7-3.8,8-4.8,11.8-2.1c3.8,2.7,4.8,8,2.1,11.8c-5.1,7.3-10.4,14.6-15.9,21.7
						C1718.1,2327.2,1715.6,2328.4,1713,2328.4z M1752.1,2270.7c-1.5,0-3-0.4-4.3-1.2c-4-2.4-5.3-7.6-3-11.6
						c4.4-7.5,8.8-15.1,12.9-22.8c2.2-4.1,7.4-5.7,11.5-3.5c4.1,2.2,5.7,7.4,3.5,11.5c-4.2,7.9-8.7,15.8-13.3,23.5
						C1757.8,2269.2,1755,2270.7,1752.1,2270.7z M1784.1,2208.8c-1.2,0-2.3-0.2-3.5-0.7c-4.3-1.9-6.2-6.9-4.3-11.2
						c3.5-8,7-16.1,10.1-24.2c1.7-4.4,6.6-6.5,11-4.8c4.4,1.7,6.5,6.6,4.8,11c-3.3,8.3-6.8,16.7-10.4,24.9
						C1790.5,2206.9,1787.4,2208.8,1784.1,2208.8z M1808.8,2143.6c-0.8,0-1.7-0.1-2.5-0.4c-4.5-1.4-7-6.1-5.6-10.6
						c2.6-8.3,5-16.8,7.2-25.2c1.2-4.5,5.8-7.2,10.4-6c4.5,1.2,7.2,5.8,6,10.4c-2.3,8.7-4.8,17.4-7.5,25.9
						C1815.7,2141.2,1812.4,2143.6,1808.8,2143.6z M1825.6,2075.9c-0.5,0-1,0-1.6-0.1c-4.6-0.9-7.6-5.3-6.8-9.9
						c1.6-8.5,3-17.2,4.2-25.9c0.6-4.6,4.9-7.9,9.6-7.2c4.6,0.6,7.9,4.9,7.2,9.6c-1.2,8.9-2.7,17.9-4.4,26.6
						C1833.1,2073.1,1829.6,2075.9,1825.6,2075.9z M1834.3,2006.7c-0.2,0-0.4,0-0.6,0c-4.7-0.3-8.2-4.4-7.9-9
						c0.6-8.6,1-17.4,1.1-26.1c0.1-4.7,4.1-8.5,8.7-8.3c4.7,0.1,8.4,4,8.3,8.7c-0.2,9-0.6,18-1.2,26.9
						C1842.5,2003.3,1838.7,2006.7,1834.3,2006.7z M1834.8,1937c-4.5,0-8.2-3.5-8.5-8c-0.4-8.7-1.1-17.5-1.9-26.1
						c-0.5-4.7,3-8.8,7.6-9.3c4.7-0.5,8.8,3,9.3,7.6c0.9,8.9,1.5,17.9,2,26.9c0.2,4.7-3.4,8.7-8,8.9
						C1835.1,1937,1835,1937,1834.8,1937z M1827.2,1867.8c-4.1,0-7.6-2.9-8.3-7.1c-0.7-3.8-1.3-7.7-2.1-11.5
						c-0.9-4.8-1.9-9.5-2.9-14.2c-1-4.6,1.9-9.1,6.5-10.1c4.6-1,9.1,1.9,10.1,6.5c1,4.8,2,9.7,3,14.6c0.7,4,1.5,7.9,2.1,11.9
						c0.8,4.6-2.3,9-6.9,9.8C1828.1,1867.7,1827.6,1867.8,1827.2,1867.8z M1811.6,1799.9c-3.7,0-7.1-2.4-8.1-6.1
						c-2.4-8.3-5.1-16.7-7.9-25c-1.5-4.4,0.9-9.2,5.3-10.8c4.4-1.5,9.2,0.9,10.8,5.3c2.9,8.5,5.6,17.1,8.1,25.7
						c1.3,4.5-1.3,9.2-5.8,10.5C1813.2,1799.7,1812.4,1799.9,1811.6,1799.9z M1788.2,1734.2c-3.3,0-6.4-1.9-7.8-5.2
						c-3.4-8-7-16-10.8-23.9c-2-4.2-0.2-9.3,4-11.3c4.2-2,9.3-0.2,11.3,4c3.9,8.1,7.6,16.3,11.1,24.6c1.8,4.3-0.2,9.3-4.5,11.1
						C1790.4,1734,1789.3,1734.2,1788.2,1734.2z"/>
					<path class="st9" d="M1049.4,2530.1c-0.9,0-1.8-0.1-2.7-0.5c-4.3-1.5-8.7-3-13-4.6c-4.4-1.6-6.7-6.5-5-10.9
						c1.6-4.4,6.5-6.7,10.9-5c4.2,1.5,8.4,3,12.6,4.5c4.4,1.5,6.8,6.3,5.3,10.8C1056.3,2527.9,1053,2530.1,1049.4,2530.1z"/>
				</g>
				<path class="st14" d="M707,2229.6c-3.1,0-6.1-1.7-7.6-4.7c-4-8.2-7.9-16.6-11.6-25c-1.9-4.3,0.1-9.3,4.4-11.2
					c4.3-1.9,9.3,0.1,11.2,4.4c3.5,8.1,7.3,16.3,11.2,24.3c2.1,4.2,0.3,9.3-3.9,11.3C709.5,2229.3,708.3,2229.6,707,2229.6z
					 M679.5,2163.9c-3.5,0-6.8-2.2-8-5.7c-3-8.6-5.9-17.4-8.5-26.2c-1.3-4.5,1.2-9.2,5.7-10.5c4.5-1.3,9.2,1.2,10.5,5.7
					c2.5,8.5,5.3,17,8.2,25.4c1.5,4.4-0.8,9.3-5.2,10.8C681.4,2163.8,680.5,2163.9,679.5,2163.9z M660.1,2095.5
					c-3.9,0-7.4-2.7-8.3-6.7c-1.3-5.9-2.6-12-3.7-18c-0.6-3-1.1-6-1.6-9c-0.8-4.6,2.3-9,6.9-9.8c4.6-0.8,9,2.3,9.8,6.9
					c0.5,2.9,1,5.8,1.6,8.7c1.1,5.8,2.3,11.7,3.6,17.5c1,4.6-1.9,9.1-6.5,10.1C661.3,2095.4,660.7,2095.5,660.1,2095.5z
					 M648.8,2025.2c-4.3,0-8-3.3-8.4-7.6c-0.9-9.1-1.6-18.3-2.1-27.4c-0.3-4.7,3.3-8.7,8-8.9c4.6-0.2,8.7,3.3,8.9,8
					c0.5,8.8,1.2,17.8,2,26.7c0.5,4.7-2.9,8.8-7.6,9.3C649.4,2025.2,649.1,2025.2,648.8,2025.2z M646,1954.1c-0.1,0-0.1,0-0.2,0
					c-4.7-0.1-8.4-4-8.3-8.6c0.2-9.1,0.6-18.4,1.2-27.5c0.3-4.7,4.4-8.2,9-7.9c4.7,0.3,8.2,4.3,7.9,9c-0.6,8.9-1,17.9-1.2,26.7
					C654.4,1950.4,650.6,1954.1,646,1954.1z M651.8,1883.2c-0.4,0-0.8,0-1.2-0.1c-4.6-0.7-7.9-5-7.2-9.6c1.3-9.1,2.8-18.2,4.5-27.2
					c0.9-4.6,5.3-7.6,9.9-6.8c4.6,0.9,7.6,5.3,6.7,9.9c-1.6,8.7-3.1,17.6-4.4,26.4C659.6,1880.1,655.9,1883.2,651.8,1883.2z
					 M666,1813.4c-0.7,0-1.5-0.1-2.2-0.3c-4.5-1.2-7.2-5.9-6-10.4c2.4-8.8,5-17.7,7.7-26.4c1.4-4.5,6.2-6.9,10.6-5.5
					c4.5,1.4,6.9,6.2,5.5,10.6c-2.7,8.5-5.2,17.1-7.5,25.7C673.2,1810.9,669.8,1813.4,666,1813.4z M688.5,1745.9
					c-1,0-2.1-0.2-3.2-0.6c-4.3-1.7-6.5-6.7-4.7-11c3.4-8.5,7.1-17,10.8-25.3c1.9-4.3,7-6.1,11.2-4.2c4.3,1.9,6.1,7,4.2,11.2
					c-3.7,8-7.2,16.3-10.5,24.6C695.1,1743.9,691.9,1745.9,688.5,1745.9z M718.9,1681.5c-1.4,0-2.8-0.3-4.1-1
					c-4.1-2.2-5.6-7.4-3.4-11.5c4.4-8,9-16.1,13.8-23.8c2.4-4,7.7-5.3,11.6-2.8c4,2.4,5.3,7.7,2.8,11.6c-4.6,7.5-9.1,15.3-13.4,23.2
					C724.8,1679.9,721.9,1681.5,718.9,1681.5z M756.8,1621.2c-1.7,0-3.4-0.5-4.9-1.6c-3.8-2.7-4.7-8-2-11.8
					c5.3-7.4,10.9-14.9,16.5-22c2.9-3.7,8.2-4.3,11.9-1.4c3.7,2.9,4.3,8.2,1.4,11.9c-5.5,7-10.9,14.2-16,21.4
					C762,1620,759.4,1621.2,756.8,1621.2z M801.5,1565.9c-2,0-4.1-0.7-5.7-2.2c-3.5-3.2-3.7-8.5-0.6-12c6.1-6.7,12.5-13.4,19-19.9
					c3.3-3.3,8.7-3.3,12,0c3.3,3.3,3.3,8.7,0,12c-6.3,6.3-12.5,12.8-18.4,19.3C806.1,1565,803.8,1565.9,801.5,1565.9z M852.5,1516.3
					c-2.4,0-4.7-1-6.4-2.9c-3.1-3.5-2.7-8.9,0.9-12c6.9-6,14.1-11.9,21.2-17.5c3.7-2.9,9-2.3,11.9,1.4c2.9,3.7,2.3,9-1.4,11.9
					c-6.9,5.5-13.9,11.2-20.6,17C856.4,1515.6,854.4,1516.3,852.5,1516.3z M909,1473.1c-2.7,0-5.4-1.3-7-3.7
					c-2.6-3.9-1.6-9.2,2.3-11.8c7.6-5.1,15.3-10.1,23.1-14.8c4-2.4,9.2-1.2,11.6,2.8c2.4,4,1.2,9.2-2.8,11.6
					c-7.6,4.6-15.1,9.4-22.5,14.4C912.2,1472.7,910.6,1473.1,909,1473.1z M970.2,1437.1c-3.1,0-6.1-1.7-7.6-4.6
					c-2.1-4.2-0.5-9.3,3.7-11.4c8.1-4.2,16.5-8.2,24.8-11.9c4.3-1.9,9.3,0,11.2,4.2c1.9,4.3,0,9.3-4.2,11.2
					c-8.1,3.7-16.2,7.6-24.1,11.6C972.8,1436.8,971.5,1437.1,970.2,1437.1z M1470.5,1418.3c-1.1,0-2.2-0.2-3.3-0.7
					c-5.5-2.3-11.1-4.6-16.8-6.7c-4.4-1.7-6.6-6.6-4.9-11c1.7-4.4,6.6-6.6,11-4.9c5.8,2.2,11.6,4.6,17.3,6.9
					c4.3,1.8,6.3,6.8,4.5,11.1C1477,1416.3,1473.8,1418.3,1470.5,1418.3z M1035.4,1408.7c-3.5,0-6.7-2.1-8-5.6
					c-1.6-4.4,0.6-9.3,5-10.9c8.6-3.1,17.3-6.1,26-8.9c4.5-1.4,9.2,1.1,10.6,5.5c1.4,4.5-1.1,9.2-5.5,10.6c-8.5,2.7-17,5.6-25.3,8.6
					C1037.4,1408.5,1036.4,1408.7,1035.4,1408.7z M1411.8,1397.2c-0.8,0-1.6-0.1-2.4-0.4c-8.5-2.6-17.1-5-25.8-7.1
					c-4.5-1.1-7.3-5.8-6.1-10.3c1.1-4.5,5.7-7.3,10.3-6.1c8.9,2.2,17.8,4.7,26.5,7.3c4.5,1.4,7,6.1,5.7,10.6
					C1418.8,1394.8,1415.4,1397.2,1411.8,1397.2z M1103.5,1388.2c-3.8,0-7.3-2.6-8.2-6.5c-1.1-4.6,1.7-9.1,6.3-10.2
					c8.8-2.1,17.8-4,26.7-5.7l0.3-0.1c4.6-0.8,9,2.3,9.8,7s-2.4,9-7,9.8c-8.7,1.6-17.4,3.5-26,5.5
					C1104.8,1388.1,1104.2,1388.2,1103.5,1388.2z M1342.6,1380.8c-0.5,0-1,0-1.5-0.1c-8.7-1.5-17.6-2.9-26.4-4
					c-4.6-0.6-7.9-4.8-7.3-9.5c0.6-4.6,4.8-7.9,9.5-7.3c9.1,1.1,18.2,2.5,27.2,4.1c4.6,0.8,7.7,5.2,6.9,9.8
					C1350.2,1377.9,1346.6,1380.8,1342.6,1380.8z M1173.6,1375.9c-4.3,0-7.9-3.2-8.4-7.5c-0.5-4.7,2.8-8.9,7.5-9.4
					c9.1-1,18.3-1.9,27.4-2.5c4.6-0.3,8.7,3.2,9,7.9c0.3,4.7-3.2,8.7-7.9,9c-8.8,0.6-17.8,1.4-26.6,2.4
					C1174.3,1375.9,1174,1375.9,1173.6,1375.9z M1271.8,1372.8c-0.1,0-0.3,0-0.4,0c-8.8-0.5-17.8-0.7-26.7-0.8
					c-4.7,0-8.5-3.8-8.4-8.5c0-4.7,3.8-8.4,8.5-8.4c0,0,0,0,0,0c9.2,0,18.4,0.3,27.5,0.8c4.7,0.2,8.3,4.2,8,8.9
					C1280.1,1369.3,1276.3,1372.8,1271.8,1372.8z"/>
				<g>
					<linearGradient id="SVGID_9_" gradientUnits="userSpaceOnUse" x1="1335.0342" y1="1651.7539" x2="978.9717" y2="2842.0205">
						<stop  offset="0" style="stop-color:#4F52FF"/>
						<stop  offset="1" style="stop-color:#4042E2"/>
					</linearGradient>
					<path class="st15" d="M1505.3,1499.6c-2.9-2.1-6.7-2.1-9.6-0.1l-82.6,57.6c-43.3-18.3-89.9-29.8-138.1-33.4l-47.2-88.9
						c-1.7-3.1-5.1-4.8-8.6-4.3l-119.3,18.7c-3.5,0.5-6.2,3.2-6.9,6.7l-17.7,99.1c-44.8,18.2-85.6,43.4-121.3,74.1l-96.3-29.5
						c-3.4-1-7,0.2-9.1,3l-71.2,97.6c-2.1,2.9-2.1,6.7-0.1,9.6l57.6,82.6c-18.3,43.3-29.8,89.9-33.4,138.1l-88.9,47.2
						c-3.1,1.7-4.8,5.1-4.3,8.6l18.7,119.3c0.5,3.5,3.2,6.2,6.7,6.9l99.1,17.7c18.2,44.8,43.4,85.6,74.1,121.3l-29.5,96.3
						c-1,3.4,0.2,7,3,9.1l97.6,71.2c2.9,2.1,6.7,2.1,9.6,0.1l82.6-57.6c43.3,18.3,89.9,29.8,138.1,33.4l47.2,88.9
						c1.7,3.1,5.1,4.8,8.6,4.3l119.3-18.7c3.5-0.5,6.2-3.2,6.9-6.7l17.7-99.1c44.8-18.2,85.6-43.4,121.3-74.1l96.3,29.5
						c3.4,1,7-0.2,9.1-3l71.2-97.6c2.1-2.9,2.1-6.7,0.1-9.6l-57.6-82.6c18.3-43.3,29.8-89.9,33.4-138.1l88.9-47.2
						c3.1-1.7,4.8-5.1,4.3-8.6l-18.7-119.3c-0.5-3.5-3.2-6.2-6.7-6.9l-99.1-17.7c-18.2-44.8-43.4-85.6-74.1-121.3l29.5-96.3
						c1-3.4-0.2-7-3-9.1L1505.3,1499.6z"/>
					<g>
						<path class="st11" d="M1241.8,2076.2c-43.7,0-85.3-25.6-103.5-68.3c-24.3-57,2.3-123.1,59.3-147.4c27.6-11.8,58.1-12.1,86-0.9
							c27.8,11.2,49.6,32.6,61.4,60.2c11.8,27.6,12.1,58.1,0.9,86c-11.2,27.8-32.6,49.7-60.2,61.4
							C1271.4,2073.3,1256.5,2076.2,1241.8,2076.2z M1241.7,1861.6c-13.6,0-27.2,2.7-40,8.2l0,0c-51.8,22.1-76,82.2-53.9,134.1
							c22.1,51.8,82.2,76,134.1,53.9c25.1-10.7,44.5-30.5,54.7-55.9c10.2-25.3,9.9-53.1-0.8-78.2s-30.5-44.5-55.9-54.7
							C1267.5,1864.1,1254.6,1861.6,1241.7,1861.6z M1199.6,1865.1L1199.6,1865.1L1199.6,1865.1z"/>
					</g>
					<path class="st11" d="M1240.2,2262.6c-143.4,0-269.9-104.6-292.8-250.7c-2.4-15.5-3.6-30.9-3.6-46.1
						c0-143.4,104.6-269.9,250.6-292.8l0,0c17.3-2.7,34.8-3.9,52.2-3.6c3.6,0.1,7.3,0.2,10.9,0.4c2.7,0.2,4.8,2.4,4.8,5.1
						c0,0.1,0,0.2,0,0.3c-0.2,2.8-2.4,4.9-5.4,4.8c-20.2-1.2-40.7-0.1-60.9,3c-16,2.5-31.5,6.3-46.4,11.3
						c-113.2,37.8-191.4,143-195.4,261.8c-0.1,3.2-0.2,6.4-0.2,9.6c0,14.7,1.1,29.6,3.5,44.6c22.1,141,144.3,242,282.8,242.1
						c14.7,0,29.6-1.1,44.5-3.5c141-22.1,242-144.2,242.1-282.8c0-14.7-1.1-29.6-3.5-44.6c-8-51.3-29.8-99.4-62.9-139
						c-0.8-1-1.2-2.1-1.2-3.3c0-1.5,0.6-2.9,1.8-3.9c2.2-1.8,5.4-1.5,7.2,0.6c34.3,41.1,56.8,90.8,65.1,143.9
						c2.4,15.5,3.6,30.9,3.6,46.1c0,143.4-104.6,269.9-250.7,292.8C1270.8,2261.4,1255.4,2262.6,1240.2,2262.6z"/>
				</g>
			</g>
		</g>
		<g>
			<g>
				
					<linearGradient id="SVGID_10_" gradientUnits="userSpaceOnUse" x1="59.9626" y1="2108.7703" x2="260.544" y2="2640.3118" gradientTransform="matrix(1 0 0 1 2234.1582 0)">
					<stop  offset="0" style="stop-color:#FEBBBA"/>
					<stop  offset="1" style="stop-color:#FF928E"/>
				</linearGradient>
				<path class="st16" d="M2241.9,2200.8l39.4,38.9c55.9-5.4,99.1-22.8,132.2-44.9c-19.9-49.6-40.2-79-56.1-96.2
					C2305.4,2171.9,2241.9,2200.8,2241.9,2200.8z"/>
				
					<linearGradient id="SVGID_11_" gradientUnits="userSpaceOnUse" x1="8264.4707" y1="1970.1639" x2="8129.3613" y2="2519.6116" gradientTransform="matrix(-1 0 0 1 10675.0469 0)">
					<stop  offset="0" style="stop-color:#FE7062"/>
					<stop  offset="1" style="stop-color:#FF928E"/>
				</linearGradient>
				<path class="st17" d="M2516.3,2055.4l-93-145.4c-6.1,82-33.8,143.7-65.8,188.7c15.9,17.2,36.1,46.6,56.1,96.2
					C2496.2,2139.7,2516.3,2055.4,2516.3,2055.4z"/>
			</g>
			
				<linearGradient id="SVGID_12_" gradientUnits="userSpaceOnUse" x1="8577.5615" y1="3164.593" x2="8776.7012" y2="3164.593" gradientTransform="matrix(-1 0 0 1 11267.6006 0)">
				<stop  offset="0" style="stop-color:#4F52FF"/>
				<stop  offset="1" style="stop-color:#4042E2"/>
			</linearGradient>
			<path class="st18" d="M2615.2,3204.7c-46.4,2.1-91.3,0.8-121.2-0.7c27.3-19.4,90.1-61.7,142.8-78.5l36.1-2.2
				c0,0,12.2,18.6,16.6,61.2C2683.4,3192,2665.9,3202.4,2615.2,3204.7z"/>
			
				<linearGradient id="SVGID_13_" gradientUnits="userSpaceOnUse" x1="8677.1318" y1="2472.2329" x2="8677.1318" y2="2766.0972" gradientTransform="matrix(-1 0 0 1 11267.6006 0)">
				<stop  offset="0" style="stop-color:#09005D"/>
				<stop  offset="1" style="stop-color:#1A0F91"/>
			</linearGradient>
			<path class="st19" d="M2493.6,3204.3c0.1-0.1,0.3-0.2,0.4-0.3c30,1.5,74.9,2.9,121.2,0.7c50.8-2.3,68.3-12.7,74.2-20.2
				c0.2,2,0.4,3.9,0.6,6c0.8,9.3-6.2,17.6-15.5,18.3c-38,2.9-132.1,9.4-177.5,7C2490.9,3215.4,2488.7,3207.7,2493.6,3204.3z"/>
			
				<linearGradient id="SVGID_14_" gradientUnits="userSpaceOnUse" x1="8222.748" y1="3165.0898" x2="8315.9932" y2="3165.0898" gradientTransform="matrix(-1 0 0 1 11267.6006 0)">
				<stop  offset="0" style="stop-color:#4F52FF"/>
				<stop  offset="1" style="stop-color:#4042E2"/>
			</linearGradient>
			<path class="st20" d="M2951.8,3192.3c3.4-21.8,8.8-53.2,13-61.3c6.6-12.6,29.2,0,29.2,0s15.9,7.4,23.2,19.7
				c4.7,7.9,17.5,30.2,26.2,45.4c1,1.7,1.4,3.6,1.4,5.4l-90.5,3.2C2952.2,3201.2,2951.1,3196.9,2951.8,3192.3z"/>
			
				<linearGradient id="SVGID_15_" gradientUnits="userSpaceOnUse" x1="8267.9902" y1="2472.2341" x2="8267.9902" y2="2766.0981" gradientTransform="matrix(-1 0 0 1 11267.6006 0)">
				<stop  offset="0" style="stop-color:#09005D"/>
				<stop  offset="1" style="stop-color:#1A0F91"/>
			</linearGradient>
			<path class="st21" d="M3044.8,3201.6c-0.2,5.2-4.2,9.9-10,10l-64.5,1.8c-6.8,0.2-12.7-3.4-16-8.6L3044.8,3201.6z"/>
			
				<linearGradient id="SVGID_16_" gradientUnits="userSpaceOnUse" x1="7671.938" y1="3102.4189" x2="7728.4307" y2="3102.4189" gradientTransform="matrix(-1 0 0 1 10675.0469 0)">
				<stop  offset="0" style="stop-color:#FEBBBA"/>
				<stop  offset="1" style="stop-color:#FF928E"/>
			</linearGradient>
			<path class="st22" d="M2946.9,3066.1c3.3-24.7,47.6-14.7,47.6-14.7c0.1,2.7,5.9,60.2,8.5,85.5c0.7,7-3.4,13.5-9.7,15.3
				c-3.4,1-7.5,2-11.8,2.9c-7.6,1.5-15.2-3.1-17.8-11C2956.8,3123.7,2944.5,3084,2946.9,3066.1z"/>
			
				<linearGradient id="SVGID_17_" gradientUnits="userSpaceOnUse" x1="8587.6904" y1="3096.8472" x2="8638.1172" y2="3096.8472" gradientTransform="matrix(-1 0 0 1 11267.6006 0)">
				<stop  offset="0" style="stop-color:#FEBBBA"/>
				<stop  offset="1" style="stop-color:#FF928E"/>
			</linearGradient>
			<path class="st23" d="M2679.9,3074.9c-5-0.2,2,25.9-5.6,51.5c-1.7,5.8-6,10.3-12.1,10.4c-3.9,0-8.5,0-13.2-0.4
				c-7.1-0.6-12.7-6-13.4-13.1l-6.2-66.4L2679.9,3074.9z"/>
			
				<linearGradient id="SVGID_18_" gradientUnits="userSpaceOnUse" x1="533.3159" y1="2948.4221" x2="548.3589" y2="2020.7327" gradientTransform="matrix(1 0 0 1 2234.1582 0)">
				<stop  offset="0" style="stop-color:#4F52FF"/>
				<stop  offset="1" style="stop-color:#4042E2"/>
			</linearGradient>
			<path class="st24" d="M2539.7,2369c2.2,10.9,81.2,471.7,86,710.1c0.1,4,3,7.4,7,7.9c10,1.4,29.6,3.2,48.5-0.3
				c2.6-0.5,4.5-2.6,4.7-5.2c2.8-44.4,25-420.1-2.2-596.9c0,0,224.6,472.7,258.7,603.1c0.8,3.2,3.7,5.3,7,5.1
				c9.6-0.5,29.6-2.2,45.5-8.1c5.7-2.1,8.9-8.1,7.5-14c-19-78-152.3-615.5-242.8-733.9L2539.7,2369z"/>
			
				<linearGradient id="SVGID_19_" gradientUnits="userSpaceOnUse" x1="8713.083" y1="2321.6001" x2="8506.6982" y2="2588.4263" gradientTransform="matrix(-1 0 0 1 11267.6006 0)">
				<stop  offset="0" style="stop-color:#4F52FF"/>
				<stop  offset="1" style="stop-color:#4042E2"/>
			</linearGradient>
			<path class="st25" d="M2683.6,2487.4c0.7,0,1.5-0.3,2.1-0.8c1.2-1.1,1.2-3,0-4.2l-30.1-30.8c-1.1-1.2-3-1.2-4.2,0
				c-1.2,1.1-1.2,3,0,4.2l30.1,30.8C2682.1,2487.1,2682.9,2487.4,2683.6,2487.4z"/>
			
				<linearGradient id="SVGID_20_" gradientUnits="userSpaceOnUse" x1="-79.4454" y1="126.0631" x2="-156.0075" y2="-216.2148" gradientTransform="matrix(1 0 0 1 2234.1582 0)">
				<stop  offset="0" style="stop-color:#FE7062"/>
				<stop  offset="1" style="stop-color:#FF928E"/>
			</linearGradient>
			<path class="st26" d="M2411.3,1792.1c57.7-15.1,164.1-38.8,248.8-33.7c19.5,1.2,35.1,16.5,36.2,36
				c12.8,225.6,30.3,425.9,63.2,542.4c-74,29.3-147.4,42.9-219.8,32.2c-54.2-116.2-101.7-250.3-142.2-402.6c0,0-23.8-121.5-0.7-162
				C2400.4,1798.1,2405.1,1793.7,2411.3,1792.1z"/>
			
				<linearGradient id="SVGID_21_" gradientUnits="userSpaceOnUse" x1="8738.2441" y1="1842.9535" x2="8763.0869" y2="1689.7572" gradientTransform="matrix(-1 0 0 1 11267.6006 0)">
				<stop  offset="0" style="stop-color:#FEBBBA"/>
				<stop  offset="1" style="stop-color:#FF928E"/>
			</linearGradient>
			<path class="st27" d="M2550,1634.1c0,0,14.6,86.9,18.9,127.1c0.7,6.5-2.7,12.7-8.6,15.7c-15.9,8.2-49.9,21.4-87,9.3
				c-6.1-2-10.1-7.9-10-14.3l2.5-116L2550,1634.1z"/>
			<g>
				<linearGradient id="SVGID_22_" gradientUnits="userSpaceOnUse" x1="2678.322" y1="2174.8149" x2="2945.0601" y2="1724.9762">
					<stop  offset="0" style="stop-color:#09005D"/>
					<stop  offset="1" style="stop-color:#1A0F91"/>
				</linearGradient>
				<path class="st28" d="M3130.6,2305.5l38,9.6c65.1,16.5,109,65.4,97.9,109.3l-13.2,52.2c-11.1,43.9-72.9,66.2-138.1,49.7l-38-9.6
					c-2.5-0.6-5-1.3-7.5-2.1l-1113.2-333.1l28.8-113.8L3123,2303.7C3125.5,2304.3,3128,2304.9,3130.6,2305.5z M3114.2,2357.6
					c-49-12.4-94.8,1.2-102.1,30.3c-7.4,29.1,26.4,62.8,75.5,75.2c49,12.4,94.8-1.2,102.1-30.3
					C3197.1,2403.7,3163.3,2370,3114.2,2357.6z"/>
				<linearGradient id="SVGID_23_" gradientUnits="userSpaceOnUse" x1="1968.8519" y1="1754.1268" x2="2235.5894" y2="1304.2889">
					<stop  offset="0" style="stop-color:#09005D"/>
					<stop  offset="1" style="stop-color:#1A0F91"/>
				</linearGradient>
				<path class="st29" d="M1615.1,1913.3l220.3,55.7c15.7,4,28.6,15,35.1,29.8l33,76.1c9.4,21.7,3,47.1-15.6,61.7l-65.2,51.3
					c-12.7,10-29.3,13.5-45,9.6l-220.3-55.7c-33.2-8.4-61.5,26.3-45.8,56.8c37.5,72.9,106.4,130.5,194,152.7
					c158.4,40,298.6-55.9,337.1-208.3c38.5-152.4-39.2-303.4-197.7-343.5c-87.6-22.2-175.6-4.1-243.3,42.2
					C1573.5,1860.9,1581.9,1904.9,1615.1,1913.3z"/>
				
					<linearGradient id="SVGID_24_" gradientUnits="userSpaceOnUse" x1="-3812.2419" y1="2311.5598" x2="-3274.2468" y2="1807.4714" gradientTransform="matrix(0.2451 -0.9695 0.9695 0.2451 4243.6582 4675.627)">
					<stop  offset="0" style="stop-color:#09005D"/>
					<stop  offset="1" style="stop-color:#1A0F91"/>
				</linearGradient>
				<path class="st30" d="M1609.8,1934l220.3,55.7c15.7,4,28.6,15,35.1,29.8l33,76.1c9.4,21.7,3,47.1-15.6,61.7l-65.2,51.3
					c-12.7,10-29.3,13.5-45,9.6l-220.3-55.7c-33.2-8.4-61.5,26.3-45.8,56.8c37.5,72.9,106.4,130.5,194,152.7
					c158.4,40,298.6-55.9,337.1-208.3s-39.2-303.4-197.7-343.5c-87.6-22.2-175.6-4.1-243.3,42.2
					C1568.3,1881.7,1576.6,1925.6,1609.8,1934z"/>
				
					<linearGradient id="SVGID_25_" gradientUnits="userSpaceOnUse" x1="-2361.6697" y1="2448.2441" x2="-1823.6726" y2="1944.1541" gradientTransform="matrix(0.2451 -0.9695 1.2017 0.3038 3999.0588 4613.8496)">
					<stop  offset="0" style="stop-color:#09005D"/>
					<stop  offset="1" style="stop-color:#1A0F91"/>
				</linearGradient>
				<path class="st31" d="M3126.4,2322l38,9.6c65.1,16.5,109,65.4,97.9,109.3l-13.2,52.2c-11.1,43.9-72.9,66.2-138.1,49.7l-38-9.6
					c-2.5-0.6-5-1.3-7.5-2.1l-1113.2-333.1l28.8-113.8l1137.8,235.9C3121.3,2320.8,3123.9,2321.4,3126.4,2322z M3110,2374.2
					c-49-12.4-94.8,1.2-102.1,30.3c-7.4,29.1,26.4,62.8,75.5,75.2c49,12.4,94.8-1.2,102.1-30.3
					C3192.9,2420.2,3159.1,2386.6,3110,2374.2z"/>
			</g>
			<g>
				
					<linearGradient id="SVGID_26_" gradientUnits="userSpaceOnUse" x1="190.5817" y1="65.6686" x2="114.0195" y2="-276.6093" gradientTransform="matrix(1 0 0 1 2234.1582 0)">
					<stop  offset="0" style="stop-color:#FEBBBA"/>
					<stop  offset="1" style="stop-color:#FF928E"/>
				</linearGradient>
				<path class="st32" d="M2845.6,2092.6c28.5,80,12.5,165.9,12.5,165.9l37.6,10c0,0,48.6-57.8,37.5-186
					C2898.4,2077.2,2865.9,2085.3,2845.6,2092.6z"/>
				
					<linearGradient id="SVGID_27_" gradientUnits="userSpaceOnUse" x1="137.2616" y1="77.5908" x2="60.6995" y2="-264.6871" gradientTransform="matrix(1 0 0 1 2234.1582 0)">
					<stop  offset="0" style="stop-color:#FE7062"/>
					<stop  offset="1" style="stop-color:#FF928E"/>
				</linearGradient>
				<path class="st33" d="M2933.1,2082.5c-1.2-14.4-3.2-29.7-6.1-45.9c-25.4-141.4-206.7-250.2-249.4-274c-4-2.2-8.8,0.8-8.7,5.3
					l6.1,192.3c101,13.6,148.8,71.4,170.6,132.5C2865.9,2085.3,2898.4,2077.2,2933.1,2082.5z"/>
			</g>
			
				<linearGradient id="SVGID_28_" gradientUnits="userSpaceOnUse" x1="-81.1118" y1="2162.0056" x2="119.4702" y2="2693.5486" gradientTransform="matrix(1 0 0 1 2234.1582 0)">
				<stop  offset="0" style="stop-color:#FEBBBA"/>
				<stop  offset="1" style="stop-color:#FF928E"/>
			</linearGradient>
			<path class="st34" d="M2162.6,2271.4c-7-1.9-12.8-7-15.8-13.6c-5.8-12.9-12.3-33.7,1.6-40c20.7-9.4,58.3,29.1,58.3,29.1
				l18.4,29.8l16.8,8.2C2226.5,2289.1,2196.9,2282,2162.6,2271.4z"/>
			
				<linearGradient id="SVGID_29_" gradientUnits="userSpaceOnUse" x1="547.7658" y1="2190.197" x2="776.0282" y2="2519.9087" gradientTransform="matrix(1 0 0 1 2234.1582 0)">
				<stop  offset="0" style="stop-color:#FEBBBA"/>
				<stop  offset="1" style="stop-color:#FF928E"/>
			</linearGradient>
			<path class="st35" d="M2860.5,2239.7H2814c0,0,37.7,22.6,39,46.4c1.3,23.8-15,73.1-22.6,86.5c-8.3,14.7,105.3-21.8,65.2-132.9
				H2860.5z"/>
			<g>
				
					<linearGradient id="SVGID_30_" gradientUnits="userSpaceOnUse" x1="-4193.5063" y1="-2564.5547" x2="-4352.6621" y2="-2354.0042" gradientTransform="matrix(-0.877 -0.4804 -0.4804 0.877 -2442.9348 1770.4822)">
					<stop  offset="0" style="stop-color:#FEBBBA"/>
					<stop  offset="1" style="stop-color:#FF928E"/>
				</linearGradient>
				<path class="st36" d="M2439.8,1520.1c-1,1.8-22.6,138.9-22.6,138.9l78.5,10.7l39.8-126.8
					C2535.5,1542.8,2456.7,1489.3,2439.8,1520.1z"/>
				
					<linearGradient id="SVGID_31_" gradientUnits="userSpaceOnUse" x1="-4315.0571" y1="-2513.991" x2="-4124.9434" y2="-2513.991" gradientTransform="matrix(-0.877 -0.4804 -0.4804 0.877 -2442.9348 1770.4822)">
					<stop  offset="0" style="stop-color:#09005D"/>
					<stop  offset="1" style="stop-color:#1A0F91"/>
				</linearGradient>
				<path class="st37" d="M2506.4,1555.5c2.2,2.7,3.1,6.3,2.3,9.8l-15.5,67.4c-0.2,1-0.6,2-1.1,2.9c-2.8,5.1-13,20.4-28.5,9.1
					c-13.2-9.7-25.5-18.4-36.1-20.2c-6.2-1-12.1,3.3-13,9.6c-2,12.9-5.5,38.9-5.3,62.5c0,5.9,4.7,10.8,10.6,11.2
					c15.5,1.1,46,2.3,71.2-2.2c4.1-0.7,7.5-3.7,8.8-7.7c5.7-17.6,22.1-66.8,28.8-79.9c6.3-12.2,24.5-14.3,32.9-14.6
					c3.2-0.1,6.2-1.5,8.3-3.9c6.3-7.3,16.1-23.4-2.8-39.2c-4.7-3.9-5.3-11-1.4-15.8c6.9-8.6,12.8-22.4-1.9-37
					c-14.9-14.7-31.7-11-42.4-6c-4.7,2.2-10.5,1.2-13.9-2.7c-1.5-1.8-3.7-3-7-2.6c-6.2,0.7-11.8-3.4-12.5-9.6
					c-1.3-10.6-7-23.1-25.8-26.7c-34.5-6.6-51.6,28-50.9,52.3c0.7,24.3,38.5,29.3,59.9,25.2
					C2486.6,1534.1,2500.3,1547.9,2506.4,1555.5z"/>
				
					<linearGradient id="SVGID_32_" gradientUnits="userSpaceOnUse" x1="2114.9114" y1="2394.6091" x2="2513.1479" y2="2244.2258" gradientTransform="matrix(0.9799 -0.1995 0.1995 0.9799 -126.1536 -228.6171)">
					<stop  offset="0" style="stop-color:#FEBBBA"/>
					<stop  offset="1" style="stop-color:#FF928E"/>
				</linearGradient>
				<path class="st38" d="M2522.5,1642.7c0,0,0.6-42.3,17.7-46.3c17.1-4,35.6,8.3,21,33.7
					C2543.1,1661.6,2522.5,1642.7,2522.5,1642.7z"/>
			</g>
		</g>
	</g>
</g>
</svg>
