<?xml version="1.0" encoding="utf-8"?>
<!-- Generator: Adobe Illustrator 24.3.0, SVG Export Plug-In . SVG Version: 6.00 Build 0)  -->
<svg version="1.1" id="Layer_1" xmlns="http://www.w3.org/2000/svg" xmlns:xlink="http://www.w3.org/1999/xlink" x="0px" y="0px"
	 viewBox="0 0 91.9 102.8" style="enable-background:new 0 0 91.9 102.8;" xml:space="preserve">
<style type="text/css">
	.st0{fill:#066069;}
</style>
<g id="Group_14" transform="translate(0 0)">
	<g id="Group_1" transform="translate(14.493)">
		<path id="Path_29" class="st0" d="M56.6,61.8l-23.3,9.6l6.3,2.6l23.3-9.6l-5.4-13l5.4-13l-11.1-4.6l2.6,6.3l2.2,0.9l-4.3,10.4
			L56.6,61.8z"/>
		<path id="Path_30" class="st0" d="M41.9,26.2l9.6,23.3l2.6-6.3l-9.6-23.3l-13,5.4l-13-5.4l-4.6,11.1l6.3-2.6l0.9-2.2l10.4,4.3
			L41.9,26.2z"/>
		<path id="Path_31" class="st0" d="M6.3,41l23.3-9.6l-6.3-2.6L0,38.4l5.4,13L0,64.4L11.1,69l-2.6-6.3l-2.2-0.9l4.3-10.4L6.3,41z"/>
		<path id="Path_32" class="st0" d="M21,76.5l-9.6-23.3l-2.6,6.3l9.6,23.3l13-5.4l13,5.4l4.6-11.1l-6.3,2.6l-0.9,2.2l-10.4-4.3
			L21,76.5z"/>
		<path id="Path_33" class="st0" d="M41.9,38.2c0.3,0,0.6,0,0.9,0c2.9,7.6,1.8,16.2-3,22.8c-1.7,0-3.4-0.2-5.1-0.5
			C41,54.9,43.8,46.4,41.9,38.2z"/>
		<path id="Path_34" class="st0" d="M35.1,65.8c-4.3,3.3-9.5,5.1-14.9,5.1l-2.1-5c3.3,0.3,6.7-0.2,9.8-1.4
			C30.3,65.2,32.7,65.7,35.1,65.8z"/>
		<path id="Path_35" class="st0" d="M44.6,61.8c0,0.3,0,0.6,0,0.9c-7.6,2.9-16.2,1.8-22.8-3c0-1.7,0.2-3.4,0.5-5.1
			C27.9,61,36.5,63.7,44.6,61.8z"/>
		<path id="Path_36" class="st0" d="M17.1,55.1c-3.3-4.3-5.1-9.5-5.1-14.9l5-2.1c-0.3,3.3,0.2,6.7,1.4,9.8
			C17.6,50.2,17.2,52.6,17.1,55.1z"/>
		<path id="Path_37" class="st0" d="M18.3,41c0-0.3,0-0.6,0-0.9c7.6-2.9,16.2-1.8,22.8,3c0,1.7-0.2,3.4-0.5,5.1
			C35,41.8,26.4,39.1,18.3,41z"/>
		<path id="Path_38" class="st0" d="M45.8,47.7c3.3,4.3,5.1,9.5,5.1,14.9l-5,2.1c0.3-3.3-0.2-6.7-1.4-9.8
			C45.3,52.6,45.7,50.1,45.8,47.7z"/>
		<path id="Path_39" class="st0" d="M21,64.6c-0.3,0-0.6,0-0.9,0c-2.9-7.6-1.8-16.2,3-22.8c1.7,0,3.4,0.2,5.1,0.5
			C21.9,47.9,19.1,56.4,21,64.6z"/>
		<path id="Path_40" class="st0" d="M27.8,37c4.3-3.3,9.5-5.1,14.9-5.1l2.1,5c-3.3-0.3-6.7,0.2-9.8,1.4C32.6,37.5,30.2,37.1,27.8,37
			z"/>
	</g>
</g>
</svg>
