<?xml version="1.0" encoding="utf-8"?>
<!-- Generator: Adobe Illustrator 24.3.0, SVG Export Plug-In . SVG Version: 6.00 Build 0)  -->
<svg version="1.1" xmlns="http://www.w3.org/2000/svg" xmlns:xlink="http://www.w3.org/1999/xlink" x="0px" y="0px"
	 viewBox="0 0 500 500" style="enable-background:new 0 0 500 500;" xml:space="preserve">
<style type="text/css">
	.st0{opacity:0.3;}
	.st1{fill:none;stroke:#2C54AC;stroke-width:0.97;stroke-miterlimit:10;stroke-dasharray:4.0072,4.0072;}
	.st2{opacity:0.25;fill:#9DDCF9;}
	.st3{opacity:0.39;}
	.st4{fill:#2C54AC;}
	.st5{fill:#55A3F3;}
	.st6{fill:none;stroke:#55A3F3;stroke-width:0.7771;stroke-miterlimit:10;}
	.st7{opacity:0.4;}
	.st8{fill:none;stroke:#55A3F3;stroke-width:4.3452;stroke-miterlimit:10;}
	.st9{fill:#9DDCF9;}
	.st10{fill:#FF675D;}
	.st11{fill:none;stroke:#FFFFFF;stroke-miterlimit:10;stroke-dasharray:4;}
	.st12{fill:none;stroke:#2C54AC;stroke-miterlimit:10;}
	.st13{fill:none;stroke:#2C54AC;stroke-miterlimit:10;stroke-dasharray:3.9532,3.9532;}
	.st14{fill:#FFFFFF;}
	.st15{fill:#FF4648;}
	.st16{fill:#FF8775;}
	.st17{fill:#73C3FF;}
	.st18{fill:#0A2A6B;}
	.st19{fill:#FF5748;}
	.st20{opacity:0.6;fill:#FF675D;}
	.st21{opacity:0.2;}
</style>
<g id="BACKGROUND">
	<g class="st0">
		<path class="st1" d="M218.76,50.82c-14.82,12.59-24.93,29.7-37.3,44.71c-14.8,17.96-33.06,33.06-53.47,44.24
			c-21.64,11.85-45.7,19.36-65.87,33.59c-33.69,23.76-53.2,66.24-49.28,107.28c3.93,41.04,31.14,79.05,68.72,95.98
			c12.79,5.77,26.58,9.22,39.06,15.63c40.95,21.02,64.29,71.57,109.07,82.22c24.41,5.81,50.67-2.24,70.9-17.08
			c20.23-14.84,35.14-35.84,47.35-57.75c11.78-21.14,22.74-44.9,44.13-56.22c14.89-7.88,32.6-8.34,48.29-14.47
			c33.39-13.04,52.53-51.73,48.81-87.39c-3.72-35.66-26.92-67.26-56.39-87.69c-17.71-12.28-38.14-21.47-51.96-38.01
			c-9.07-10.86-14.61-24.14-21.78-36.33C331.27,32.26,262.35,13.79,218.76,50.82z"/>
	</g>
	<path class="st2" d="M245.8,48.62c-16.31,10.59-28.54,26.26-42.73,39.55c-16.98,15.91-37.03,28.55-58.71,37.02
		c-22.99,8.98-47.81,13.34-69.63,24.86c-36.46,19.24-61.26,58.87-62.63,100.07c-1.37,41.2,20.75,82.39,55.85,104
		c11.95,7.36,25.18,12.56,36.73,20.51c37.91,26.1,54.58,79.22,97.62,95.53c23.46,8.89,50.54,4.27,72.5-7.85
		c21.97-12.12,39.44-31.03,54.36-51.2c14.39-19.45,28.31-41.62,50.97-50.09c15.78-5.9,33.4-4.09,49.75-8.15
		c34.79-8.65,58.73-44.57,59.62-80.41c0.89-35.84-18.08-70.15-44.68-94.19c-15.99-14.45-35.08-26.19-46.65-44.36
		c-7.6-11.93-11.4-25.81-16.94-38.83C359.76,44.63,293.78,17.48,245.8,48.62z"/>
</g>
<g id="OBJECTS">
	<g class="st3">
		<g>
			<path class="st4" d="M463.89,80.37h13.94c1.98,0,3.59-1.61,3.59-3.59v-11.3c0-1.98-1.61-3.59-3.59-3.59h-13.94
				c-1.98,0-3.59,1.61-3.59,3.59v11.3C460.31,78.76,461.91,80.37,463.89,80.37z"/>
			<path class="st5" d="M455.7,84.75h9.86c1.44,0,2.6-1.16,2.6-2.6v-8.42c0-1.44-1.16-2.6-2.6-2.6h-9.86c-1.44,0-2.6,1.17-2.6,2.6
				v8.42C453.1,83.59,454.26,84.75,455.7,84.75z"/>
		</g>
		<g>
			<path class="st4" d="M270.38,442.56h9.77c1.39,0,2.51-1.13,2.51-2.51v-7.92c0-1.39-1.13-2.51-2.51-2.51h-9.77
				c-1.39,0-2.51,1.13-2.51,2.51v7.92C267.87,441.44,268.99,442.56,270.38,442.56z"/>
			<path class="st5" d="M264.64,445.63h6.9c1.01,0,1.82-0.82,1.82-1.82v-5.9c0-1.01-0.82-1.82-1.82-1.82h-6.9
				c-1.01,0-1.82,0.82-1.82,1.82v5.9C262.82,444.82,263.64,445.63,264.64,445.63z"/>
		</g>
		<g>
			<path class="st4" d="M56.54,219.52H73.2c2.37,0,4.29,1.92,4.29,4.29v13.5c0,2.37-1.92,4.29-4.29,4.29H56.54
				c-2.37,0-4.29-1.92-4.29-4.29v-13.5C52.26,221.44,54.17,219.52,56.54,219.52z"/>
			<path class="st5" d="M46.76,214.28h11.77c1.72,0,3.11,1.39,3.11,3.11v10.06c0,1.72-1.39,3.11-3.11,3.11H46.76
				c-1.72,0-3.11-1.39-3.11-3.11v-10.06C43.65,215.68,45.04,214.28,46.76,214.28z"/>
		</g>
	</g>
	<g transform="translate(0,-952.3622)">
		<path class="st4" d="M168.03,1312.27l-1.05,3.66c-0.97,0.26-1.88,0.64-2.74,1.11l-3.38-1.85l-3.02,2.98l1.88,3.33
			c-0.48,0.84-0.86,1.75-1.13,2.7l-3.71,1.04v4.22l3.71,1.04c0.27,0.95,0.64,1.86,1.13,2.7l-1.88,3.33l3.02,2.98l3.38-1.85
			c0.85,0.48,1.77,0.85,2.74,1.11l1.05,3.66h4.28l1.05-3.66c0.97-0.26,1.88-0.64,2.74-1.11l3.38,1.85l3.02-2.98l-1.88-3.33
			c0.48-0.84,0.86-1.75,1.13-2.7l3.71-1.04v-4.22l-3.71-1.04c-0.27-0.95-0.64-1.86-1.13-2.7l1.88-3.33l-3.02-2.98l-3.38,1.85
			c-0.85-0.48-1.77-0.85-2.74-1.11l-1.05-3.66H168.03z M178.15,1327.35c0,4.34-3.59,7.88-7.99,7.88c-4.4,0-7.99-3.54-7.99-7.88
			c0-4.34,3.59-7.88,7.99-7.88C174.57,1319.47,178.15,1323.01,178.15,1327.35z"/>
	</g>
	<g transform="translate(0,-952.3622)">
		<path class="st6" d="M195.48,1274.75l-1.48,5.16c-1.36,0.37-2.65,0.9-3.85,1.57l-4.76-2.61l-4.25,4.2l2.65,4.7
			c-0.68,1.18-1.22,2.46-1.59,3.8l-5.23,1.46v5.95l5.23,1.46c0.37,1.34,0.91,2.62,1.59,3.8l-2.65,4.7l4.25,4.2l4.76-2.61
			c1.2,0.67,2.49,1.2,3.85,1.57l1.48,5.16h6.03l1.48-5.16c1.36-0.37,2.65-0.9,3.85-1.57l4.76,2.61l4.25-4.2l-2.65-4.7
			c0.68-1.18,1.22-2.46,1.59-3.8l5.23-1.46v-5.95l-5.23-1.46c-0.37-1.34-0.91-2.62-1.59-3.8l2.65-4.7l-4.25-4.2l-4.76,2.61
			c-1.2-0.67-2.49-1.2-3.85-1.57l-1.48-5.16H195.48z M209.75,1296.01c0,6.12-5.06,11.11-11.25,11.11c-6.2,0-11.25-4.99-11.25-11.11
			s5.06-11.11,11.25-11.11C204.69,1284.9,209.75,1289.89,209.75,1296.01z"/>
	</g>
	<g class="st7">
		<polyline class="st8" points="89.59,45.68 99.61,55.69 124.74,30.56 		"/>
		<polyline class="st8" points="60.08,45.68 70.1,55.69 95.23,30.56 		"/>
	</g>
	<g class="st7">
		<polyline class="st8" points="361.13,470.94 371.15,480.95 396.28,455.82 		"/>
		<polyline class="st8" points="331.62,470.94 341.64,480.95 366.77,455.82 		"/>
	</g>
	<g>
		<g>
			<g>
				<path class="st9" d="M147.21,183.59H41.29c-6.37,0-11.54-5.17-11.54-11.54v-70.53c0-6.37,5.17-11.54,11.54-11.54h105.92
					c6.37,0,11.54,5.17,11.54,11.54v70.53C158.74,178.43,153.58,183.59,147.21,183.59z"/>
				<polygon class="st9" points="106.37,180.51 94.25,208.3 82.12,180.51 				"/>
			</g>
			<path class="st10" d="M93.94,171.78l-1.69-1.12c-1.42-0.94-34.82-23.35-34.68-43.34c0.1-14.22,10.26-21.59,20.24-21.52
				c6.38,0.04,12.34,3.06,16.53,8.24c4.25-5.11,10.26-8.05,16.65-8.01c9.98,0.07,20.04,7.58,19.94,21.8
				c-0.14,19.99-33.84,41.93-35.28,42.86L93.94,171.78z"/>
		</g>
	</g>
	<g>
		<g transform="translate(0,-952.3622)">
			<path class="st5" d="M183.02,979.4l-3.83,13.35c-3.51,0.96-6.86,2.32-9.96,4.06l-12.29-6.75l-10.99,10.85l6.84,12.14
				c-1.76,3.06-3.14,6.36-4.11,9.83l-13.52,3.79v15.38l13.52,3.79c0.97,3.47,2.35,6.77,4.11,9.83l-6.84,12.14l10.99,10.85
				l12.29-6.75c3.1,1.74,6.45,3.1,9.96,4.06l3.83,13.35h15.58l3.83-13.35c3.52-0.96,6.86-2.32,9.96-4.06l12.3,6.75l10.99-10.85
				l-6.84-12.14c1.76-3.06,3.14-6.36,4.11-9.83l13.52-3.79v-15.38l-13.52-3.79c-0.97-3.47-2.35-6.77-4.11-9.83l6.84-12.14
				l-10.99-10.85l-12.3,6.75c-3.1-1.74-6.45-3.1-9.96-4.06l-3.83-13.35H183.02z M190.81,1005.63c16.02,0,29.09,12.9,29.09,28.71
				c0,15.81-13.07,28.71-29.09,28.71s-29.09-12.9-29.09-28.71C161.72,1018.54,174.79,1005.63,190.81,1005.63z"/>
		</g>
		<ellipse class="st11" cx="190.81" cy="81.99" rx="36.62" ry="36.15"/>
	</g>
	<g>
		<g transform="translate(0,-952.3622)">
			<path class="st12" d="M445.14,1364.8l-2.17,7.56c-1.99,0.54-3.89,1.31-5.64,2.3l-6.96-3.82l-6.22,6.14l3.87,6.87
				c-1,1.73-1.78,3.6-2.33,5.57l-7.66,2.14v8.71l7.66,2.14c0.55,1.96,1.33,3.84,2.33,5.57l-3.87,6.87l6.22,6.14l6.96-3.82
				c1.76,0.99,3.65,1.76,5.64,2.3l2.17,7.56h8.82l2.17-7.56c1.99-0.54,3.89-1.31,5.64-2.3l6.96,3.82l6.22-6.14l-3.87-6.87
				c1-1.73,1.78-3.6,2.33-5.57l7.66-2.14v-8.71l-7.66-2.14c-0.55-1.96-1.33-3.84-2.33-5.57l3.87-6.87l-6.22-6.14l-6.96,3.82
				c-1.76-0.99-3.65-1.76-5.64-2.3l-2.17-7.56H445.14z M449.55,1379.66c9.07,0,16.47,7.31,16.47,16.26c0,8.95-7.4,16.26-16.47,16.26
				s-16.47-7.31-16.47-16.26C433.08,1386.96,440.48,1379.66,449.55,1379.66z"/>
		</g>
		<g>
			<ellipse class="st13" cx="449.55" cy="443.55" rx="21.54" ry="21.27"/>
		</g>
	</g>
	<g>
		<g>
			<g>
				<g>
					<path class="st4" d="M476.79,285.17c0-4.24-3.44-7.69-7.69-7.69H343.46c-4.24,0-7.69,3.44-7.69,7.69v4.43h141.01V285.17z"/>
					<path class="st9" d="M335.78,289.61v95.93c0,4.24,3.44,7.69,7.69,7.69H469.1c4.24,0,7.69-3.44,7.69-7.69v-95.93H335.78z"/>
				</g>
				<path class="st5" d="M445.84,283.55c0,1.58-1.28,2.86-2.86,2.86c-1.58,0-2.86-1.28-2.86-2.86c0-1.58,1.28-2.86,2.86-2.86
					C444.56,280.68,445.84,281.97,445.84,283.55z"/>
				<path class="st14" d="M457.27,283.55c0,1.58-1.28,2.86-2.86,2.86c-1.58,0-2.86-1.28-2.86-2.86c0-1.58,1.28-2.86,2.86-2.86
					C455.99,280.68,457.27,281.97,457.27,283.55z"/>
				<path class="st15" d="M468.7,283.55c0,1.58-1.28,2.86-2.86,2.86c-1.58,0-2.86-1.28-2.86-2.86c0-1.58,1.28-2.86,2.86-2.86
					C467.42,280.68,468.7,281.97,468.7,283.55z"/>
			</g>
		</g>
		<g>
			<path class="st16" d="M427.1,331.83h-22.29c-1.16,0-2.18-0.78-2.49-1.9c-0.31-1.12,0.17-2.31,1.17-2.9
				c9.71-5.74,14.75-12.43,15.42-20.46c0.23-2.79,2.71-5.01,5.53-4.98c2.88,0.05,5.57,1.2,7.59,3.25c2.02,2.05,3.13,4.76,3.13,7.64
				c0,0,0,0,0,0v0.87c0,7.03-2.08,11.51-5.92,17.32C428.77,331.4,427.96,331.83,427.1,331.83z"/>
			<path class="st16" d="M454.41,334.75c0-4.45-3.62-8.07-8.07-8.07h-41.52c-0.46,0-0.91,0.12-1.31,0.36
				c-2.91,1.72-5.86,3.14-8.22,4.28c-0.82,0.4-1.6,0.77-2.31,1.13c-0.87,0.44-1.42,1.33-1.42,2.3v32.98c0,0.98,0.55,1.87,1.42,2.3
				c10.41,5.2,19.07,5.83,29.16,5.83c1.56,0,3.16-0.02,4.8-0.03c1.82-0.02,3.7-0.04,5.67-0.04h8.15c4.45,0,8.07-3.62,8.07-8.07
				c0-1.5-0.41-2.9-1.12-4.1c2.32-1.42,3.87-3.98,3.87-6.89c0-1.5-0.41-2.9-1.12-4.1c2.32-1.42,3.87-3.98,3.87-6.89
				c0-2.09-0.8-4-2.11-5.44C453.62,338.8,454.41,336.84,454.41,334.75z"/>
			<path id="SVGCleanerId_0" class="st17" d="M385.67,362.27v13.57h-5.15v-13.57c0-1.42,1.15-2.58,2.58-2.58
				C384.51,359.69,385.67,360.85,385.67,362.27z"/>
			<g>
				<path id="SVGCleanerId_0_1_" class="st17" d="M385.67,362.27v13.57h-5.15v-13.57c0-1.42,1.15-2.58,2.58-2.58
					C384.51,359.69,385.67,360.85,385.67,362.27z"/>
			</g>
			<path class="st4" d="M394.08,326.68H372.1c-1.42,0-2.58,1.15-2.58,2.58v43.97c0,1.42,1.15,2.58,2.58,2.61h16.49
				c3.16-0.03,5.9-1.86,7.22-4.5c0.54-1.08,0.85-2.31,0.85-3.6v-38.48C396.66,327.83,395.5,326.68,394.08,326.68z"/>
			<path class="st18" d="M385.67,362.1v13.74h-5.15V362.1c0-1.42,1.15-2.58,2.58-2.58C384.51,359.52,385.67,360.67,385.67,362.1z"/>
		</g>
	</g>
	<g>
		<path class="st4" d="M342.53,389.52l-22.77,12.72c-4.54,2.53-10.25,1.24-13.25-3l-77.76-109.89l49.11-27.43l58.58,104.89
			c1.12,2,2.88,3.57,5,4.44h0C349.31,374.49,349.96,385.37,342.53,389.52z"/>
		<path class="st18" d="M339.02,391.48l-22.77,12.72c-4.54,2.53-10.25,1.24-13.25-3l-77.76-109.89l49.11-27.43l58.58,104.89
			c1.12,2,2.88,3.57,5,4.44l0,0C345.8,376.45,346.45,387.33,339.02,391.48z"/>
		
			<ellipse transform="matrix(0.8731 -0.4876 0.4876 0.8731 -103.1926 120.0629)" class="st5" cx="178.99" cy="258.22" rx="21.52" ry="58.89"/>
		<g>
			<path class="st9" d="M312.36,56.78c-27.9,52.15-69.33,95.73-119.85,126.22c-4.47,11.12,1.09,35.04,14.72,59.45
				c13.63,24.41,31.08,41.68,42.9,43.71c52.46-27.02,111.29-39.44,170.33-35.85l3.64,0.22L314.08,53.56L312.36,56.78z"/>
			<path class="st5" d="M207.23,242.45c-13.63-24.41-19.19-48.33-14.72-59.45c-3.16,1.91-6.35,3.77-9.58,5.57l-32.65,18.24
				l57.43,102.82l32.65-18.24c3.23-1.8,6.49-3.55,9.77-5.24C238.31,284.13,220.86,266.85,207.23,242.45z"/>
		</g>
		<g class="st0">
			<path class="st5" d="M280.58,294.84l-18.37,10.26c-1.25,0.7-2.84,0.25-3.54-1l0,0c-0.7-1.25-0.25-2.84,1-3.54l18.37-10.26
				c1.25-0.7,2.84-0.25,3.54,1v0C282.28,292.56,281.84,294.14,280.58,294.84z"/>
			<path class="st5" d="M285.61,303.83l-18.37,10.26c-1.25,0.7-2.84,0.25-3.54-1l0,0c-0.7-1.25-0.25-2.84,1-3.54l18.37-10.26
				c1.25-0.7,2.84-0.25,3.54,1l0,0C287.31,301.55,286.86,303.13,285.61,303.83z"/>
			<path class="st5" d="M290.63,312.82l-18.37,10.26c-1.25,0.7-2.84,0.25-3.54-1l0,0c-0.7-1.25-0.25-2.84,1-3.54l18.37-10.26
				c1.25-0.7,2.84-0.25,3.54,1l0,0C292.33,310.54,291.88,312.12,290.63,312.82z"/>
			<path class="st5" d="M295.65,321.81l-18.37,10.26c-1.25,0.7-2.84,0.25-3.54-1l0,0c-0.7-1.25-0.25-2.84,1-3.54l18.37-10.26
				c1.25-0.7,2.84-0.25,3.54,1l0,0C297.35,319.53,296.9,321.11,295.65,321.81z"/>
			<path class="st5" d="M300.67,330.8l-18.37,10.26c-1.25,0.7-2.84,0.25-3.53-1l0,0c-0.7-1.25-0.25-2.84,1-3.54l18.37-10.26
				c1.25-0.7,2.84-0.25,3.54,1l0,0C302.37,328.52,301.92,330.1,300.67,330.8z"/>
			<path class="st5" d="M305.69,339.79l-18.37,10.26c-1.25,0.7-2.84,0.25-3.54-1l0,0c-0.7-1.25-0.25-2.84,1-3.54l18.37-10.26
				c1.25-0.7,2.84-0.25,3.54,1l0,0C307.39,337.51,306.95,339.09,305.69,339.79z"/>
			<path class="st5" d="M310.71,348.78l-18.37,10.26c-1.25,0.7-2.84,0.25-3.54-1l0,0c-0.7-1.25-0.25-2.84,1-3.54l18.37-10.26
				c1.25-0.7,2.84-0.25,3.54,1l0,0C312.42,346.5,311.97,348.08,310.71,348.78z"/>
			<path class="st5" d="M315.74,357.77l-18.37,10.26c-1.25,0.7-2.84,0.25-3.54-1l0,0c-0.7-1.25-0.25-2.84,1-3.54l18.37-10.26
				c1.25-0.7,2.84-0.25,3.54,1l0,0C317.44,355.49,316.99,357.07,315.74,357.77z"/>
			<path class="st5" d="M320.76,366.77l-18.37,10.26c-1.25,0.7-2.84,0.25-3.54-1l0,0c-0.7-1.25-0.25-2.84,1-3.54l18.37-10.26
				c1.25-0.7,2.84-0.25,3.54,1l0,0C322.46,364.48,322.01,366.07,320.76,366.77z"/>
		</g>
		<g class="st0">
			<path class="st5" d="M315.6,219.3c-50.86,14.58-98.34,39.49-141.57,70.07c12.81,15.92,26.13,24.48,33.69,20.27l21.86-12.21
				L303,401.2c3,4.24,8.72,5.54,13.25,3l22.77-12.72c0,0,0,0,0,0l3.51-1.96c7.42-4.15,6.78-15.03-1.08-18.27
				c-2.12-0.87-3.88-2.44-5-4.44l-53.29-95.41c43.57-16.67,90.37-23.95,137.29-21.09l3.64,0.22l-0.05-0.1
				c5.8,1.2,11,0.71,15.33-1.71c10.1-5.64,13.76-20.73,11.62-40.97C405.87,202.07,359.42,206.74,315.6,219.3z"/>
		</g>
		
			<ellipse transform="matrix(0.8731 -0.4876 0.4876 0.8731 -22.3121 204.4364)" class="st5" cx="381.48" cy="145.07" rx="45.28" ry="118.72"/>
		
			<ellipse transform="matrix(0.8731 -0.4876 0.4876 0.8731 -22.312 204.4368)" class="st18" cx="381.48" cy="145.07" rx="40.48" ry="109.91"/>
		<g>
			<path class="st4" d="M422.77,96.2l-18.42,8.76c4.29,6.4,8.48,13.21,12.48,20.37c1.02,1.82,2,3.63,2.97,5.45l16.37-10.61
				c6.08-3.94,8.06-11.93,4.53-18.25h0C437.15,95.59,429.31,93.09,422.77,96.2z"/>
			<path class="st4" d="M404.34,104.96l-71.12,33.81c3.7,8.53,8.01,17.27,12.91,26.04c1.89,3.39,3.83,6.71,5.8,9.94l67.85-43.97
				c-0.96-1.81-1.95-3.63-2.97-5.45C412.82,118.17,408.64,111.36,404.34,104.96z"/>
		</g>
	</g>
	<g>
		<polygon class="st18" points="130.45,392.25 200.2,414.96 244.2,357.79 259.52,369.63 208.83,452.08 124.35,433.3 		"/>
		<path class="st16" d="M80.33,351.54c0.06,8.81,0.4,17.36,0.9,26.16c4.87,6.81,11.54,12.63,19.57,15.01
			c5.65,1.68,11.69,1.59,17.54,0.9c5.18-0.61,10.13-1.95,14.37-5c-2.4-3.75-4.85-7.63-5.69-12c-0.54-2.85-1.02-32.04-1.02-32.04
			s13.28-3.67,18.28-6.6c1.52-0.89,3.1-1.89,3.88-3.47c0.76-1.53,0.62-3.34,0.4-5.04c-0.4-3.1-1.01-6.21-1.85-9.22
			c-5.73-0.54-10.77-2.79-15.22-6.44c4.1-0.12,8.36-0.63,12.36-1.54c-0.78-1.45-1.26-3.13-1.82-4.68c3.07-3.52,6.21-7.13,9.02-10.87
			c-5.76-2.94-11.58-6.4-17.04-9.87c-2.31-5.76-5.37-11.21-9.07-16.19c-1.56-2.09-4.4-3.13-6.93-3.73
			c-5.34-1.27-11.05-0.6-16.14,1.46c-5.09,2.05-9.58,5.44-13.31,9.47c-6.61,7.13-10.91,16.38-12.11,26.03
			c-0.85,6.79-0.19,13.68,0.64,20.47C78.21,333.49,80.27,342.33,80.33,351.54z"/>
		<path class="st18" d="M124.94,271.44c0,0-18.06,9.82-28.41,9.68c1.01,3.47,2.42,6.82,3.82,10.15c2.65,6.29,4.89,12.34,7.54,18.63
			c-2.3,1.16-4.78,1.97-7.25,2.71c-1.85-4.28-3.84-8.76-5.68-13.04c-3.87-0.95-8.1,1.65-9.57,5.36c-1.47,3.71-0.47,8.11,1.95,11.27
			c1.36,1.77,3.16,3.23,5.27,3.95c2.31,0.79,5,0.5,7.43,0.36c4.09,13.13,2.23,27.46-5.24,39c0.3-3.73,0.12-7.54-1.1-11.07
			c-2.45,7.24-6.68,13.46-12.7,18.16c-0.38-7.43-3.74-14.43-8.01-20.53c-4.28-6.09-9.48-11.46-14.19-17.23s-9-12.08-10.98-19.26
			c-1.99-7.17-1.88-15.96,2.52-21.97c-3.54-3.58-3.84-9.55-1.64-14.07c2.21-4.53,6.48-7.75,11.05-9.87
			c4.57-2.12,9.51-3.27,14.33-4.76c7.02-2.16,13.81-5.05,20.24-8.59c5.42-2.99,10.83-6.53,17-7.1c4.58-0.43,9.15,0.84,13.42,2.52
			c5.9,2.32,11.94,5.95,14.06,11.93c1.73,4.87,0,10.04-2.5,14.57c0.14-3.4-0.47-7.2-2.27-10.09c0.67,5.45-0.44,11.72-4.52,15.39
			C127.71,274.5,124.94,271.44,124.94,271.44z"/>
		<path class="st5" d="M154.27,500c0,0-1.4-53.91-6.44-76.03c-5.04-22.11-17.25-38.81-17.25-38.81l-15.48,3.59L130.41,500H154.27z"
			/>
		<path class="st18" d="M46.57,500L81,366.6c0,0,28.19,4.74,39.67,19.02c11.48,14.28,16.31,29.93,16.31,29.93l55.35,24.66
			l66.44-51.82l15.45,21.68l-75.74,60.09l-59.01-12.88l5.27,42.71H46.57z"/>
		<g>
			<path class="st9" d="M250.13,395.14l-14.33,11.42l-14.36,11.37c-9.57,7.58-19.19,15.11-28.81,22.64l-0.22,0.17l-0.25-0.11
				l-24.83-10.52l-24.81-10.58l-24.77-10.67l-24.72-10.78l24.93,10.28l24.89,10.39l24.85,10.48l24.82,10.55l-0.47,0.06
				c9.64-7.5,19.29-14.99,28.98-22.43l14.53-11.16L250.13,395.14z"/>
		</g>
		<g>
			<path class="st9" d="M139.48,457.29c-3.42-0.61-6.8-1.34-10.19-2.07c-3.39-0.73-6.76-1.53-10.13-2.33
				c-3.36-0.83-6.73-1.65-10.07-2.56l-5.02-1.36c-1.66-0.49-3.34-0.94-4.99-1.46c1.71,0.3,3.4,0.66,5.11,0.99l5.08,1.09
				c3.39,0.73,6.76,1.53,10.13,2.33c3.36,0.83,6.73,1.66,10.07,2.56C132.82,455.36,136.16,456.27,139.48,457.29z"/>
		</g>
		<polygon class="st18" points="126.01,344.57 115.1,347.51 126.1,349.8 		"/>
		<path class="st18" d="M128.04,293.58c0,1.64-1.33,2.97-2.97,2.97c-1.64,0-2.97-1.33-2.97-2.97c0-1.64,1.33-2.97,2.97-2.97
			C126.71,290.6,128.04,291.93,128.04,293.58z"/>
		<g>
			<path class="st18" d="M113.47,294.1c-0.3-1.97-0.12-4.04,0.42-6.04c0.29-1,0.66-1.99,1.14-2.94c0.49-0.94,1.08-1.85,1.75-2.7
				c0.68-0.85,1.38-1.71,2.19-2.49c0.81-0.77,1.79-1.35,2.85-1.68c2.12-0.64,4.5-0.68,6.56,0.56l0.04,0.5
				c-1.75,1.53-3.13,2.5-4.48,3.48c-0.67,0.48-1.36,0.86-2.11,1.2c-0.76,0.33-1.52,0.71-2.18,1.23c-0.66,0.52-1.28,1.11-1.85,1.76
				c-0.59,0.64-1.13,1.34-1.61,2.09c-0.99,1.5-1.72,3.21-2.21,5.07L113.47,294.1z"/>
		</g>
		<g>
			<path class="st19" d="M98.18,317.58c-1.6-0.41-3.33-0.89-4.36-2.19c-0.36-0.45-0.62-1.03-0.53-1.6c0.14-0.94,1.14-1.5,2.07-1.69
				c0.82-0.16,1.68-0.14,2.49,0.06c-0.62-1.97-1.51-3.86-2.64-5.59c-0.7-1.07-1.55-2.13-2.73-2.63c-1.06-0.45-2.32-0.38-3.33,0.18
				c-1.01,0.56-1.73,1.6-1.91,2.74c0,0-1.11,3.9,2.99,8.36C94.34,319.68,98.18,317.58,98.18,317.58z"/>
			<g>
				<path class="st18" d="M87.25,306.87c0.09-1.42,1.11-2.8,2.55-3.3c0.71-0.25,1.5-0.3,2.26-0.13c0.76,0.16,1.46,0.56,2.02,1.06
					c1.12,1.03,1.87,2.28,2.57,3.53c0.7,1.26,1.25,2.6,1.67,3.98l0.25,0.82l-0.83-0.2c-0.88-0.22-1.87-0.24-2.72,0.02
					c-0.85,0.26-1.58,0.88-1.36,1.72c0.2,0.84,0.97,1.55,1.77,2.05c0.83,0.51,1.8,0.82,2.75,1.16c-0.99-0.16-1.99-0.37-2.94-0.79
					c-0.48-0.21-0.93-0.49-1.32-0.86c-0.39-0.36-0.74-0.81-0.92-1.38c-0.19-0.56-0.07-1.27,0.32-1.75c0.37-0.49,0.89-0.78,1.42-0.97
					c1.06-0.35,2.16-0.38,3.23-0.13l-0.58,0.62c-0.43-1.31-0.97-2.59-1.61-3.81c-0.67-1.2-1.35-2.45-2.29-3.37
					c-0.9-0.95-2.25-1.39-3.54-1.04C88.67,304.38,87.59,305.49,87.25,306.87z"/>
			</g>
		</g>
		<path class="st20" d="M129.96,306.57c0.41,1.77-1.77,3.78-4.88,4.5c-3.11,0.72-5.96-0.12-6.37-1.89c-0.41-1.76,1.77-3.78,4.88-4.5
			C126.7,303.96,129.55,304.81,129.96,306.57z"/>
		<g class="st21">
			<g>
				<path class="st9" d="M134.33,262.44c-0.65-1.95-1.9-3.62-3.35-5.03c-1.46-1.4-3.1-2.64-4.83-3.68c-1.73-1.04-3.6-1.86-5.57-2.19
					c-1.97-0.35-3.98-0.1-5.84,0.61c-1.87,0.7-3.59,1.76-5.3,2.86c-1.7,1.12-3.42,2.25-5.18,3.3c-3.52,2.11-7.19,4-11.01,5.51
					c-3.83,1.5-7.85,2.57-11.9,3.2c-4.05,0.66-8.1,1.14-12.01,2.18c-3.88,1.05-7.7,2.75-10.52,5.66c-2.8,2.84-4.56,6.96-3.88,11.04
					c-0.46-2-0.28-4.12,0.38-6.08c0.65-1.96,1.75-3.77,3.14-5.3c2.84-3.07,6.73-4.9,10.66-6.07c3.96-1.18,8.06-1.63,12.07-2.33
					c4.01-0.65,7.92-1.74,11.69-3.23c3.78-1.46,7.41-3.3,10.91-5.37c1.76-1.03,3.45-2.13,5.18-3.25c1.72-1.11,3.52-2.17,5.51-2.86
					c1.97-0.7,4.15-0.92,6.21-0.51c2.06,0.4,3.98,1.29,5.71,2.39c1.73,1.13,3.33,2.43,4.76,3.91
					C132.59,258.7,133.78,260.46,134.33,262.44z"/>
			</g>
			<g>
				<path class="st9" d="M127.43,274.51c1.24-1.46,1.94-3.32,2.03-5.21c0.13-1.89-0.28-3.78-1.06-5.48
					c-0.79-1.69-1.97-3.22-3.48-4.29c-1.49-1.09-3.36-1.62-5.15-1.25c-1.8,0.34-3.45,1.28-4.99,2.36c-1.55,1.07-3.01,2.29-4.44,3.55
					c-2.86,2.51-5.66,5.2-9.08,7.14c-1.7,0.96-3.57,1.64-5.48,2.06c-1.91,0.41-3.85,0.59-5.78,0.63c-3.86,0.1-7.68-0.26-11.47-0.19
					c-3.77,0.08-7.63,0.62-10.92,2.51c-3.32,1.85-5.63,5.06-7.87,8.12c2.06-3.18,4.27-6.47,7.62-8.54
					c3.35-2.04,7.32-2.68,11.14-2.85c3.86-0.19,7.68,0.2,11.47,0.05c3.78-0.1,7.56-0.78,10.8-2.66c3.28-1.83,6.07-4.45,8.97-6.95
					c1.45-1.25,2.94-2.48,4.55-3.57c1.58-1.1,3.36-2.08,5.35-2.4c2-0.37,4.1,0.3,5.65,1.5c1.58,1.19,2.78,2.81,3.55,4.61
					c0.74,1.8,1.08,3.77,0.87,5.7C129.57,271.26,128.75,273.13,127.43,274.51z"/>
			</g>
			<g>
				<path class="st9" d="M99.23,281.1l-8.24,0.65c-2.74,0.25-5.48,0.48-8.21,0.76c-2.74,0.26-5.47,0.57-8.2,0.85l-8.21,0.96
					c1.33-0.37,2.68-0.66,4.03-0.96c1.35-0.27,2.71-0.52,4.07-0.76c2.72-0.47,5.46-0.81,8.21-1.09c2.75-0.26,5.5-0.46,8.26-0.53
					C93.71,280.91,96.47,280.91,99.23,281.1z"/>
			</g>
			<g>
				<path class="st9" d="M72.7,288.06c1.98,1.26,3.62,3.05,4.87,5.07c1.24,2.03,2.09,4.28,2.66,6.58c0.61,2.3,0.8,4.69,0.84,7.06
					c0.07,2.38-0.18,4.75-0.58,7.09c-0.89,4.66-2.62,9.17-5.12,13.19c-1.26,2.01-2.73,3.87-4.31,5.62c-1.64,1.7-3.42,3.26-5.33,4.61
					c3.59-3.02,6.65-6.61,8.98-10.63c2.32-4.02,4.01-8.41,4.8-12.97c0.42-2.27,0.69-4.58,0.65-6.9c0-2.31-0.21-4.63-0.68-6.89
					c-0.47-2.26-1.21-4.48-2.34-6.51C76.06,291.33,74.54,289.51,72.7,288.06z"/>
			</g>
			<g>
				<path class="st9" d="M63.65,290.85c0.77,1.38,1.36,2.85,1.86,4.36c0.46,1.52,0.78,3.09,0.97,4.67c0.38,3.17,0.14,6.42-0.68,9.52
					c-0.83,3.1-2.23,6.04-4.14,8.6c-0.95,1.28-2.01,2.48-3.16,3.57c-1.18,1.07-2.42,2.06-3.78,2.87c1.22-0.99,2.39-2.05,3.43-3.21
					c1.06-1.14,2.03-2.37,2.88-3.67c1.7-2.59,3.02-5.43,3.8-8.42c0.8-2.98,1.07-6.1,0.88-9.2C65.51,296.85,64.8,293.78,63.65,290.85
					z"/>
			</g>
			<g>
				<path class="st9" d="M49.37,313.66c1.51-1.49,2.82-3.13,3.88-4.92c1.04-1.79,1.88-3.7,2.43-5.69c0.57-1.98,0.87-4.05,0.92-6.12
					l-0.02-1.56l-0.14-1.56l-0.22-1.56c-0.12-0.51-0.23-1.03-0.33-1.55c0.21,0.49,0.4,0.98,0.59,1.48l0.45,1.54l0.28,1.58l0.16,1.61
					c0.13,2.15-0.15,4.33-0.73,6.41c-0.6,2.07-1.51,4.07-2.74,5.83l-0.98,1.28l-1.07,1.2l-1.19,1.07
					C50.22,313.03,49.8,313.35,49.37,313.66z"/>
			</g>
		</g>
		<g>
			<path class="st16" d="M258.78,388.39l21.4-21.72l13.29,19.68c0,0-5.86,5.76-13.61,9.11c-7.74,3.35-12.99,4.29-12.99,4.29
				L258.78,388.39z"/>
			<path class="st16" d="M280.27,366.91c6.3-4.95,13.13-9.8,21.05-11.07c0.59-0.09,1.21-0.17,1.77,0.05c0.55,0.22,1,0.83,0.83,1.4
				c-0.07,0.23-0.22,0.42-0.39,0.58c-0.6,0.55-1.31,0.97-2.03,1.35c-6.7,3.5-13.09,7.59-19.07,12.21c7.9-3.63,15.7-7.25,24.36-8.05
				c1.33-0.12,2.74-0.16,3.95,0.4c0.31,0.15,0.64,0.37,0.7,0.71c0.09,0.48-0.36,0.87-0.76,1.13c-3.6,2.32-7.86,3.33-11.92,4.69
				c-4.73,1.58-9.29,3.69-13.56,6.27c9.34-3.11,18.23-5.95,28.04-6.77c0.16-0.01,0.32-0.03,0.48-0.04c1.54-0.1,2.34,1.87,1.15,2.86
				c-0.86,0.72-1.86,1.29-2.81,1.66c-1.64,0.63-3.32,1.13-5.03,1.51c-1.11,0.24-2.24,0.43-3.34,0.75c-1.16,0.34-2.28,0.83-3.39,1.31
				c-3.81,1.66-7.62,3.32-11.43,4.98c7.61-2.69,15.3-4.38,23.36-4.66c0.52-0.02,0.82,0.58,0.88,1.1c0.06,0.52-0.24,1.03-0.65,1.36
				c-0.39,0.31-0.88,0.49-1.36,0.64c-2.39,0.75-4.87,1.21-7.38,1.25c-2.86,0.06-5.55,1.91-8.07,3.26c-1.27,0.68-2.6,1.47-4.04,1.4
				c-1.05,0.23-2.41,0.05-3.38-0.41c-3.27-1.54-5.96-4.3-7.41-7.61c-1.46-3.31-1.67-7.15-0.59-10.61"/>
		</g>
		<polygon class="st16" points="244.2,357.79 260.52,341.16 274.23,360.5 259.52,369.63 		"/>
		<path class="st16" d="M244.2,357.79c0,0,5.11-12.01,9.24-15.13c4.13-3.12,14.34-6.24,15.95-5.54c1.61,0.71,0.15,5.5-3.28,7.52
			c-3.42,2.01-6.9,4.47-6.9,4.47L244.2,357.79z"/>
		<g>
			<path class="st18" d="M263.93,345.97c-1.81,1.28-3.73,2.31-5.69,3.28l0.28-0.46c0.03,1.09-0.03,2.17-0.19,3.25
				c-0.08,0.54-0.19,1.08-0.35,1.61c-0.16,0.52-0.35,1.06-0.69,1.5c0.12-0.53,0.16-1.06,0.18-1.59c0.03-0.53,0.04-1.05,0.04-1.58
				l0.01-3.17l0-0.33l0.28-0.13C259.79,347.44,261.8,346.58,263.93,345.97z"/>
		</g>
	</g>
	<g>
		<g>
			<polygon class="st9" points="384.84,25.02 335.74,93.06 379.85,21.69 			"/>
		</g>
		<g>
			<polygon class="st9" points="460.03,23.68 339.43,117.65 456.25,19.02 			"/>
		</g>
		<g>
			<polygon class="st9" points="467.54,190.2 382.19,201.1 466.58,184.28 			"/>
		</g>
		<g>
			<polygon class="st9" points="487.73,134.53 364.48,183.8 485.38,129.01 			"/>
		</g>
	</g>
</g>
</svg>
