<?xml version="1.0" encoding="utf-8"?>
<!-- Generator: Adobe Illustrator 24.3.0, SVG Export Plug-In . SVG Version: 6.00 Build 0)  -->
<svg version="1.1" xmlns="http://www.w3.org/2000/svg" xmlns:xlink="http://www.w3.org/1999/xlink" x="0px" y="0px"
	 viewBox="0 0 500 500" style="enable-background:new 0 0 500 500;" xml:space="preserve">
<style type="text/css">
	.st0{fill:#DDECFF;}
	.st1{fill:#60A8FF;}
	.st2{fill:#223A7A;}
	.st3{fill:#FFFFFF;}
	.st4{fill:#1C83FF;}
	.st5{fill:#FF9D8C;}
	.st6{fill:#8593B6;}
	.st7{fill:#8E9BBB;}
	.st8{fill:#DEE1EB;}
	.st9{fill:#818FB3;}
	.st10{fill:#6BAEFF;}
	.st11{fill:#43588E;}
	.st12{fill:#F6F7FA;}
	.st13{fill:#D9DEE8;}
	.st14{fill:#596B9B;}
	.st15{fill:#7A89AF;}
	.st16{fill:#BDC4D7;}
	.st17{fill:#6F7FA9;}
	.st18{fill:#9CA6C3;}
	.st19{fill:#D2E6FF;}
	.st20{fill:#FF5F42;}
	.st21{font-family:'Quicksand-Bold';}
	.st22{font-size:12px;}
	.st23{fill:#67ACFF;}
</style>
<g id="BACKGROUND">
	<path class="st0" d="M107.5,384.3c0,0-54.6-38.9-70.3-105.1c-15.7-66.2,8.3-146.5,53.8-187c45.5-40.6,127.4-13.2,163.9,20.7
		s36.4,33.9,36.4,33.9s34.8,19,80.3,17.4c45.5-1.7,86.1,60.4,96.8,109.2s-14.9,113.4-14.9,113.4L107.5,384.3z"/>
	<path class="st0" d="M82.6,394.2c0,0-38.1-20.7-48-68.7s33.1-91.9,37.2-115.9c4.1-24-5-53.8,33.1-77
		c38.1-23.2,105.9-14.9,131.6-20.7c25.7-5.8,55.4-45.5,106.8-36.4c51.3,9.1,101,36.4,103.4,96c2.5,59.6-16.6,61.2,2.5,93.5
		c19,32.3,26.5,54.6,17.4,87.7c-9.1,33.1-28.1,42.2-28.1,42.2L82.6,394.2z"/>
	<path class="st0" d="M162.1,383.4c-2.4-2.5-37.1-72,1.6-135.7c38.7-63.7,135.8-56.3,174.5-31.4s57.6,57.1,61.6,91
		c3.9,33.9-22.1,86.9-22.1,86.9L162.1,383.4z"/>
</g>
<g id="OBJECTS">
	<g>
		<g>
			<path class="st1" d="M434.5,266.4h-44.6c-2.8,0-5-2.2-5-5v-22.3c0-2.8,2.2-5,5-5h44.6c2.8,0,5,2.2,5,5v22.3
				C439.5,264.2,437.2,266.4,434.5,266.4z"/>
			<polygon class="st1" points="412.2,279 419.2,262.3 405.1,262.3 			"/>
		</g>
		<g>
			<g>
				<g>
					<polygon class="st2" points="412,244.7 424.8,244.7 424.8,246.6 431,243 424.8,239.4 424.8,241.2 412,241.2 					"/>
				</g>
				<g>
					<polygon class="st3" points="431,252.1 418.2,252.1 418.2,250.2 412,253.8 418.2,257.4 418.2,255.5 431,255.5 					"/>
				</g>
			</g>
			<g>
				<path class="st2" d="M404.1,255.4l-0.6,0.2c0,0-1.9-2.2-2.9-4.5c-1-2.4-1-5.2-1-5.2l0.4-0.2l-2.7-6.5c-0.5,0.4-0.9,0.9-1.3,1.5
					c-1.5,2.6-1.4,6.5,0.2,10.4c1.5,3.9,3.2,7.3,6.2,9.5c1.8,1.3,3.3,1.5,4.5,1.3L404.1,255.4z"/>
				<path class="st2" d="M406.1,254.6l-0.8,0.3l2.8,6.6c0.3-0.1,0.6-0.2,0.8-0.4c0.7-0.4,1-1.2,0.7-2l-1.4-3.6
					C407.8,254.7,406.9,254.3,406.1,254.6z"/>
				<path class="st2" d="M399.5,238c-0.3,0.1-0.7,0.3-1.1,0.5l2.8,6.6l0.9-0.4c0.8-0.3,1.2-1.3,0.9-2.1l-1.5-3.7
					C401.2,238.2,400.3,237.7,399.5,238z"/>
			</g>
		</g>
	</g>
	<g>
		<path class="st4" d="M149.2,372.3v-74.5c0,0-0.8-20.1,9.7-25.9s55-2.7,55-2.7v103H149.2z"/>
	</g>
	<g>
		<g>
			<path class="st5" d="M227.9,199.5c0,0-2.7,22.6-3.7,24.4c-1,1.9-1,1.9-1,1.9l-5.2,3.5c0,0,9.9,14.1,22.1,16.3
				c12.2,2.3,11.2-5,11.2-5l-1.9-3.9l2.5-21.5C251.9,215.2,229.7,205.1,227.9,199.5z"/>
		</g>
		<path class="st3" d="M211.5,231.2l8.1-3.5c0,0,5.2,8.5,17.2,13.4s12.2,2.1,12.8,0c0.6-2.1-0.2-4.3-0.2-4.3l0.9-7.2l4.8,1.6
			l16.7,134.7l-42.8,2.1L211.5,231.2z"/>
		<g>
			<path class="st2" d="M251,229.6c0,0,2.9,6.7,5.6,22.4c2.7,15.7,5.2,42.2,5.8,60.4s1,59.8,1,59.8s53.4,0,54,0s4.3-20.5,4.3-20.5
				s-23.6-20.2-24.8-23.5c-0.8-2.2-0.4-43.1-3.9-61.9c-3.5-18.8-8.1-22.6-17.6-27.3C265.6,234.2,251,229.6,251,229.6z"/>
		</g>
		<g>
			<path class="st6" d="M279.2,348.6c-0.3,0-0.5-0.2-0.5-0.5c0-1.5-0.3-22.5-0.5-42.8c-0.3-20.3-0.5-41.3-0.5-42.8
				c0-0.3,0.2-0.5,0.5-0.5s0.5,0.2,0.5,0.5c0,1.5,0.3,22.5,0.5,42.8c0.3,20.3,0.5,41.3,0.5,42.8
				C279.7,348.3,279.5,348.6,279.2,348.6z"/>
		</g>
		<g>
			<path class="st2" d="M171.6,343.5l-0.4,28.8h62.9c0,0,2.7-24.4,1.7-26.7C234.7,343.3,171.6,343.5,171.6,343.5z"/>
		</g>
		<g>
			<path class="st7" d="M241.6,223.3c2.6,2.1,6.1,3.7,8.8,4.7l1.5-12.8c0,0-16.6-7.6-22.3-13.3C230.8,208.4,233.7,216.9,241.6,223.3
				z"/>
		</g>
		<g>
			<path class="st5" d="M271.3,157.5c0,0,4.3,7.4,5.2,16.6c0.8,9.1,0,32.5-7.4,42.4c-7.4,9.9-23,7-30,1
				c-6.5-5.5-12.8-11.6-14.5-23.6c-1.7-12,3.5-34.8,18.2-39.5C257.5,149.6,271.3,157.5,271.3,157.5z"/>
		</g>
		<g>
			<g>
				<path class="st5" d="M290,359.3c0,0-0.7,0-1.8,0c-0.3,0-0.6,0-0.9,0c-1.1,0-2.4-0.1-3.7-0.1c-0.3,0-0.6,0-0.9,0
					c-1.3,0-2.4,0.1-3.5,0.1h0c-0.2,0-0.5,0-0.8,0c-0.1,0-0.2,0-0.3,0c-0.6-0.1-0.7-0.2-1.4-0.5c-0.8-0.4-12.2-2.9-21.5-2.9
					c-9.2,0-17.5,0.7-18.9-0.5c-1.4-1.1-2.2-12.8,5.7-13.5l9.7,3.7c0,0,22.1-2.6,30.3,3.4C290.2,354.8,290,359.3,290,359.3z"/>
			</g>
			<g>
				<g>
					<path class="st2" d="M279.3,359.2c-0.2,0-0.5,0-0.8,0c-0.2-0.3-0.6-0.9-0.9-1.1c-2.5-2.5-8.5-4.2-10.7-4.7
						c-0.2-0.1-0.3-0.2-0.3-0.4c0-0.2,0.2-0.3,0.5-0.3c3.2,0.8,10,2.7,11.9,6C279,358.6,279.2,359,279.3,359.2z"/>
				</g>
			</g>
			<g>
				<g>
					<path class="st2" d="M283.6,359.1c-0.3,0-0.6,0-0.9,0c-2.7-5-7.2-6.4-12.7-8.2l-0.3-0.1c-0.2-0.1-0.3-0.3-0.2-0.5
						c0.1-0.2,0.3-0.3,0.5-0.2l0.3,0.1C276.1,352.1,280.8,353.6,283.6,359.1z"/>
				</g>
			</g>
			<g>
				<g>
					<path class="st2" d="M288.2,359.2c-0.3,0-0.6,0-0.8,0c-1.7-3.5-7.1-9.3-14.4-10.7c-0.2,0-0.3-0.2-0.3-0.4
						c0-0.2,0.2-0.3,0.4-0.3C280.5,349.2,286.5,355.3,288.2,359.2z"/>
				</g>
			</g>
		</g>
		<g>
			<path class="st2" d="M229.5,183.7c0,0,4.6-2.2,7.8-8.3c3.2-6.1,2.8-11.6,2.8-11.6s5.8-0.9,14.5,1.7c8.7,2.6,19,6.1,27.7,1.1
				c8.7-5,8.7-12.9,4.4-16.2c-4.8-3.7-14.2-1.4-14.2-1.4s3.6-3.5,1.7-5.6c-2-2.1-9.1,0.6-9.1,0.6s-8.7-6.9-25.1-6.1
				c-16.4,0.8-24.3,12.3-25.2,25.1c-0.9,12.8,3.7,25.7,3.7,25.7L229.5,183.7z"/>
		</g>
		<g>
			<g>
				<path class="st7" d="M262.9,186.8c-0.9,2.3-0.9,5-1.1,7.4c-0.2,1.9-0.5,4.1,1.2,5.4c0.8,0.6,4.8,2.3,2.7,3.6
					c-0.8,0.5-2.1,0.4-2.9,0.3c-0.6,0-1.2-0.1-1.8-0.1c-0.6,0-1.3-0.2-1.9-0.2c-0.4,0-0.5,0.5-0.2,0.7c1,0.7,2.6,0.9,3.8,0.9
					c1.2,0,2,0,3.1-0.6c0.7-0.3,1.3-0.8,1.4-1.6c0.1-0.9-0.6-1.7-1.2-2.2c-0.8-0.6-1.7-0.9-2.5-1.4c-1.1-0.8-1-2.1-0.9-3.3
					c0.2-2.9,0.9-5.8,1.1-8.8C263.7,186.4,263,186.4,262.9,186.8L262.9,186.8z"/>
			</g>
		</g>
		<g>
			<path class="st2" d="M271.4,193.7c-0.3,1.7-1.6,3-2.8,2.8c-1.3-0.2-2-1.8-1.7-3.6c0.3-1.7,1.6-3,2.8-2.8
				C270.9,190.3,271.7,191.9,271.4,193.7z"/>
		</g>
		<g>
			<path class="st2" d="M255.5,192.3c-0.3,1.9-1.6,3.2-3,3c-1.4-0.2-2.2-1.9-1.9-3.8c0.3-1.9,1.6-3.2,3-3S255.8,190.4,255.5,192.3z"
				/>
		</g>
		<g>
			<g>
				<path class="st2" d="M267.7,186.5c1,0.2,1.9,0,2.9,0.1c0.2,0,0.5,0.1,0.7,0.1c0.2,0-0.3,0-0.1,0c0,0,0.1,0,0.1,0
					c0.1,0,0.2,0,0.4,0.1c0.2,0.1,0.4,0.1,0.6,0.2c0.2,0,0.4,0.1,0.6,0.1c0.1,0,0.2,0,0.3,0c-0.1,0-0.1,0-0.2,0c0,0,0.4,0,0.4,0
					c0.6-0.1,0.9-0.8,0.7-1.3c0-0.2-0.1-0.3-0.2-0.4c0-0.1-0.1-0.1-0.1-0.2c0,0,0.1,0.1,0.1,0.1c0-0.1-0.1-0.1-0.1-0.2
					c-0.1-0.1-0.1-0.2-0.2-0.2c-0.1-0.1-0.2-0.1-0.2-0.2c-0.3-0.2-0.6-0.3-0.9-0.4c-0.6-0.1-1.2-0.2-1.8-0.2c-0.6,0-1.2,0.1-1.8,0.1
					c-0.5,0.1-1.1,0.2-1.5,0.6c-0.3,0.2-0.5,0.6-0.5,1C267,186,267.3,186.4,267.7,186.5L267.7,186.5z"/>
			</g>
		</g>
		<g>
			<g>
				<path class="st2" d="M256.6,183.7c-0.1-0.1-0.3-0.1-0.4-0.2c-0.1-0.1-0.4-0.2-0.2-0.1c-0.1,0-0.2-0.1-0.3-0.1
					c-0.4-0.2-0.8-0.3-1.2-0.4c-0.9-0.2-1.9-0.3-2.9-0.2c-1,0.1-2,0.4-2.9,0.9c-0.1,0.1-0.3,0.2-0.4,0.3c-0.1,0.1-0.1,0.2-0.2,0.3
					c0,0,0-0.1,0.1-0.1c-0.3,0.2-0.4,0.5-0.4,0.8c0,0.3,0.2,0.6,0.4,0.7c0.3,0.2,0.7,0.1,1,0c-0.2,0-0.3,0-0.5,0
					c0.3,0,0.5,0.1,0.8,0c0,0,0.3-0.1,0.1,0c-0.2,0,0.3,0,0.3,0c0.1,0,0.4,0,0,0c0.1,0,0.1,0,0.2,0c0.2,0,0.3,0,0.5-0.1
					c0.7-0.1,1.4-0.1,2-0.1c0.6,0,1.3,0,1.9,0c0.3,0,0.5,0,0.8,0c0.2,0,0.1,0,0,0c0.1,0,0.1,0,0.2,0c0.1,0,0.2,0.1,0.3,0.1
					c0.4,0.2,1-0.2,1.1-0.6C257.2,184.5,257.1,184,256.6,183.7L256.6,183.7z"/>
			</g>
		</g>
		<g>
			<path class="st2" d="M261.6,212.5c0.9-1.9,2.7-3.3,4.7-4.2c-1.7-0.2-9.9-0.9-12,0.2c-2.3,1.3,0.4,6.6,5.2,6.9c0.5,0,1,0,1.4-0.1
				C260.9,214.3,261.1,213.4,261.6,212.5z"/>
		</g>
		<g>
			<path class="st8" d="M223.7,201.4c0,0,0.8,3.2,5.6,6.9c4.8,3.7,11.7,6.4,11.7,6.4l0.6-2.4c0,0-7.1-3.1-10.4-6.5
				c-3.3-3.4-3.7-5.3-3.7-5.3L223.7,201.4z"/>
		</g>
		<g>
			<path class="st2" d="M242.4,210.5c3.8-0.2,6,2.8,6.2,4.8c0.3,2-1.6,4.2-5.9,2.2C237.4,215.2,238.5,210.7,242.4,210.5z"/>
		</g>
		<g>
			<path class="st8" d="M226.7,177.7c0,0,1.7-11.9,9.6-20c15.2-15.4,28.1-14.5,28.1-14.5s-0.1-2.2-5-3.8c-4.6-1.6-6.6-0.7-6.6-0.7
				s-12.5,1-23.1,12.7c-10.6,11.7-11.7,26.6-11.7,26.6L226.7,177.7z"/>
		</g>
		<g>
			<g>
				<path class="st3" d="M225.6,176.2c-10-1.7-15.5,6.1-15.9,14c-0.4,7.9,5.3,13.8,12.9,13.2C239.8,202.1,237.8,178.3,225.6,176.2z"
					/>
			</g>
			<g>
				<path class="st9" d="M220.6,195.8c-2.6,0-4.9-1.3-6.1-3.6c-1.4-2.5-1.2-5.6,0.3-7.8c0.1-0.2,0.3-0.2,0.5-0.1
					c0.2,0.1,0.2,0.4,0.1,0.5c-1.4,2-1.5,4.8-0.3,7c1.2,2.1,3.2,3.3,5.7,3.3c2.3-0.1,4.2-1.1,5.4-2.9c1.4-2.1,1.7-5,0.8-7.3
					c-0.9-2.4-3.3-4-5.6-3.7c-0.2,0-0.4-0.1-0.4-0.3c0-0.2,0.1-0.4,0.3-0.4c2.6-0.3,5.4,1.4,6.4,4.1c1,2.6,0.6,5.7-0.9,8
					c-1.4,2-3.5,3.2-6,3.3C220.8,195.8,220.7,195.8,220.6,195.8z"/>
			</g>
		</g>
		<g>
			<path class="st2" d="M213.4,228.3c0,0-30.2,7.4-40.8,19.4c-10.6,12-15.5,71.2-15.7,82.1c-0.2,11,7.4,15.5,12,18.6
				c4.6,3.1,24.6,8.7,40.8,9.5s31.4,0,31.4,0s-0.1-3.5,2.4-8.7c2.3-4.8,5.2-5.8,5.2-5.8l-13.9-5c0,0-2.4-43.5-6.2-64.6
				C224.4,249.8,213.4,228.3,213.4,228.3z"/>
		</g>
		<g>
			<path class="st6" d="M263.5,331.6c-0.1,0-0.1,0-0.2,0c-0.3-0.1-0.4-0.4-0.3-0.7c2.8-6.4,5.8-18.9,7.4-27.7l0.1-0.7
				c0.5-2.6,1.1-5.8-0.1-8c-0.6-1.1-2.1-3.6-3.4-6c-1.4-2.5-2.8-4.8-3.1-5.5c-0.7-1.4,1.6-5,4.9-9.9c0.9-1.3,1.7-2.5,2.1-3.3
				c1.2-2,0.4-3.9-0.5-6.1L270,263c-0.8-2-1.8-4.1-2.7-6c-0.4-0.8-0.7-1.6-1.1-2.4c-0.5-1.1-1-2.2-1.5-3.3
				c-2.9-6.5-5.9-13.3-9.8-19.8c-0.1-0.2-0.1-0.5,0.2-0.7c0.2-0.1,0.5-0.1,0.7,0.2c3.9,6.6,6.9,13.3,9.9,19.9c0.5,1.1,1,2.2,1.5,3.3
				c0.4,0.8,0.7,1.6,1.1,2.4c0.9,2,1.9,4,2.7,6.1l0.3,0.7c0.9,2.2,1.9,4.5,0.5,7c-0.5,0.8-1.3,2-2.2,3.3c-1.7,2.6-5.3,8-4.8,8.9
				c0.4,0.7,1.7,3,3.1,5.4c1.4,2.4,2.8,4.8,3.4,6c1.4,2.5,0.8,6,0.2,8.7l-0.1,0.7c-0.6,3.2-3.8,19.6-7.5,27.9
				C263.8,331.5,263.7,331.6,263.5,331.6z"/>
		</g>
		<g>
			<path class="st6" d="M234,333.3c-0.1,0-0.3,0-0.4-0.1c-2.4-2.4-13.7-22-14.5-25.7c-0.5-2,0.7-7.1,1.8-12.1
				c0.9-3.8,1.8-7.8,1.5-8.9c-0.4-1.6-3.3-4-6.1-6.3c-3.4-2.8-6.9-5.6-7.6-8.2c-0.8-2.9-0.1-21.3,0.3-33.4c0.2-4.4,0.3-7.8,0.3-9
				c0-0.3,0.2-0.5,0.5-0.5c0,0,0,0,0,0c0.3,0,0.5,0.2,0.5,0.5c0,1.2-0.1,4.7-0.3,9.1c-0.4,11.3-1.1,30.3-0.4,33.1
				c0.6,2.3,4.1,5.1,7.2,7.7c3.1,2.5,6,4.9,6.4,6.8c0.3,1.3-0.5,5-1.5,9.3c-1,4.6-2.2,9.9-1.8,11.7c0.8,3.6,12,22.9,14.3,25.2
				c0.2,0.2,0.2,0.5,0,0.7C234.2,333.3,234.1,333.3,234,333.3z"/>
		</g>
		<g>
			<path class="st6" d="M193.3,324.8C193.3,324.8,193.3,324.8,193.3,324.8c-0.3,0-0.5-0.3-0.5-0.6c0.4-2.6,6.1-54.4,6.4-58.4
				c0-0.3,0.3-0.5,0.5-0.5c0.3,0,0.5,0.3,0.5,0.5c-0.3,4-6,55.8-6.4,58.4C193.8,324.6,193.6,324.8,193.3,324.8z"/>
		</g>
		<g>
			<path class="st6" d="M234.5,338.8c-0.1,0-0.1,0-0.2,0c-1.3-0.5-6.9-2.4-14-4.8c-14.4-4.8-34-11.5-37.8-13.4
				c-0.2-0.1-0.3-0.4-0.2-0.7c0.1-0.2,0.4-0.3,0.7-0.2c3.7,1.9,24.1,8.8,37.6,13.4c7.1,2.4,12.8,4.3,14.1,4.8
				c0.3,0.1,0.4,0.4,0.3,0.7C234.9,338.7,234.7,338.8,234.5,338.8z"/>
		</g>
		<g>
			<path class="st6" d="M227.6,359.5c-12.6,0-37.1-2.3-55.7-8.9c-0.3-0.1-0.4-0.4-0.3-0.6c0.1-0.3,0.4-0.4,0.6-0.3
				c23.5,8.3,56.4,9.7,62.5,8.4c0.3-0.1,0.5,0.1,0.6,0.4c0.1,0.3-0.1,0.5-0.4,0.6C233.6,359.3,231,359.5,227.6,359.5z"/>
		</g>
	</g>
	<g>
		<g>
			<g>
				<path class="st10" d="M83,235.2c3.9,3.5,8.9,5.7,12.3,9.7c1.4,1.6,2.6,3.2,3.8,4.9c0.9,1.2,3.4,3.2,3.8,4.7
					c0.2,0.7,0.1-0.2,0-0.9c0,0,0-0.1,0-0.1c-0.3-3-0.6-6.1-0.7-9.2c-0.1-3.1,0.1-6.1-0.1-9.2c-0.3-4.3-1.6-8.5-5.1-11.2
					c-1.7-1.3-3.9-2.1-5.5-3.6c-1.5-1.4-0.9-3,0-4.5c0.8-1.5,1.8-2.9,2.2-4.5c0.4-1.9-0.3-3.9-1.3-5.5c-2-3.4-6.6-7.3-10.9-6.8
					c-3.6,0.4-4,4.6-3.9,7.5c0,2.8,0.3,5.6,0.4,8.4c0,2.9-0.5,5.7-0.5,8.6C77.1,228.4,79.4,232.1,83,235.2z"/>
				<path class="st10" d="M119.4,280c1.1-2.6,2.3-5,3.9-7.4c2.1-3.3,4.5-6.4,5.9-10.1c1.4-3.7,1.2-7.7,1.4-11.6
					c0.1-2.9,1-5.7,0.7-8.6c-0.1-1.4-0.9-3.6-2.7-3.4c-1.4,0.2-2.2,1.9-2.8,3c-0.9,1.9-1.6,4-2.3,6c-0.3,0.8-0.5,1.6-0.9,2.4
					c-0.2,0.4-0.8,1.5-1.4,1.4c-1-0.3-0.1-4.4,0.1-5.1c0.8-3.7,1.9-7.1,2.1-10.9c0.2-5.5-0.2-12.1-5.6-15.1
					c-1.4-0.8-3.2-1.3-4.5-0.1c-1.3,1.2-1.7,3.2-1.9,4.8c-0.6,5.1,0.6,9.9,2.2,14.7c1.3,4,2.9,8,3.1,12.3c0.1,4.1-2,7.7-3,11.5
					c-1.6,6.1-1.3,9.4-1.3,11.4c0,2.5,0.1,4.9,0.3,7.4c0.2,2.3,0.4,4.6,0.6,6.8c0.1,0.5,0.1,0.9,0.2,1.4c-0.9-2.1-1.2-4.5-1.9-6.6
					c-1.3-3.8-2.8-7.4-4-11.2c-1-3.1-2-6.3-3.3-9.3c-1.3-2.8-2.8-5.8-5.2-7.9c-1.4-1.3-3.2-2-5.1-2c-1.2,0-2.3,0.4-3.5,0.7
					c-1.4,0.4-2.6,0.2-3.7-0.7c-3.9-3-5-8.3-7.9-12c-2.1-2.8-7.2-7.6-10.9-4.5c-2,1.6-2.5,4.8-2.4,7.2c0.1,3,1.4,5.8,3,8.3
					c1.7,2.7,3.8,5.1,5.4,7.8c0.9,1.6,1,3.2,0.9,5c-0.1,1.7-0.3,3.4,0.3,5.1c1.8,5,7.3,4.3,11.6,4.4c3,0.1,6.2,0.5,9.1,1.5
					c3.3,1.1,5.4,3.3,6.6,6.5c0.9,2.4,1.3,5,2.9,7.1c0.8,0.9,1.8,1.6,2.9,2.1c1.7,0.7,6.8,1.1,6.8,0.6c0.1-1.6,0.9-3.2,1.3-4.7
					C117.3,285.4,118.3,282.7,119.4,280z"/>
				<path class="st10" d="M143.1,279.1c-0.4-2.9-0.4-6-1.7-8.7c-0.1-0.2-0.4-0.2-0.5-0.1c-1,0.5-1,2.1-1.1,3.1
					c-0.1,1.6,0,3.2-0.2,4.8c-0.3,2.8-1,5.7-2,8.3c-1.1,3-3.2,4.7-6.2,5.6c-1.9,0.6-3.8,1.1-5.4,2.4c-1.4,1.1-2.4,2.7-3.2,4.4
					c-2,4.5-3,9.5-3.9,14.4c-0.6,3.2-1.1,6.5-1.9,9.7c-0.8,3.2-1.6,6.4-2.1,9.7c-0.1,0.2-0.2,0.3-0.2,0.5c-0.2,0.5,0.6,0.8,0.8,0.3
					c3.1-4.8,6.9-9.1,12.1-11.7c2.3-1.2,5.4-1.4,7.4-3.3c1.5-1.4,1.7-3.6,1.5-5.5c-0.3-2.5-1.5-4.6-2.8-6.8
					c-0.7-1.2-1.5-2.5-1.2-3.9c0.3-1.4,1.4-2.4,2.5-3.1c2.1-1.3,4.7-1.9,6.4-3.9c1.6-1.8,2.5-4,2.7-6.4
					C144.2,285.7,143.6,282.2,143.1,279.1z"/>
				<path class="st10" d="M100.8,295.6c-2.7-3.5-6.1-6.6-9.8-9.1c-2-1.3-6.7-3.9-7.6,0c-0.6,2.3,1.7,4.5,3.1,6
					c2.2,2.1,4.8,4,6.6,6.5c-2.3,0.7-4.7,0.9-6.7,2.5c-2.4,1.9-3.4,5.5-1.1,7.8c1.1,1.1,2.7,1.8,4.1,2.5c1.9,0.9,3.7,1.7,5.6,2.5
					c4.1,1.7,8.3,3.5,11.8,6.3c3.6,2.9,6.9,7.7,7.2,12.4c0,0.4-0.1,0,0.1-0.2c0.1,0.1,0.6-0.1,0.6-0.4c-0.1-6.9-1.3-13.5-4.2-19.9
					C108,306.6,104.7,300.7,100.8,295.6z"/>
			</g>
			<g>
				<path class="st11" d="M91.3,231c1.5,3.1,3.1,6.2,4.8,9.3c1.6,2.9,3.2,5.9,4.4,9c1.5,3.9,3,7.7,4.6,11.5c1.6,4,3.1,8.1,4.3,12.2
					c2.3,8.1,4,16.4,4.8,24.8c0.4,4.3,0.6,8.5,0.5,12.8c-0.1,3.3-0.5,6.7-0.8,10c-0.3,3.5-0.6,7-0.3,10.4c0.2,2.9,0.7,6.4,3,8.4
					c0.4,0.4,1.1-0.1,0.8-0.6c-2.7-5.5-2.5-11.5-2-17.4c0.3-3.3,0.7-6.6,0.8-9.9c0.1-4.2,0-8.4-0.4-12.6c-0.8-8.2-2.4-16.3-4.5-24.3
					c-1.1-4.1-2.4-8.1-4-12c-1.6-3.9-3.4-7.8-4.9-11.7c-2.7-7.2-6.9-13.5-10.6-20.2C91.6,230.4,91.1,230.7,91.3,231L91.3,231z"/>
			</g>
			<g>
				<path class="st11" d="M114.4,289.6c0.4-5.2,0.9-10.2,2.7-15.2c0.8-2.3,1.8-4.6,2.6-6.9c0.7-1.9,1.6-4.6,1.1-6.6
					c-0.1-0.2-0.4-0.2-0.5,0c-0.3,1.2-0.3,2.5-0.5,3.7c-0.2,1.2-0.6,2.3-0.9,3.4c-0.8,2.4-1.8,4.7-2.7,7.1
					c-1.7,4.6-2.6,9.7-2.2,14.6C114,289.9,114.3,289.9,114.4,289.6L114.4,289.6z"/>
			</g>
			<g>
				<path class="st11" d="M84.1,259.6c2.1,5,8.3,5.3,12.8,6.4c3.2,0.8,5.6,3,7.3,5.8c1.9,3.1,3.2,6.7,4.2,10.1c0,0,0.1,0,0.1,0
					c-1.3-6-3.1-13.2-9.3-16c-5-2.2-11.5-1.1-14.7-6.5C84.5,259.2,84,259.3,84.1,259.6L84.1,259.6z"/>
			</g>
			<g>
				<path class="st11" d="M111.1,288.8c0.2,0.3,0.5,0.7,0.7,1c0.1,0.2,0.3,0.3,0.4,0.4c0.2,0.1,0.4,0.3,0.6,0.3
					c0.1,0,0.2-0.1,0.1-0.2c-0.1-0.2-0.3-0.3-0.4-0.4c-0.1-0.1-0.3-0.3-0.4-0.4c-0.3-0.3-0.6-0.6-0.8-0.9
					C111.1,288.7,111,288.8,111.1,288.8L111.1,288.8z"/>
			</g>
			<g>
				<path class="st11" d="M98.1,304.7c3.6,2.9,6.9,6.4,9.5,10.2c1.3,1.8,2.4,3.7,3.5,5.7c1.1,2.1,1.9,4.4,2.8,6.6
					c0.1,0.2,0.4,0.2,0.4,0c-0.5-4.7-3.5-8.7-5.9-12.7c-1.2-2-2.8-3.7-4.4-5.4c-1.7-1.8-3.5-3.4-5.5-4.8
					C98.2,304.1,97.9,304.5,98.1,304.7L98.1,304.7z"/>
			</g>
			<g>
				<path class="st11" d="M126.6,299.2c-1.7,1-1.8,3.7-1.8,5.4c-0.1,3.3,0.8,6.5-0.7,9.6c-1.3,2.9-3.4,5.3-5.1,7.9
					c-1.6,2.5-3.1,5.7-3.1,8.7c0,0.2,0.3,0.3,0.3,0.1c0.6-1.4,0.9-2.9,1.3-4.3c0.5-1.6,1.2-3.1,2.1-4.5c1.6-2.5,3.6-4.7,4.9-7.4
					c1.4-2.8,1.2-5.6,1.1-8.6c-0.1-1.9-0.3-5.1,1.3-6.5C127.2,299.4,126.9,299,126.6,299.2L126.6,299.2z"/>
			</g>
		</g>
		<path class="st3" d="M115.1,331.2c-6.9-0.1-20.1-0.2-20.1-0.2l3.3,24.3c0.7,5.5,5.4,9.5,10.9,9.5h5.7h0.6h5.7
			c5.5,0,10.2-4.1,10.9-9.5l3.3-24.3C135.2,331,122,331.1,115.1,331.2z"/>
	</g>
	<g>
		<g>
			<g>
				<polygon class="st12" points="450.2,286.6 410.6,365 295.3,365.8 330.9,285.5 				"/>
			</g>
			<g>
				<path class="st13" d="M218.8,365.3l0-6.3h74.6l34.3-75.3h119.4l3,2.9H333.6l-35.7,78.6C297.9,365.2,218.8,365.1,218.8,365.3z"/>
			</g>
			<g>
				<path class="st13" d="M390.3,329.8c-1.3,3.9-8.4,6.9-15.8,6.7c-7.4-0.2-12.4-3.5-11.1-7.4s8.4-6.9,15.8-6.7
					C386.7,322.6,391.6,325.9,390.3,329.8z"/>
			</g>
		</g>
		<g>
			<path class="st3" d="M297.9,365.7c-0.1,0-0.1,0-0.2,0c-0.3-0.1-0.4-0.4-0.2-0.7l35.8-78.9h116.9c0.3,0,0.5,0.2,0.5,0.5
				c0,0.3-0.2,0.5-0.5,0.5H333.9l-35.6,78.3C298.2,365.6,298.1,365.7,297.9,365.7z"/>
		</g>
	</g>
	<g>
		<g>
			<rect x="76.4" y="371.2" class="st14" width="137.2" height="30.4"/>
			<rect x="212.8" y="371.2" class="st15" width="246.8" height="30.4"/>
		</g>
		<polygon class="st16" points="213.6,371.2 212.8,371.2 76.4,371.2 76.4,376.8 212.8,376.8 213.6,376.8 459.6,376.8 459.6,371.2 		
			"/>
		<rect x="69.8" y="365.2" class="st17" width="149.8" height="7.4"/>
		<rect x="218.8" y="365.2" class="st18" width="246.8" height="7.4"/>
	</g>
	<g>
		<path class="st3" d="M179,205.7h-48.4c-3,0-5.4-2.4-5.4-5.4v-24.2c0-3,2.4-5.4,5.4-5.4H179c3,0,5.4,2.4,5.4,5.4v24.2
			C184.4,203.2,182,205.7,179,205.7z"/>
		<polygon class="st3" points="198.2,188.1 180,180.5 180,195.8 		"/>
		<g>
			<circle class="st2" cx="143.3" cy="188.1" r="3.3"/>
			<circle class="st2" cx="154.8" cy="188.1" r="3.3"/>
			<circle class="st2" cx="166.2" cy="188.1" r="3.3"/>
		</g>
	</g>
	<g>
		<path class="st1" d="M425.5,96.3H313.7c-7.2,0-13,5.8-13,13v53c0,7.2,5.8,13,13,13h10c0.3,4.8-0.4,12-4.4,21.1
			c12.9-6,20.4-14.9,24.2-21.1h82c7.2,0,13-5.8,13-13v-53C438.5,102.1,432.7,96.3,425.5,96.3z"/>
		<path class="st3" d="M377.8,121.5h-55.4c-1.5,0-2.8-1.2-2.8-2.8l0,0c0-1.5,1.2-2.8,2.8-2.8h55.4c1.5,0,2.8,1.2,2.8,2.8l0,0
			C380.6,120.3,379.3,121.5,377.8,121.5z"/>
		<path class="st19" d="M417.6,137.6h-96.3c-0.9,0-1.7-0.8-1.7-1.7l0,0c0-0.9,0.8-1.7,1.7-1.7h96.3c0.9,0,1.7,0.8,1.7,1.7l0,0
			C419.3,136.9,418.5,137.6,417.6,137.6z"/>
		<path class="st19" d="M417.6,147h-96.3c-0.9,0-1.7-0.8-1.7-1.7l0,0c0-0.9,0.8-1.7,1.7-1.7h96.3c0.9,0,1.7,0.8,1.7,1.7l0,0
			C419.3,146.2,418.5,147,417.6,147z"/>
		<path class="st19" d="M396.6,157h-75.3c-0.9,0-1.7-0.8-1.7-1.7l0,0c0-0.9,0.8-1.7,1.7-1.7h75.3c0.9,0,1.7,0.8,1.7,1.7l0,0
			C398.3,156.2,397.5,157,396.6,157z"/>
		<path class="st3" d="M416.8,121.5h-26.5c-1.5,0-2.8-1.2-2.8-2.8l0,0c0-1.5,1.2-2.8,2.8-2.8h26.5c1.5,0,2.8,1.2,2.8,2.8l0,0
			C419.6,120.3,418.3,121.5,416.8,121.5z"/>
	</g>
	<g>
		<path class="st3" d="M350.1,243.5h-30c-1.1,0-2-0.9-2-2V221c0-1.1,0.9-2,2-2h30c1.1,0,2,0.9,2,2v20.5
			C352.1,242.6,351.2,243.5,350.1,243.5z"/>
		<g>
			<g>
				<path class="st17" d="M335.3,234.9c-0.2,0-0.3-0.1-0.5-0.2l-16.3-13.5c-0.3-0.3-0.4-0.7-0.1-1.1c0.3-0.3,0.7-0.4,1.1-0.1
					l15.9,13.1l15.5-13.4c0.3-0.3,0.8-0.2,1.1,0.1c0.3,0.3,0.2,0.8-0.1,1.1l-15.9,13.9C335.7,234.8,335.5,234.9,335.3,234.9z"/>
			</g>
			<g>
				<path class="st17" d="M319,242.9c-0.2,0-0.4-0.1-0.5-0.2c-0.3-0.3-0.3-0.8,0-1.1l11.4-12c0.3-0.3,0.8-0.3,1.1,0
					c0.3,0.3,0.3,0.8,0,1.1l-11.4,12C319.4,242.9,319.2,242.9,319,242.9z"/>
			</g>
			<g>
				<path class="st17" d="M351.3,242.5c-0.2,0-0.4-0.1-0.5-0.2l-11.4-11.4c-0.3-0.3-0.3-0.8,0-1.1c0.3-0.3,0.8-0.3,1.1,0l11.4,11.4
					c0.3,0.3,0.3,0.8,0,1.1C351.6,242.4,351.5,242.5,351.3,242.5z"/>
			</g>
		</g>
		<g>
			<g>
				<circle class="st20" cx="353.7" cy="218.2" r="10"/>
			</g>
			<text transform="matrix(1 0 0 1 346.6522 222.4625)" class="st3 st21 st22">85</text>
		</g>
	</g>
	<g>
		<g>
			<path class="st2" d="M454.5,214.5h-58.6c-2.2,0-4-1.8-4-4v-9.2c0-2.2,1.8-4,4-4h58.6c2.2,0,4,1.8,4,4v9.2
				C458.5,212.7,456.7,214.5,454.5,214.5z"/>
		</g>
		<g>
			<path class="st3" d="M400.1,210.5c-0.3,0-0.5-0.1-0.6-0.3c-0.2-0.2-0.2-0.4-0.2-0.7l0.3-2.2c0-0.1,0-0.1,0-0.1c0,0-0.1,0-0.1,0
				l-1.8,1.3c-0.2,0.2-0.5,0.2-0.7,0.2c-0.2,0-0.4-0.2-0.6-0.4c-0.2-0.3-0.2-0.6-0.1-0.8c0.1-0.2,0.3-0.4,0.5-0.5l2.1-0.9
				c0.1,0,0.1,0,0.1-0.1c0,0,0-0.1-0.1-0.1l-2.1-0.9c-0.3-0.1-0.4-0.3-0.5-0.5c-0.1-0.2,0-0.5,0.1-0.7c0.1-0.2,0.3-0.4,0.6-0.4
				c0.2,0,0.5,0,0.7,0.2l1.8,1.4c0.1,0,0.1,0,0.1,0c0,0,0-0.1,0-0.1l-0.3-2.2c0-0.3,0.1-0.5,0.2-0.7c0.2-0.2,0.4-0.3,0.7-0.3
				c0.3,0,0.5,0.1,0.6,0.3c0.2,0.2,0.2,0.4,0.2,0.7l-0.3,2.2c0,0.1,0,0.1,0,0.1c0,0,0.1,0,0.1,0l1.8-1.3c0.2-0.2,0.5-0.2,0.7-0.2
				c0.3,0,0.4,0.2,0.6,0.4c0.2,0.3,0.2,0.6,0.1,0.8c-0.1,0.2-0.3,0.4-0.5,0.5l-2.1,0.9c-0.1,0-0.1,0-0.1,0.1c0,0,0,0.1,0.1,0.1
				l2.1,0.9c0.3,0.1,0.4,0.3,0.5,0.5c0.1,0.2,0.1,0.5-0.1,0.7c-0.1,0.2-0.3,0.4-0.6,0.4c-0.3,0-0.5,0-0.7-0.2l-1.8-1.4
				c-0.1,0-0.1,0-0.1,0c0,0,0,0.1,0,0.1l0.3,2.2c0,0.3,0,0.5-0.2,0.7C400.6,210.4,400.4,210.5,400.1,210.5z"/>
		</g>
		<g>
			<path class="st3" d="M412.2,210.5c-0.3,0-0.5-0.1-0.6-0.3c-0.2-0.2-0.2-0.4-0.2-0.7l0.3-2.2c0-0.1,0-0.1,0-0.1c0,0-0.1,0-0.1,0
				l-1.8,1.3c-0.2,0.2-0.5,0.2-0.7,0.2c-0.2,0-0.4-0.2-0.6-0.4c-0.2-0.3-0.2-0.6-0.1-0.8c0.1-0.2,0.3-0.4,0.5-0.5l2.1-0.9
				c0.1,0,0.1,0,0.1-0.1c0,0,0-0.1-0.1-0.1l-2.1-0.9c-0.3-0.1-0.4-0.3-0.5-0.5c-0.1-0.2,0-0.5,0.1-0.7c0.2-0.2,0.3-0.4,0.6-0.4
				c0.2,0,0.5,0,0.7,0.2l1.8,1.4c0.1,0,0.1,0,0.1,0c0,0,0-0.1,0-0.1l-0.3-2.2c0-0.3,0.1-0.5,0.2-0.7c0.2-0.2,0.4-0.3,0.7-0.3
				c0.3,0,0.5,0.1,0.6,0.3c0.2,0.2,0.2,0.4,0.2,0.7l-0.3,2.2c0,0.1,0,0.1,0,0.1c0,0,0.1,0,0.1,0l1.8-1.3c0.2-0.2,0.5-0.2,0.7-0.2
				c0.3,0,0.4,0.2,0.6,0.4c0.2,0.3,0.2,0.6,0.1,0.8c-0.1,0.2-0.3,0.4-0.5,0.5l-2.1,0.9c-0.1,0-0.1,0-0.1,0.1c0,0,0,0.1,0.1,0.1
				l2.1,0.9c0.3,0.1,0.4,0.3,0.5,0.5c0.1,0.2,0.1,0.5-0.1,0.7c-0.1,0.2-0.3,0.4-0.6,0.4c-0.3,0-0.5,0-0.7-0.2l-1.8-1.4
				c-0.1,0-0.1,0-0.1,0c0,0,0,0.1,0,0.1l0.3,2.2c0,0.3,0,0.5-0.2,0.7C412.7,210.4,412.5,210.5,412.2,210.5z"/>
		</g>
		<g>
			<path class="st3" d="M424.3,210.5c-0.3,0-0.5-0.1-0.6-0.3c-0.2-0.2-0.2-0.4-0.2-0.7l0.3-2.2c0-0.1,0-0.1,0-0.1c0,0-0.1,0-0.1,0
				l-1.8,1.3c-0.2,0.2-0.5,0.2-0.7,0.2c-0.2,0-0.4-0.2-0.6-0.4c-0.2-0.3-0.2-0.6-0.1-0.8c0.1-0.2,0.3-0.4,0.5-0.5l2.1-0.9
				c0.1,0,0.1,0,0.1-0.1c0,0,0-0.1-0.1-0.1l-2.1-0.9c-0.3-0.1-0.4-0.3-0.5-0.5c-0.1-0.2,0-0.5,0.1-0.7c0.1-0.2,0.3-0.4,0.6-0.4
				c0.2,0,0.5,0,0.7,0.2l1.8,1.4c0.1,0,0.1,0,0.1,0c0,0,0-0.1,0-0.1l-0.3-2.2c0-0.3,0.1-0.5,0.2-0.7c0.2-0.2,0.4-0.3,0.7-0.3
				c0.3,0,0.5,0.1,0.6,0.3c0.2,0.2,0.2,0.4,0.2,0.7l-0.3,2.2c0,0.1,0,0.1,0,0.1c0,0,0.1,0,0.1,0l1.8-1.3c0.2-0.2,0.5-0.2,0.7-0.2
				c0.3,0,0.4,0.2,0.6,0.4c0.2,0.3,0.2,0.6,0.1,0.8c-0.1,0.2-0.3,0.4-0.5,0.5l-2.1,0.9c-0.1,0-0.1,0-0.1,0.1c0,0,0,0.1,0.1,0.1
				l2.1,0.9c0.3,0.1,0.4,0.3,0.5,0.5c0.1,0.2,0.1,0.5-0.1,0.7c-0.1,0.2-0.3,0.4-0.6,0.4c-0.3,0-0.5,0-0.7-0.2l-1.8-1.4
				c-0.1,0-0.1,0-0.1,0c0,0,0,0.1,0,0.1l0.3,2.2c0,0.3,0,0.5-0.2,0.7C424.9,210.4,424.6,210.5,424.3,210.5z"/>
		</g>
		<g>
			<path class="st3" d="M436.5,210.5c-0.3,0-0.5-0.1-0.6-0.3c-0.2-0.2-0.2-0.4-0.2-0.7l0.3-2.2c0-0.1,0-0.1,0-0.1c0,0-0.1,0-0.1,0
				l-1.8,1.3c-0.2,0.2-0.5,0.2-0.7,0.2c-0.2,0-0.4-0.2-0.6-0.4c-0.2-0.3-0.2-0.6-0.1-0.8c0.1-0.2,0.3-0.4,0.5-0.5l2.1-0.9
				c0.1,0,0.1,0,0.1-0.1c0,0,0-0.1-0.1-0.1l-2.1-0.9c-0.3-0.1-0.4-0.3-0.5-0.5c-0.1-0.2,0-0.5,0.1-0.7c0.2-0.2,0.3-0.4,0.6-0.4
				c0.2,0,0.5,0,0.7,0.2l1.8,1.4c0.1,0,0.1,0,0.1,0c0,0,0-0.1,0-0.1l-0.3-2.2c0-0.3,0.1-0.5,0.2-0.7c0.2-0.2,0.4-0.3,0.7-0.3
				c0.3,0,0.5,0.1,0.6,0.3c0.2,0.2,0.2,0.4,0.2,0.7l-0.3,2.2c0,0.1,0,0.1,0,0.1c0,0,0.1,0,0.1,0l1.8-1.3c0.2-0.2,0.5-0.2,0.7-0.2
				c0.3,0,0.4,0.2,0.6,0.4c0.2,0.3,0.2,0.6,0.1,0.8c-0.1,0.2-0.3,0.4-0.5,0.5l-2.1,0.9c-0.1,0-0.1,0-0.1,0.1c0,0,0,0.1,0.1,0.1
				l2.1,0.9c0.3,0.1,0.4,0.3,0.5,0.5c0.1,0.2,0.1,0.5-0.1,0.7c-0.1,0.2-0.3,0.4-0.6,0.4c-0.3,0-0.5,0-0.7-0.2l-1.8-1.4
				c-0.1,0-0.1,0-0.1,0c0,0,0,0.1,0,0.1l0.3,2.2c0,0.3,0,0.5-0.2,0.7C437,210.4,436.8,210.5,436.5,210.5z"/>
		</g>
		<g>
			<path class="st23" d="M448.6,210.5c-0.3,0-0.5-0.1-0.6-0.3c-0.2-0.2-0.2-0.4-0.2-0.7l0.3-2.2c0-0.1,0-0.1,0-0.1c0,0-0.1,0-0.1,0
				l-1.8,1.3c-0.2,0.2-0.5,0.2-0.7,0.2c-0.2,0-0.4-0.2-0.6-0.4c-0.2-0.3-0.2-0.6-0.1-0.8c0.1-0.2,0.3-0.4,0.5-0.5l2.1-0.9
				c0.1,0,0.1,0,0.1-0.1c0,0,0-0.1-0.1-0.1l-2.1-0.9c-0.3-0.1-0.4-0.3-0.5-0.5c-0.1-0.2,0-0.5,0.1-0.7c0.1-0.2,0.3-0.4,0.6-0.4
				c0.2,0,0.5,0,0.7,0.2l1.8,1.4c0.1,0,0.1,0,0.1,0c0,0,0-0.1,0-0.1l-0.3-2.2c0-0.3,0.1-0.5,0.2-0.7c0.2-0.2,0.4-0.3,0.7-0.3
				c0.3,0,0.5,0.1,0.6,0.3c0.2,0.2,0.2,0.4,0.2,0.7l-0.3,2.2c0,0.1,0,0.1,0,0.1c0,0,0.1,0,0.1,0l1.8-1.3c0.2-0.2,0.5-0.2,0.7-0.2
				c0.3,0,0.4,0.2,0.6,0.4c0.2,0.3,0.2,0.6,0.1,0.8c-0.1,0.2-0.3,0.4-0.5,0.5l-2.1,0.9c-0.1,0-0.1,0-0.1,0.1c0,0,0,0.1,0.1,0.1
				l2.1,0.9c0.3,0.1,0.4,0.3,0.5,0.5c0.1,0.2,0.1,0.5-0.1,0.7c-0.1,0.2-0.3,0.4-0.6,0.4c-0.3,0-0.5,0-0.7-0.2l-1.8-1.4
				c-0.1,0-0.1,0-0.1,0c0,0,0,0.1,0,0.1l0.3,2.2c0,0.3,0,0.5-0.2,0.7C449.1,210.4,448.9,210.5,448.6,210.5z"/>
		</g>
	</g>
</g>
</svg>
