<?xml version="1.0" encoding="utf-8"?>
<!-- Generator: Adobe Illustrator 24.3.0, SVG Export Plug-In . SVG Version: 6.00 Build 0)  -->
<svg version="1.1" xmlns="http://www.w3.org/2000/svg" xmlns:xlink="http://www.w3.org/1999/xlink" x="0px" y="0px"
	 viewBox="0 0 500 500" style="enable-background:new 0 0 500 500;" xml:space="preserve">
<style type="text/css">
	.st0{fill:#EBEBEB;}
	.st1{fill:#F0F0F0;}
	.st2{fill:#FAFAFA;}
	.st3{fill:#E0E0E0;}
	.st4{fill:#E6E6E6;}
	.st5{fill:#FFFFFF;}
	.st6{display:none;}
	.st7{display:inline;}
	.st8{fill:#407BFF;}
	.st9{opacity:0.9;fill:#FFFFFF;}
	.st10{fill:#F5F5F5;}
	.st11{fill:#263238;}
	.st12{opacity:0.4;fill:#263238;}
	.st13{opacity:0.1;fill:#FFFFFF;}
	.st14{opacity:0.3;}
	.st15{opacity:0.8;fill:#263238;}
	.st16{fill:#FFC3BD;}
	.st17{fill:#ED847E;}
	.st18{opacity:0.2;fill:#FAFAFA;}
	.st19{opacity:0.2;}
</style>
<g id="Background_Complete">
	<g>
		<rect y="382.4" class="st0" width="500" height="0.2"/>
		<rect x="52.5" y="391.9" class="st0" width="77.9" height="0.2"/>
		<rect x="412" y="399.5" class="st0" width="37.9" height="0.2"/>
		<rect x="131.4" y="401.2" class="st0" width="19.2" height="0.2"/>
		<rect x="202.2" y="389.2" class="st0" width="43.2" height="0.2"/>
		<rect x="254.3" y="389.2" class="st0" width="6.3" height="0.2"/>
		<rect x="327.7" y="395.3" class="st0" width="43.2" height="0.2"/>
		<path class="st0" d="M237,337.8H43.9c-3.1,0-5.7-2.6-5.7-5.7V60.7c0-3.1,2.6-5.7,5.7-5.7H237c3.1,0,5.7,2.6,5.7,5.7v271.4
			C242.7,335.2,240.2,337.8,237,337.8z M43.9,55.2c-3,0-5.5,2.4-5.5,5.5v271.4c0,3,2.4,5.5,5.5,5.5H237c3,0,5.5-2.4,5.5-5.5V60.7
			c0-3-2.4-5.5-5.5-5.5H43.9z"/>
		<path class="st0" d="M453.3,337.8H260.2c-3.1,0-5.7-2.6-5.7-5.7V60.7c0-3.1,2.6-5.7,5.7-5.7h193.1c3.1,0,5.7,2.6,5.7,5.7v271.4
			C459,335.2,456.5,337.8,453.3,337.8z M260.2,55.2c-3,0-5.5,2.4-5.5,5.5v271.4c0,3,2.4,5.5,5.5,5.5h193.1c3,0,5.5-2.4,5.5-5.5V60.7
			c0-3-2.4-5.5-5.5-5.5H260.2z"/>
	</g>
	<g>
		<g>
			<path class="st1" d="M132.9,359.5H83.7c-2.2,0-4-1.6-4.4-3.8l-12.3-84.1c-0.4-2.7,1.7-5.1,4.4-5.1h49.1c2.2,0,4,1.6,4.4,3.8
				l12.3,84.1C137.6,357.1,135.6,359.5,132.9,359.5z"/>
			<path class="st2" d="M89.6,359.5H66.4c-2.2,0-4-1.6-4.4-3.8l-12.3-84.1c-0.4-2.7,1.7-5.1,4.4-5.1h23.2c2.2,0,4,1.6,4.4,3.8
				l12.3,84.1C94.3,357.1,92.3,359.5,89.6,359.5z"/>
			<path class="st3" d="M382.8,245.3H144c-6.1,0-11.4,4.5-11.9,10.2l-6,64.9c-0.5,5.6,4,10.2,10,10.2h238.8
				c6.1,0,11.4-4.5,11.9-10.2l6-64.9C393.4,249.9,388.9,245.3,382.8,245.3z"/>
			<path class="st4" d="M366.6,245.3H127.8c-6.1,0-11.4,4.5-11.9,10.2l-6,64.9c-0.5,5.6,4,10.2,10,10.2h238.8
				c6.1,0,11.4-4.5,11.9-10.2l6-64.9C377.2,249.9,372.7,245.3,366.6,245.3z"/>
			<path class="st0" d="M97.7,352.3v-23.1c0-4,3.2-7.2,7.2-7.2h89.9c4,0,7.2,3.2,7.2,7.2v23.1c0,4-3.2,7.2-7.2,7.2h-89.9
				C100.9,359.5,97.7,356.3,97.7,352.3z"/>
			<path class="st3" d="M227.7,353v-24.3c0-3.6,2.9-6.6,6.6-6.6h105c3.6,0,6.6,2.9,6.6,6.6V353c0,3.6-2.9,6.6-6.6,6.6h-105
				C230.7,359.5,227.7,356.6,227.7,353z"/>
			<path class="st0" d="M202,353v-24.3c0-3.6,2.9-6.6,6.6-6.6h105c3.6,0,6.6,2.9,6.6,6.6V353c0,3.6-2.9,6.6-6.6,6.6h-105
				C204.9,359.5,202,356.6,202,353z"/>
			<path class="st1" d="M382.2,359.5h-36.6c-2.7,0-4.5-2.4-3.7-5.1l23-84.1c0.6-2.2,2.7-3.8,4.8-3.8h36.6c2.7,0,4.5,2.4,3.7,5.1
				l-23,84.1C386.4,357.9,384.4,359.5,382.2,359.5z"/>
			<path class="st2" d="M351.5,359.5h-23.2c-2.7,0-4.5-2.4-3.7-5.1l23-84.1c0.6-2.2,2.7-3.8,4.8-3.8h23.2c2.7,0,4.5,2.4,3.7,5.1
				l-23,84.1C355.7,357.9,353.6,359.5,351.5,359.5z"/>
			<polygon class="st3" points="332.1,382.4 328.6,382.4 320.1,359.5 328.8,359.5 			"/>
			<polygon class="st3" points="376.7,382.4 373.2,382.4 364.8,359.5 373.5,359.5 			"/>
			<polygon class="st3" points="123.1,382.4 126.6,382.4 135,359.5 126.3,359.5 			"/>
			<polygon class="st3" points="78.5,382.4 82,382.4 90.4,359.5 81.7,359.5 			"/>
		</g>
		<g>
			<rect x="116.7" y="97.7" class="st3" width="266.7" height="95.1"/>
			<rect x="114.2" y="97.7" class="st1" width="266.7" height="95.1"/>
			
				<rect x="208" y="19.9" transform="matrix(-1.836970e-16 1 -1 -1.836970e-16 392.7776 -102.3332)" class="st2" width="79.1" height="250.7"/>
			<circle class="st1" cx="247.6" cy="145.2" r="23.7"/>
			<polygon class="st5" points="162.9,184.8 179.5,105.7 216.2,105.7 199.6,184.8 			"/>
			<polygon class="st5" points="215.1,184.8 231.7,105.7 250,105.7 233.4,184.8 			"/>
			<polygon class="st5" points="327,184.8 343.6,105.7 361.9,105.7 345.3,184.8 			"/>
		</g>
		<g>
			<path class="st1" d="M442.3,251.8c-6.2,27,9,54.8,2.8,81.8c-2.1-0.1-4.1-0.2-6.2-0.3c-2.1-0.1-4.1-0.2-6.2-0.3
				C443.1,306.2,431.9,278.6,442.3,251.8z"/>
			<path class="st1" d="M426.3,263.5c5.1,25.8-11.3,51.6-6.2,77.3c2.1,0,4.1,0,6.2,0c2.1,0,4.1,0,6.2,0
				C423.3,315,435.5,289.2,426.3,263.5z"/>
			<path class="st4" d="M437.7,242c-8.2,27.5,7,57.2-1.2,84.6c-2.2-0.2-4.5-0.4-6.7-0.6c-2.2-0.2-4.5-0.4-6.7-0.6
				C435.8,298.3,425.1,269.1,437.7,242z"/>
			<path class="st4" d="M449.7,281.6c2.6,14.9-12,26.6-9.4,41.4c1.7,0.3,3.3,0.6,5,0.9c1.7,0.3,3.3,0.6,5,0.9
				C444.3,309.4,455.7,297.1,449.7,281.6z"/>
			<ellipse class="st3" cx="435" cy="352.2" rx="33.7" ry="37.7"/>
		</g>
	</g>
</g>
<g id="Background_Simple" class="st6">
	<g class="st7">
		<path class="st8" d="M79.6,156.1c49-114,324.8-95.5,245.4,52.1c-30.4,56.5-100.6,90.4-164.5,81.5
			C89.3,279.8,48.6,228.1,79.6,156.1z"/>
		<path class="st9" d="M79.6,156.1c49-114,324.8-95.5,245.4,52.1c-30.4,56.5-100.6,90.4-164.5,81.5
			C89.3,279.8,48.6,228.1,79.6,156.1z"/>
	</g>
</g>
<g id="Shadow_1_">
	<ellipse id="_x3C_Path_x3E__124_" class="st10" cx="250" cy="416.2" rx="193.9" ry="11.3"/>
</g>
<g id="Board">
	<g>
		<g>
			<path class="st11" d="M383.8,274.6H167.7c-2.3,0-4.1-1.9-4-4.2l7.3-132.5c0.1-2.3,2.1-4.2,4.5-4.2h216.1c2.3,0,4.1,1.9,4,4.2
				l-7.3,132.5C388.1,272.7,386.1,274.6,383.8,274.6z"/>
			<path class="st11" d="M292.9,156.2H272c-7,0-12.4-5.7-12-12.6l0.2-3.9c0.4-6.7,6.2-12.3,12.9-12.3h20.9c7,0,12.4,5.7,12,12.7
				l-0.2,3.9C305.5,150.7,299.6,156.2,292.9,156.2z"/>
			<polygon class="st11" points="311.9,412.1 305.2,412.1 286.8,130.4 293.5,130.4 			"/>
			<polygon class="st11" points="261.7,412.1 268.4,412.1 286.8,130.4 280.1,130.4 			"/>
			<path class="st8" d="M382.6,274.6H166.5c-2.3,0-4.1-1.9-4-4.2l7.3-132.5c0.1-2.3,2.1-4.2,4.5-4.2h216.1c2.3,0,4.1,1.9,4,4.2
				l-7.3,132.5C387,272.7,385,274.6,382.6,274.6z"/>
			<path class="st12" d="M170,270.5c-1.9,0-3.3-1.5-3.2-3.4l6.9-126.1c0.1-1.9,1.7-3.4,3.6-3.4H387c1.9,0,3.3,1.5,3.2,3.4
				l-6.9,126.1c-0.1,1.9-1.7,3.4-3.6,3.4H170z"/>
			<path class="st13" d="M381,203.7h-63.1c-1.6,0-2.8-1.3-2.7-2.9l3.2-57.4c0-0.2-0.2-0.4-0.4-0.4s-0.4,0.2-0.4,0.4l-3.2,57.4
				c-0.1,1.6-1.4,2.9-3,2.9h-65.6c-1.6,0-2.8-1.3-2.7-2.9l3.2-57.4c0-0.2-0.2-0.4-0.4-0.4s-0.4,0.2-0.4,0.4l-3.2,57.4
				c-0.1,1.6-1.4,2.9-3,2.9H176c-0.2,0-0.4,0.2-0.4,0.4c0,0.2,0.2,0.4,0.4,0.4h63.1c1.6,0,2.8,1.3,2.7,2.9l-3.2,57.4
				c0,0.2,0.2,0.4,0.4,0.4c0.2,0,0.4-0.2,0.4-0.4l3.2-57.4c0.1-1.6,1.4-2.9,3-2.9h65.6c1.6,0,2.8,1.3,2.7,2.9l-3.2,57.4
				c0,0.2,0.2,0.4,0.4,0.4c0.2,0,0.4-0.2,0.4-0.4l3.2-57.4c0.1-1.6,1.4-2.9,3-2.9h63.1c0.2,0,0.4-0.2,0.4-0.4
				C381.4,203.9,381.2,203.7,381,203.7z"/>
		</g>
		<g>
			<polygon class="st12" points="278.1,153.4 252.7,153.4 251.3,179.2 276.6,179.9 			"/>
			<path class="st5" d="M275.3,178.8c-8.5-0.4-17-0.8-25.4-1.2c1.4-8.8,2.3-17.5,2.6-26.3c8.5,0.4,17.1,0.8,25.6,1.2
				C277.7,161.2,276.8,170,275.3,178.8z"/>
		</g>
		<g>
			<polygon class="st12" points="308.6,170.7 283.2,172.6 283.8,198.3 309.2,197.1 			"/>
			<path class="st8" d="M307.8,196.1c-8.5,0.2-17,0.5-25.6,0.7c0.7-8.8,1-17.6,0.6-26.3c8.6-0.2,17.1-0.5,25.7-0.7
				C308.9,178.4,308.6,187.2,307.8,196.1z"/>
		</g>
		<g>
			<polygon class="st12" points="234.5,217.6 187.7,215.8 183.5,257.4 230.2,260.3 			"/>
			<path class="st5" d="M227.8,258.4c-15.6-1.3-31.3-2.5-46.9-3.8c3.1-14.1,5.3-28.2,6.5-42.4c15.7,1.3,31.5,2.5,47.2,3.8
				C233.3,230.2,231.1,244.3,227.8,258.4z"/>
		</g>
		<g class="st14">
			<path class="st11" d="M186.3,159.3L186.3,159.3c-1.5,0-2.6-1.2-2.5-2.6l0,0c0.1-1.5,1.3-2.6,2.8-2.6l0,0c1.5,0,2.6,1.2,2.5,2.6
				l0,0C189,158.1,187.8,159.3,186.3,159.3z"/>
			<path class="st15" d="M227.7,159.3h-32.5c-1.5,0-2.6-1.2-2.5-2.6l0,0c0.1-1.5,1.3-2.6,2.8-2.6H228c1.5,0,2.6,1.2,2.5,2.6l0,0
				C230.4,158.1,229.1,159.3,227.7,159.3z"/>
			<path class="st11" d="M185.7,170.8L185.7,170.8c-1.5,0-2.6-1.2-2.5-2.6l0,0c0.1-1.5,1.3-2.6,2.8-2.6l0,0c1.5,0,2.6,1.2,2.5,2.6
				l0,0C188.4,169.6,187.1,170.8,185.7,170.8z"/>
			<path class="st15" d="M232.8,170.8h-38.2c-1.5,0-2.6-1.2-2.5-2.6l0,0c0.1-1.5,1.3-2.6,2.8-2.6h38.2c1.5,0,2.6,1.2,2.5,2.6l0,0
				C235.5,169.6,234.2,170.8,232.8,170.8z"/>
			<path class="st11" d="M185,182.3L185,182.3c-1.5,0-2.6-1.2-2.5-2.6l0,0c0.1-1.5,1.3-2.6,2.8-2.6l0,0c1.5,0,2.6,1.2,2.5,2.6l0,0
				C187.7,181.1,186.5,182.3,185,182.3z"/>
			<path class="st15" d="M212.5,182.3h-18.6c-1.5,0-2.6-1.2-2.5-2.6l0,0c0.1-1.5,1.3-2.6,2.8-2.6h18.6c1.5,0,2.6,1.2,2.5,2.6l0,0
				C215.2,181.1,214,182.3,212.5,182.3z"/>
			<path class="st15" d="M229.8,193.8h-18.6c-1.5,0-2.6-1.2-2.5-2.6l0,0c0.1-1.5,1.3-2.6,2.8-2.6H230c1.5,0,2.6,1.2,2.5,2.6l0,0
				C232.5,192.6,231.2,193.8,229.8,193.8z"/>
			<path class="st11" d="M184.4,193.8L184.4,193.8c-1.5,0-2.6-1.2-2.5-2.6l0,0c0.1-1.5,1.3-2.6,2.8-2.6l0,0c1.5,0,2.6,1.2,2.5,2.6
				l0,0C187.1,192.6,185.9,193.8,184.4,193.8z"/>
			<path class="st15" d="M201.9,193.8h-8.6c-1.5,0-2.6-1.2-2.5-2.6l0,0c0.1-1.5,1.3-2.6,2.8-2.6h8.6c1.5,0,2.6,1.2,2.5,2.6l0,0
				C204.6,192.6,203.3,193.8,201.9,193.8z"/>
		</g>
		<g>
			<polygon class="st8" points="265.1,228 252.6,228 250.8,259.5 263.4,259.5 			"/>
			<polygon class="st8" points="284.2,234.5 271.7,234.5 270.3,259.5 282.9,259.5 			"/>
			<polygon class="st8" points="304.6,217.7 292,217.7 289.7,259.5 302.3,259.5 			"/>
			<g>
				<path class="st5" d="M255.4,245.8c-1.2,0-2.5,0-3.8-0.1c-2.2-0.1-5.1-0.4-7.6-1.5c-0.4-0.2-0.6-0.7-0.4-1.1
					c0.2-0.4,0.7-0.6,1.1-0.4c2.3,1,5,1.3,7,1.4c15.1,0.8,28.3-3.2,41.7-12.4c3.2-2.2,7.9-6.3,10.8-10.5c0.3-0.4,0.8-0.5,1.1-0.2
					c0.4,0.3,0.5,0.8,0.2,1.1c-3,4.4-7.8,8.5-11.2,10.9C281.7,241.7,269.3,245.8,255.4,245.8z"/>
				<path class="st5" d="M307.4,227.4c-0.1,0-0.2,0-0.3-0.1c-0.4-0.2-0.6-0.6-0.4-1.1c1.2-2.8,1.4-5.9,0.7-8.7
					c-3.2,2.1-6.5,3.9-10.1,5.3c-0.4,0.2-0.9,0-1.1-0.4c-0.2-0.4,0-0.9,0.4-1.1c3.7-1.5,7.3-3.5,10.7-5.8c0.2-0.1,0.5-0.2,0.7-0.1
					c0.2,0.1,0.4,0.3,0.5,0.5c1.2,3.5,1,7.4-0.4,10.9C308,227.2,307.7,227.4,307.4,227.4z"/>
			</g>
		</g>
		<g>
			<path class="st8" d="M373.7,196.4h-46.8c-0.8,0-1.5-0.3-2.1-0.9c-0.5-0.6-0.8-1.3-0.8-2.1l2.2-39.6c0.1-1.6,1.5-2.9,3.1-2.9h46.8
				c0.8,0,1.5,0.3,2.1,0.9c0.5,0.6,0.8,1.3,0.8,2.1l-2.2,39.6C376.7,195,375.3,196.4,373.7,196.4z M329.3,151.7
				c-1.2,0-2.2,1-2.3,2.2l-2.2,39.6c0,0.6,0.2,1.1,0.5,1.5c0.4,0.4,0.9,0.6,1.5,0.6h46.8c1.2,0,2.2-1,2.3-2.2l2.2-39.6
				c0-0.6-0.2-1.1-0.5-1.5c-0.4-0.4-0.9-0.6-1.5-0.6H329.3z"/>
			<path class="st8" d="M378.1,162.2h-52c-0.2,0-0.4-0.2-0.4-0.4c0-0.2,0.2-0.4,0.4-0.4h52c0.2,0,0.4,0.2,0.4,0.4
				C378.5,162,378.3,162.2,378.1,162.2z"/>
			<path class="st8" d="M336.5,196.4C336.5,196.4,336.5,196.4,336.5,196.4c-0.2,0-0.4-0.2-0.4-0.4l1.9-34.2c0-0.2,0.2-0.4,0.4-0.4
				c0.2,0,0.4,0.2,0.4,0.4l-1.9,34.2C336.9,196.2,336.8,196.4,336.5,196.4z"/>
			<g>
				<path class="st8" d="M372.2,166.3h-28.2c-0.2,0-0.4-0.2-0.4-0.4s0.2-0.4,0.4-0.4h28.2c0.2,0,0.4,0.2,0.4,0.4
					S372.4,166.3,372.2,166.3z"/>
				<path class="st8" d="M367.9,171.2h-24.2c-0.2,0-0.4-0.2-0.4-0.4c0-0.2,0.2-0.4,0.4-0.4h24.2c0.2,0,0.4,0.2,0.4,0.4
					C368.3,171.1,368.1,171.2,367.9,171.2z"/>
				<path class="st8" d="M357.5,176.4h-14.1c-0.2,0-0.4-0.2-0.4-0.4s0.2-0.4,0.4-0.4h14.1c0.2,0,0.4,0.2,0.4,0.4
					S357.7,176.4,357.5,176.4z"/>
				<path class="st8" d="M360.1,186.4h-17.2c-0.2,0-0.4-0.2-0.4-0.4c0-0.2,0.2-0.4,0.4-0.4h17.2c0.2,0,0.4,0.2,0.4,0.4
					C360.5,186.2,360.3,186.4,360.1,186.4z"/>
				<path class="st8" d="M356.7,191.6h-14.1c-0.2,0-0.4-0.2-0.4-0.4c0-0.2,0.2-0.4,0.4-0.4h14.1c0.2,0,0.4,0.2,0.4,0.4
					C357.1,191.4,356.9,191.6,356.7,191.6z"/>
				<path class="st8" d="M364.9,191.6h-4.5c-0.2,0-0.4-0.2-0.4-0.4c0-0.2,0.2-0.4,0.4-0.4h4.5c0.2,0,0.4,0.2,0.4,0.4
					C365.3,191.4,365.1,191.6,364.9,191.6z"/>
				<path class="st8" d="M369.5,181.4h-26.4c-0.2,0-0.4-0.2-0.4-0.4s0.2-0.4,0.4-0.4h26.4c0.2,0,0.4,0.2,0.4,0.4
					S369.8,181.4,369.5,181.4z"/>
			</g>
		</g>
		<path class="st5" d="M344.9,254c-6.1,0-11.1-1.8-14.2-5.2c-3.3-3.6-4.7-9.2-3.8-15.5c0.6-3.8,1.8-7,3.7-9.6
			c1.9-2.5,4.7-4.6,8.2-6.2c7.8-3.5,16.9-3.4,24.2,0.3c3.3,1.7,5.4,3.7,6.1,6.2c0.1,0.4-0.1,0.9-0.5,1c-0.4,0.1-0.9-0.1-1-0.5
			c-0.6-2-2.4-3.8-5.3-5.2c-6.9-3.5-15.5-3.6-22.8-0.3c-3.3,1.5-5.8,3.4-7.6,5.7c-1.7,2.3-2.9,5.3-3.4,8.8
			c-0.8,5.8,0.4,10.9,3.4,14.2c4.2,4.5,11,4.8,14.8,4.6c6.9-0.4,12.9-2.8,16.8-6.8c4.6-4.7,5.8-11.7,3-16.3
			c-0.6-0.9-1.7-2.4-3.5-2.6c-0.4,0-0.8-0.4-0.7-0.9c0-0.4,0.4-0.8,0.9-0.7c1.8,0.2,3.5,1.4,4.7,3.4c3.2,5.2,1.9,13.1-3.2,18.3
			c-4.2,4.3-10.5,6.9-17.9,7.3C346.1,254,345.5,254,344.9,254z"/>
	</g>
</g>
<g id="Character_1_">
	<g>
		<path class="st16" d="M137.3,169.3l-2.9,5l-2.8,5.1c-1.9,3.4-3.6,6.9-5.3,10.4c-0.8,1.7-1.6,3.5-2.3,5.2l-0.1,0.3c0,0,0,0.1,0,0.1
			c0,0.1-0.1,0.1-0.1,0.1c-0.1,0.1-0.1,0.2-0.1,0.3c-0.1,0.2,0,0.6,0.1,1.1c0.3,1,1.3,2.4,2.4,3.7c1.1,1.3,2.6,2.6,3.9,3.7l-2.3,5
			c-1.2-0.3-2.2-0.7-3.2-1.1c-1-0.4-2-1-3.1-1.6c-2-1.2-4-2.7-5.6-5.2c-0.8-1.2-1.5-2.8-1.8-4.6c-0.1-0.9-0.2-1.8-0.1-2.7
			c0.1-0.5,0.1-0.9,0.2-1.3l0.2-0.7l0.1-0.4c0.6-2,1.3-4.1,2.1-6c1.5-3.9,3.2-7.7,5.1-11.4c0.9-1.8,1.9-3.7,2.9-5.5
			c1-1.8,2-3.6,3.2-5.4L137.3,169.3z"/>
		<path class="st16" d="M127.6,203.8l5.3-1.4l0.3,8.5c0,0-4.1,0.6-6.6-1.9L127.6,203.8z"/>
		<polygon class="st16" points="140.3,201 139.1,208.4 133.2,210.9 132.9,202.4 		"/>
		<path class="st11" d="M162,129.4c0.1,0.6,0.5,1,0.9,0.9c0.4-0.1,0.6-0.6,0.5-1.2c-0.1-0.6-0.5-1-0.9-0.9
			C162.1,128.2,161.9,128.8,162,129.4z"/>
		<path class="st17" d="M162.5,130.4c0,0,2,3.1,3.8,4.4c-0.8,1.2-2.7,1.1-2.7,1.1L162.5,130.4z"/>
		<path class="st11" d="M159.3,126.6c-0.1,0-0.2,0-0.2-0.1c-0.1-0.1-0.1-0.4,0-0.5c1.3-1.4,2.9-1.2,3-1.2c0.2,0,0.3,0.2,0.3,0.4
			c0,0.2-0.2,0.3-0.4,0.3l0,0c-0.1,0-1.3-0.2-2.3,0.9C159.4,126.5,159.3,126.6,159.3,126.6z"/>
		<path class="st16" d="M145.5,137.5c1.1,5.4,2.1,15.2-1.7,18.8c0,0,1.5,5.5,11.5,5.5c11,0,5.2-5.5,5.2-5.5c-6-1.4-5.8-5.9-4.8-10.1
			L145.5,137.5z"/>
		<path class="st11" d="M141.7,157.3c-0.8-1.5-1.7-3.2,0.1-3.7c2-0.6,14.9-1.7,18.7-0.6c-1.2,2.1,0.8,4.6,0.8,4.6L141.7,157.3z"/>
		<path class="st8" d="M109.1,407.9c0.7,0.2,1.5,0.2,1.8-0.1c0.1-0.1,0.3-0.4,0.2-0.8c-0.1-0.2-0.2-0.4-0.4-0.5
			c-1-0.5-3.3,0.5-3.4,0.5c-0.1,0-0.1,0.1-0.1,0.2c0,0.1,0,0.1,0.1,0.2C107.7,407.4,108.4,407.7,109.1,407.9z M110.3,406.7
			c0.1,0,0.1,0,0.2,0.1c0.1,0.1,0.2,0.2,0.3,0.3c0.1,0.3,0,0.4-0.1,0.4c-0.4,0.3-1.9,0-2.9-0.4C108.5,406.9,109.7,406.6,110.3,406.7
			z"/>
		<path class="st8" d="M107.3,407.3C107.4,407.3,107.4,407.3,107.3,407.3c0.9-0.2,2.7-1.5,2.7-2.3c0-0.2,0-0.4-0.4-0.6
			c-0.3-0.1-0.5-0.1-0.8,0.1c-1,0.5-1.6,2.5-1.6,2.6C107.2,407.1,107.2,407.2,107.3,407.3C107.3,407.3,107.3,407.3,107.3,407.3z
			 M109.4,404.7C109.5,404.7,109.5,404.7,109.4,404.7c0.3,0.1,0.3,0.2,0.3,0.2c0,0.5-1.2,1.5-2,1.9c0.2-0.6,0.7-1.7,1.3-2.1
			C109.1,404.7,109.3,404.7,109.4,404.7z"/>
		<path class="st8" d="M163.4,409.1c0.9,0,1.9-0.1,2.2-0.6c0.1-0.1,0.2-0.4,0-0.8c-0.1-0.2-0.3-0.3-0.6-0.4
			c-1.2-0.3-3.8,1.1-3.9,1.2c-0.1,0-0.1,0.1-0.1,0.2c0,0.1,0.1,0.1,0.1,0.1C161.6,409,162.5,409.1,163.4,409.1z M164.5,407.7
			c0.1,0,0.2,0,0.3,0c0.2,0,0.3,0.1,0.3,0.2c0.1,0.2,0.1,0.3,0,0.4c-0.3,0.5-2.2,0.5-3.6,0.3C162.4,408.3,163.7,407.7,164.5,407.7z"
			/>
		<path class="st8" d="M161.2,408.9C161.2,408.9,161.2,408.9,161.2,408.9c1-0.4,2.7-2,2.6-2.8c0-0.2-0.2-0.4-0.6-0.5
			c-0.4,0-0.7,0.1-1,0.3c-0.9,0.8-1.1,2.7-1.1,2.8c0,0.1,0,0.1,0.1,0.2C161.1,408.9,161.1,408.9,161.2,408.9z M162.9,405.9
			c0,0,0.1,0,0.1,0c0.3,0,0.3,0.2,0.3,0.2c0.1,0.5-1.1,1.7-2,2.3c0.1-0.6,0.4-1.8,1-2.3C162.5,406,162.7,405.9,162.9,405.9z"/>
		<polygon class="st16" points="153.1,408.7 160.4,408.7 161.2,391.7 153.8,391.7 		"/>
		<polygon class="st16" points="99.2,405.3 106.3,406.9 113.5,391 106.4,389.5 		"/>
		<path class="st11" d="M107,406.2l-8.1-1.7c-0.3-0.1-0.6,0.1-0.7,0.4l-2.8,6.1c-0.3,0.6,0.1,1.4,0.8,1.5c2.8,0.6,4.2,0.7,7.8,1.5
			c2.2,0.5,7.1,1.7,10.1,2.3c2.9,0.6,4.1-2.2,2.9-2.8c-5.3-2.4-7.5-4.5-8.9-6.5C107.8,406.5,107.5,406.3,107,406.2z"/>
		<path class="st11" d="M160.4,407.9h-8c-0.3,0-0.6,0.2-0.6,0.5l-1.5,6.5c-0.2,0.7,0.4,1.3,1.1,1.3c2.9,0,7.1-0.2,10.7-0.2
			c4.3,0,7.9,0.2,12.9,0.2c3,0,3.9-3,2.6-3.3c-5.7-1.3-10.4-1.4-15.4-4.5C161.6,408.1,161,407.9,160.4,407.9z"/>
		<g>
			<path class="st8" d="M130.7,158c-6.9,1.6-12.6,19.2-12.6,19.2l13.8,10.5c0,0,5.1-4.8,7.3-13.6C141.6,164.9,137.7,156.4,130.7,158
				z"/>
			<path class="st18" d="M130.7,158c-6.9,1.6-12.6,19.2-12.6,19.2l13.8,10.5c0,0,5.1-4.8,7.3-13.6
				C141.6,164.9,137.7,156.4,130.7,158z"/>
		</g>
		<path class="st19" d="M136.6,170.9c-3.7,3.7-5,10.4-5.2,16.3l0.6,0.5c0,0,5.1-4.8,7.3-13.6c0.1-0.5,0.3-1.1,0.4-1.6L136.6,170.9z"
			/>
		<g>
			<path class="st8" d="M171.8,158.4c0,0,7.8,8.8,0.4,63.5c-11.8,0-33.5,0-39.3,0c-0.3-6,3.5-35.5-2.3-63.9c0,0,6.7-1.4,13.2-1.7
				c5-0.2,12.3-0.4,16.7,0C166.4,156.9,171.8,158.4,171.8,158.4z"/>
			<path class="st18" d="M171.8,158.4c0,0,7.8,8.8,0.4,63.5c-11.8,0-33.5,0-39.3,0c-0.3-6,3.5-35.5-2.3-63.9c0,0,6.7-1.4,13.2-1.7
				c5-0.2,12.3-0.4,16.7,0C166.4,156.9,171.8,158.4,171.8,158.4z"/>
		</g>
		<path class="st19" d="M175.3,175.1l-0.2-0.1l-8.9,2.1c-0.5,6,5.7,13.3,8.9,16.6C175.5,185.9,175.5,179.9,175.3,175.1z"/>
		<g>
			<polygon class="st19" points="161.2,391.7 160.8,400.5 153.4,400.5 153.8,391.7 			"/>
			<polygon class="st19" points="106.4,389.5 113.5,391 109.8,399.2 102.6,397.7 			"/>
		</g>
		<path class="st16" d="M142.4,132.1c1.9,7,2.6,11.3,7,14.2c6.5,4.4,14.7-0.7,14.9-8.1c0.2-6.7-2.9-17.1-10.5-18.5
			C146.4,118.2,140.5,125,142.4,132.1z"/>
		<path class="st11" d="M145.6,143.5c3,1.7,13.9-4,11.7-12.7c0,0,4.2-5,3.7-10.5c-0.5-5.5-4.3-7.6-8.3-6.4c-3.6,1-3.4,3-3.4,3
			s-16.8,2-13.2,8.8C129.2,133.1,141.9,141.4,145.6,143.5z"/>
		<path class="st11" d="M136.5,126.3c0,0-2-3.5-4.9-1.5C133,124.8,135.2,125,136.5,126.3z"/>
		<path class="st11" d="M160.5,124c0,0,3.7-8.3-2-10.9C160.4,115.7,161.4,120,160.5,124z"/>
		<path class="st16" d="M154.4,132.4c0.5,1.8,1.7,3.4,3,4.4c1.9,1.4,3.3,0,3.2-2.1c-0.1-1.9-1.3-5-3.4-5.6
			C155.1,128.4,153.8,130.2,154.4,132.4z"/>
		<path class="st11" d="M158.3,221.9c0,0-8.3,56.1-12.9,77.2c-5,23-31.9,99.2-31.9,99.2l-13.2-2.8c0,0,18.8-62.1,23-94.3
			c3.2-24.7,9.6-79.3,9.6-79.3H158.3z"/>
		<path class="st8" d="M116.7,393.9c0.1,0-2.5,4.8-2.5,4.8l-14.8-3.2l1.2-4.4L116.7,393.9z"/>
		<path class="st14" d="M153.1,241.9c-9.6,1.9-8.6,37.8-7.5,56.3c2.8-13.1,6.8-38.2,9.6-56.1C154.6,241.8,153.9,241.7,153.1,241.9z"
			/>
		<path class="st11" d="M172.3,221.9c0,0,1,54.9,0.2,77.3c-0.8,23.3-9,99.6-9,99.6h-12.4c0,0-0.5-74.9-1-97.8
			c-0.6-24.9-3.6-79.1-3.6-79.1H172.3z"/>
		<polygon class="st12" points="241.4,183.1 216,183.1 214.6,208.9 239.9,209.6 		"/>
		<path class="st8" d="M228,199.7c-8.5-1-16.9-2.1-25.4-3.1c2.1-8.6,3.6-17.3,4.6-25.9c8.5,1,17,2.1,25.5,3.1
			C231.7,182.5,230.1,191.1,228,199.7z"/>
		<path class="st8" d="M165.9,393.8c0.1,0-0.7,5.2-0.7,5.2h-15.1l-0.4-4.6L165.9,393.8z"/>
		<path class="st16" d="M175.5,165.1c1.1,1.8,2.4,3.7,3.7,5.6c1.3,1.8,2.6,3.7,4,5.5c2.7,3.5,5.6,6.9,8.8,9.8c0.8,0.7,1.6,1.4,2.4,2
			l0.6,0.5c-0.1,0-0.2-0.1-0.4-0.1c-0.3,0-0.4,0-0.3,0c0.2,0.1,0.9,0,1.6-0.4c0.8-0.3,1.7-0.8,2.5-1.3c3.5-2.2,7.1-5.2,10.6-8.2
			l4.3,3.5c-2.7,4.3-5.6,8.2-9.6,11.7c-1,0.9-2.1,1.8-3.4,2.5c-1.3,0.8-2.8,1.5-5,1.9c-1.1,0.1-2.4,0.1-3.8-0.3
			c-0.7-0.2-1.4-0.6-1.9-0.9l-0.9-0.5c-1.1-0.7-2.2-1.5-3.3-2.3c-4.1-3.3-7.6-7-10.8-10.8c-1.6-1.9-3.1-3.9-4.5-5.9
			c-1.4-2.1-2.8-4-4.1-6.3L175.5,165.1z"/>
		<g>
			<path class="st8" d="M161,169.5c-2.3,9.8,15.5,19.5,15.5,19.5l11.6-13.6c0,0-5.3-8-11.8-14.3C168.2,153.4,162.8,162,161,169.5z"
				/>
			<path class="st18" d="M161,169.5c-2.3,9.8,15.5,19.5,15.5,19.5l11.6-13.6c0,0-5.3-8-11.8-14.3C168.2,153.4,162.8,162,161,169.5z"
				/>
		</g>
		<path class="st16" d="M207.8,180.4l2.7-8.8l7.2,3.6c0,0-1,6.4-6.3,7.5L207.8,180.4z"/>
		<polygon class="st16" points="213.4,169.2 219.9,171 217.7,175.2 210.5,171.6 		"/>
	</g>
</g>
</svg>
